# Tessera beam.4m
mtllib beam.4m.mtl
o beam.4m
v 0.000000 0.000000 0.070000
v 0.000000 0.000000 0.230000
v 0.000000 0.000000 0.300000
v 0.000000 0.050000 0.300000
v 0.000000 0.190000 0.300000
v 0.000000 0.240000 0.300000
v 0.000000 0.240000 0.230000
v 0.000000 0.240000 0.070000
v 0.000000 0.240000 0.000000
v 0.000000 0.190000 0.000000
v 0.000000 0.050000 0.000000
v 0.000000 0.000000 0.000000
v 0.000000 0.120000 0.150000
v 0.780000 0.000000 0.070000
v 0.780000 0.050000 0.070000
v 0.780000 0.050000 0.230000
v 0.780000 0.000000 0.230000
v 0.780000 0.190000 0.070000
v 0.780000 0.240000 0.070000
v 0.780000 0.240000 0.230000
v 0.780000 0.190000 0.230000
v 1.220000 0.000000 0.230000
v 1.220000 0.050000 0.230000
v 1.220000 0.050000 0.070000
v 1.220000 0.000000 0.070000
v 1.220000 0.190000 0.230000
v 1.220000 0.240000 0.230000
v 1.220000 0.240000 0.070000
v 1.220000 0.190000 0.070000
v 1.780000 0.000000 0.070000
v 1.780000 0.050000 0.070000
v 1.780000 0.050000 0.230000
v 1.780000 0.000000 0.230000
v 1.780000 0.190000 0.070000
v 1.780000 0.240000 0.070000
v 1.780000 0.240000 0.230000
v 1.780000 0.190000 0.230000
v 2.220000 0.000000 0.230000
v 2.220000 0.050000 0.230000
v 2.220000 0.050000 0.070000
v 2.220000 0.000000 0.070000
v 2.220000 0.190000 0.230000
v 2.220000 0.240000 0.230000
v 2.220000 0.240000 0.070000
v 2.220000 0.190000 0.070000
v 2.780000 0.000000 0.070000
v 2.780000 0.050000 0.070000
v 2.780000 0.050000 0.230000
v 2.780000 0.000000 0.230000
v 2.780000 0.190000 0.070000
v 2.780000 0.240000 0.070000
v 2.780000 0.240000 0.230000
v 2.780000 0.190000 0.230000
v 3.220000 0.000000 0.230000
v 3.220000 0.050000 0.230000
v 3.220000 0.050000 0.070000
v 3.220000 0.000000 0.070000
v 3.220000 0.190000 0.230000
v 3.220000 0.240000 0.230000
v 3.220000 0.240000 0.070000
v 3.220000 0.190000 0.070000
v 4.000000 0.000000 0.000000
v 4.000000 0.050000 0.000000
v 4.000000 0.190000 0.000000
v 4.000000 0.240000 0.000000
v 4.000000 0.240000 0.070000
v 4.000000 0.240000 0.230000
v 4.000000 0.240000 0.300000
v 4.000000 0.190000 0.300000
v 4.000000 0.050000 0.300000
v 4.000000 0.000000 0.300000
v 4.000000 0.000000 0.230000
v 4.000000 0.000000 0.070000
v 4.000000 0.120000 0.150000
v 0.780000 0.000000 0.000000
v 1.220000 0.000000 0.000000
v 1.780000 0.000000 0.000000
v 2.220000 0.000000 0.000000
v 2.780000 0.000000 0.000000
v 3.220000 0.000000 0.000000
v 2.000000 0.000000 0.035000
v 0.780000 0.000000 0.300000
v 0.390000 0.000000 0.200000
v 1.780000 0.000000 0.300000
v 1.220000 0.000000 0.300000
v 1.500000 0.000000 0.200000
v 2.780000 0.000000 0.300000
v 2.220000 0.000000 0.300000
v 2.500000 0.000000 0.200000
v 3.220000 0.000000 0.300000
v 3.610000 0.000000 0.200000
v 3.220000 0.240000 0.000000
v 2.780000 0.240000 0.000000
v 2.220000 0.240000 0.000000
v 1.780000 0.240000 0.000000
v 1.220000 0.240000 0.000000
v 0.780000 0.240000 0.000000
v 2.000000 0.240000 0.035000
v 0.780000 0.240000 0.300000
v 0.390000 0.240000 0.200000
v 1.220000 0.240000 0.300000
v 1.780000 0.240000 0.300000
v 1.500000 0.240000 0.200000
v 2.220000 0.240000 0.300000
v 2.780000 0.240000 0.300000
v 2.500000 0.240000 0.200000
v 3.220000 0.240000 0.300000
v 3.610000 0.240000 0.200000
v 2.000000 0.120000 0.000000
v 2.000000 0.120000 0.300000
vn -1.000000 0.000000 0.000000
vn 1.000000 0.000000 0.000000
vn 0.000000 -1.000000 0.000000
vn 0.000000 1.000000 0.000000
vn 0.000000 0.000000 -1.000000
vn 0.000000 0.000000 1.000000
usemtl M_Steel
f 13//1 1//1 2//1
f 13//1 2//1 3//1
f 13//1 3//1 4//1
f 13//1 4//1 5//1
f 13//1 5//1 6//1
f 13//1 6//1 7//1
f 13//1 7//1 8//1
f 13//1 8//1 9//1
f 13//1 9//1 10//1
f 13//1 10//1 11//1
f 13//1 11//1 12//1
f 13//1 12//1 1//1
f 14//2 15//2 16//2
f 14//2 16//2 17//2
f 18//2 19//2 20//2
f 18//2 20//2 21//2
f 22//1 23//1 24//1
f 22//1 24//1 25//1
f 26//1 27//1 28//1
f 26//1 28//1 29//1
f 30//2 31//2 32//2
f 30//2 32//2 33//2
f 34//2 35//2 36//2
f 34//2 36//2 37//2
f 38//1 39//1 40//1
f 38//1 40//1 41//1
f 42//1 43//1 44//1
f 42//1 44//1 45//1
f 46//2 47//2 48//2
f 46//2 48//2 49//2
f 50//2 51//2 52//2
f 50//2 52//2 53//2
f 54//1 55//1 56//1
f 54//1 56//1 57//1
f 58//1 59//1 60//1
f 58//1 60//1 61//1
f 74//2 62//2 63//2
f 74//2 63//2 64//2
f 74//2 64//2 65//2
f 74//2 65//2 66//2
f 74//2 66//2 67//2
f 74//2 67//2 68//2
f 74//2 68//2 69//2
f 74//2 69//2 70//2
f 74//2 70//2 71//2
f 74//2 71//2 72//2
f 74//2 72//2 73//2
f 74//2 73//2 62//2
f 81//3 75//3 76//3
f 81//3 76//3 77//3
f 81//3 77//3 78//3
f 81//3 78//3 79//3
f 81//3 79//3 80//3
f 81//3 80//3 62//3
f 81//3 62//3 73//3
f 81//3 73//3 57//3
f 81//3 57//3 46//3
f 81//3 46//3 41//3
f 81//3 41//3 30//3
f 81//3 30//3 25//3
f 81//3 25//3 14//3
f 81//3 14//3 1//3
f 81//3 1//3 12//3
f 81//3 12//3 75//3
f 83//3 14//3 17//3
f 83//3 17//3 82//3
f 83//3 82//3 3//3
f 83//3 3//3 2//3
f 83//3 2//3 1//3
f 83//3 1//3 14//3
f 86//3 30//3 33//3
f 86//3 33//3 84//3
f 86//3 84//3 85//3
f 86//3 85//3 22//3
f 86//3 22//3 25//3
f 86//3 25//3 30//3
f 89//3 46//3 49//3
f 89//3 49//3 87//3
f 89//3 87//3 88//3
f 89//3 88//3 38//3
f 89//3 38//3 41//3
f 89//3 41//3 46//3
f 91//3 73//3 72//3
f 91//3 72//3 71//3
f 91//3 71//3 90//3
f 91//3 90//3 54//3
f 91//3 54//3 57//3
f 91//3 57//3 73//3
f 22//3 85//3 82//3
f 22//3 82//3 17//3
f 38//3 88//3 84//3
f 38//3 84//3 33//3
f 54//3 90//3 87//3
f 54//3 87//3 49//3
f 98//4 9//4 8//4
f 98//4 8//4 19//4
f 98//4 19//4 28//4
f 98//4 28//4 35//4
f 98//4 35//4 44//4
f 98//4 44//4 51//4
f 98//4 51//4 60//4
f 98//4 60//4 66//4
f 98//4 66//4 65//4
f 98//4 65//4 92//4
f 98//4 92//4 93//4
f 98//4 93//4 94//4
f 98//4 94//4 95//4
f 98//4 95//4 96//4
f 98//4 96//4 97//4
f 98//4 97//4 9//4
f 100//4 8//4 7//4
f 100//4 7//4 6//4
f 100//4 6//4 99//4
f 100//4 99//4 20//4
f 100//4 20//4 19//4
f 100//4 19//4 8//4
f 103//4 28//4 27//4
f 103//4 27//4 101//4
f 103//4 101//4 102//4
f 103//4 102//4 36//4
f 103//4 36//4 35//4
f 103//4 35//4 28//4
f 106//4 44//4 43//4
f 106//4 43//4 104//4
f 106//4 104//4 105//4
f 106//4 105//4 52//4
f 106//4 52//4 51//4
f 106//4 51//4 44//4
f 108//4 60//4 59//4
f 108//4 59//4 107//4
f 108//4 107//4 68//4
f 108//4 68//4 67//4
f 108//4 67//4 66//4
f 108//4 66//4 60//4
f 20//4 99//4 101//4
f 20//4 101//4 27//4
f 36//4 102//4 104//4
f 36//4 104//4 43//4
f 52//4 105//4 107//4
f 52//4 107//4 59//4
f 24//3 23//3 16//3
f 24//3 16//3 15//3
f 40//3 39//3 32//3
f 40//3 32//3 31//3
f 56//3 55//3 48//3
f 56//3 48//3 47//3
f 18//4 21//4 26//4
f 18//4 26//4 29//4
f 34//4 37//4 42//4
f 34//4 42//4 45//4
f 50//4 53//4 58//4
f 50//4 58//4 61//4
f 109//5 11//5 10//5
f 109//5 10//5 9//5
f 109//5 9//5 97//5
f 109//5 97//5 96//5
f 109//5 96//5 95//5
f 109//5 95//5 94//5
f 109//5 94//5 93//5
f 109//5 93//5 92//5
f 109//5 92//5 65//5
f 109//5 65//5 64//5
f 109//5 64//5 63//5
f 109//5 63//5 62//5
f 109//5 62//5 80//5
f 109//5 80//5 79//5
f 109//5 79//5 78//5
f 109//5 78//5 77//5
f 109//5 77//5 76//5
f 109//5 76//5 75//5
f 109//5 75//5 12//5
f 109//5 12//5 11//5
f 110//6 3//6 82//6
f 110//6 82//6 85//6
f 110//6 85//6 84//6
f 110//6 84//6 88//6
f 110//6 88//6 87//6
f 110//6 87//6 90//6
f 110//6 90//6 71//6
f 110//6 71//6 70//6
f 110//6 70//6 69//6
f 110//6 69//6 68//6
f 110//6 68//6 107//6
f 110//6 107//6 105//6
f 110//6 105//6 104//6
f 110//6 104//6 102//6
f 110//6 102//6 101//6
f 110//6 101//6 99//6
f 110//6 99//6 6//6
f 110//6 6//6 5//6
f 110//6 5//6 4//6
f 110//6 4//6 3//6
f 14//6 25//6 24//6
f 14//6 24//6 15//6
f 18//6 29//6 28//6
f 18//6 28//6 19//6
f 30//6 41//6 40//6
f 30//6 40//6 31//6
f 34//6 45//6 44//6
f 34//6 44//6 35//6
f 46//6 57//6 56//6
f 46//6 56//6 47//6
f 50//6 61//6 60//6
f 50//6 60//6 51//6
f 16//5 23//5 22//5
f 16//5 22//5 17//5
f 20//5 27//5 26//5
f 20//5 26//5 21//5
f 32//5 39//5 38//5
f 32//5 38//5 33//5
f 36//5 43//5 42//5
f 36//5 42//5 37//5
f 48//5 55//5 54//5
f 48//5 54//5 49//5
f 52//5 59//5 58//5
f 52//5 58//5 53//5
