# Tessera column.3m
mtllib column.3m.mtl
o column.3m
v 0.050000 0.090000 2.560000
v 0.050000 0.310000 2.560000
v 0.050000 0.310000 0.140000
v 0.050000 0.090000 0.140000
v 0.349000 0.090000 0.140000
v 0.349000 0.310000 0.140000
v 0.349000 0.310000 2.560000
v 0.349000 0.090000 2.560000
v 0.400000 0.000000 0.060000
v 0.400000 0.090000 0.060000
v 0.400000 0.090000 0.140000
v 0.400000 0.090000 2.560000
v 0.400000 0.090000 2.640000
v 0.400000 0.000000 2.640000
v 0.400000 0.000000 2.560000
v 0.400000 0.000000 0.140000
v 0.400000 0.045000 1.350000
v 0.400000 0.310000 0.060000
v 0.400000 0.400000 0.060000
v 0.400000 0.400000 0.140000
v 0.400000 0.310000 0.140000
v 0.400000 0.266667 0.100000
v 0.400000 0.310000 2.560000
v 0.400000 0.400000 2.560000
v 0.400000 0.400000 2.640000
v 0.400000 0.310000 2.640000
v 0.400000 0.266667 2.600000
v 0.000000 0.000000 0.140000
v 0.000000 0.000000 2.560000
v 0.000000 0.000000 2.640000
v 0.000000 0.090000 2.640000
v 0.000000 0.090000 2.560000
v 0.000000 0.090000 0.140000
v 0.000000 0.090000 0.060000
v 0.000000 0.000000 0.060000
v 0.000000 0.045000 1.350000
v 0.000000 0.310000 0.140000
v 0.000000 0.400000 0.140000
v 0.000000 0.400000 0.060000
v 0.000000 0.310000 0.060000
v 0.000000 0.266667 0.100000
v 0.000000 0.310000 2.640000
v 0.000000 0.400000 2.640000
v 0.000000 0.400000 2.560000
v 0.000000 0.310000 2.560000
v 0.000000 0.266667 2.600000
v -0.040000 -0.040000 0.060000
v -0.040000 0.000000 0.060000
v -0.040000 0.090000 0.060000
v -0.040000 0.310000 0.060000
v -0.040000 0.400000 0.060000
v -0.040000 0.440000 0.060000
v -0.040000 0.440000 0.000000
v -0.040000 0.400000 0.000000
v -0.040000 0.310000 0.000000
v -0.040000 0.090000 0.000000
v -0.040000 0.000000 0.000000
v -0.040000 -0.040000 0.000000
v -0.040000 0.200000 0.030000
v -0.040000 -0.040000 2.700000
v -0.040000 0.000000 2.700000
v -0.040000 0.090000 2.700000
v -0.040000 0.310000 2.700000
v -0.040000 0.400000 2.700000
v -0.040000 0.440000 2.700000
v -0.040000 0.440000 2.640000
v -0.040000 0.400000 2.640000
v -0.040000 0.310000 2.640000
v -0.040000 0.090000 2.640000
v -0.040000 0.000000 2.640000
v -0.040000 -0.040000 2.640000
v -0.040000 0.200000 2.670000
v 0.440000 -0.040000 0.000000
v 0.440000 0.000000 0.000000
v 0.440000 0.090000 0.000000
v 0.440000 0.310000 0.000000
v 0.440000 0.400000 0.000000
v 0.440000 0.440000 0.000000
v 0.440000 0.440000 0.060000
v 0.440000 0.400000 0.060000
v 0.440000 0.310000 0.060000
v 0.440000 0.090000 0.060000
v 0.440000 0.000000 0.060000
v 0.440000 -0.040000 0.060000
v 0.440000 0.200000 0.030000
v 0.440000 -0.040000 2.640000
v 0.440000 0.000000 2.640000
v 0.440000 0.090000 2.640000
v 0.440000 0.310000 2.640000
v 0.440000 0.400000 2.640000
v 0.440000 0.440000 2.640000
v 0.440000 0.440000 2.700000
v 0.440000 0.400000 2.700000
v 0.440000 0.310000 2.700000
v 0.440000 0.090000 2.700000
v 0.440000 0.000000 2.700000
v 0.440000 -0.040000 2.700000
v 0.440000 0.200000 2.670000
v 0.050000 0.000000 0.060000
v 0.349000 0.000000 0.060000
v 0.349000 0.000000 2.640000
v 0.050000 0.000000 2.640000
v 0.199833 0.000000 1.350000
v 0.050000 0.400000 2.640000
v 0.349000 0.400000 2.640000
v 0.349000 0.400000 0.060000
v 0.050000 0.400000 0.060000
v 0.199833 0.400000 1.350000
v 0.000000 -0.040000 0.000000
v 0.050000 -0.040000 0.000000
v 0.349000 -0.040000 0.000000
v 0.400000 -0.040000 0.000000
v 0.400000 -0.040000 0.060000
v 0.349000 -0.040000 0.060000
v 0.050000 -0.040000 0.060000
v 0.000000 -0.040000 0.060000
v 0.199833 -0.040000 0.030000
v 0.000000 -0.040000 2.640000
v 0.050000 -0.040000 2.640000
v 0.349000 -0.040000 2.640000
v 0.400000 -0.040000 2.640000
v 0.400000 -0.040000 2.700000
v 0.349000 -0.040000 2.700000
v 0.050000 -0.040000 2.700000
v 0.000000 -0.040000 2.700000
v 0.199833 -0.040000 2.670000
v 0.000000 0.440000 0.060000
v 0.050000 0.440000 0.060000
v 0.349000 0.440000 0.060000
v 0.400000 0.440000 0.060000
v 0.400000 0.440000 0.000000
v 0.349000 0.440000 0.000000
v 0.050000 0.440000 0.000000
v 0.000000 0.440000 0.000000
v 0.199833 0.440000 0.030000
v 0.000000 0.440000 2.700000
v 0.050000 0.440000 2.700000
v 0.349000 0.440000 2.700000
v 0.400000 0.440000 2.700000
v 0.400000 0.440000 2.640000
v 0.349000 0.440000 2.640000
v 0.050000 0.440000 2.640000
v 0.000000 0.440000 2.640000
v 0.199833 0.440000 2.670000
v -0.020000 0.200000 0.060000
v 0.247800 -0.020000 0.060000
v 0.247800 0.420000 0.060000
v 0.420000 0.200000 0.060000
v -0.020000 0.200000 2.640000
v 0.247800 -0.020000 2.640000
v 0.247800 0.420000 2.640000
v 0.420000 0.200000 2.640000
v 0.199900 0.200000 0.000000
v 0.199900 0.200000 2.700000
vn -1.000000 0.000000 0.000000
vn 1.000000 0.000000 0.000000
vn 0.000000 -1.000000 0.000000
vn 0.000000 1.000000 0.000000
vn 0.000000 0.000000 1.000000
vn 0.000000 0.000000 -1.000000
usemtl M_Steel
f 1//1 2//1 3//1
f 1//1 3//1 4//1
f 5//2 6//2 7//2
f 5//2 7//2 8//2
f 17//2 9//2 10//2
f 17//2 10//2 11//2
f 17//2 11//2 12//2
f 17//2 12//2 13//2
f 17//2 13//2 14//2
f 17//2 14//2 15//2
f 17//2 15//2 16//2
f 17//2 16//2 9//2
f 22//2 10//2 18//2
f 22//2 18//2 19//2
f 22//2 19//2 20//2
f 22//2 20//2 21//2
f 22//2 21//2 11//2
f 22//2 11//2 10//2
f 27//2 12//2 23//2
f 27//2 23//2 24//2
f 27//2 24//2 25//2
f 27//2 25//2 26//2
f 27//2 26//2 13//2
f 27//2 13//2 12//2
f 21//2 20//2 24//2
f 21//2 24//2 23//2
f 36//1 28//1 29//1
f 36//1 29//1 30//1
f 36//1 30//1 31//1
f 36//1 31//1 32//1
f 36//1 32//1 33//1
f 36//1 33//1 34//1
f 36//1 34//1 35//1
f 36//1 35//1 28//1
f 41//1 33//1 37//1
f 41//1 37//1 38//1
f 41//1 38//1 39//1
f 41//1 39//1 40//1
f 41//1 40//1 34//1
f 41//1 34//1 33//1
f 46//1 31//1 42//1
f 46//1 42//1 43//1
f 46//1 43//1 44//1
f 46//1 44//1 45//1
f 46//1 45//1 32//1
f 46//1 32//1 31//1
f 45//1 44//1 38//1
f 45//1 38//1 37//1
f 59//1 47//1 48//1
f 59//1 48//1 49//1
f 59//1 49//1 50//1
f 59//1 50//1 51//1
f 59//1 51//1 52//1
f 59//1 52//1 53//1
f 59//1 53//1 54//1
f 59//1 54//1 55//1
f 59//1 55//1 56//1
f 59//1 56//1 57//1
f 59//1 57//1 58//1
f 59//1 58//1 47//1
f 72//1 60//1 61//1
f 72//1 61//1 62//1
f 72//1 62//1 63//1
f 72//1 63//1 64//1
f 72//1 64//1 65//1
f 72//1 65//1 66//1
f 72//1 66//1 67//1
f 72//1 67//1 68//1
f 72//1 68//1 69//1
f 72//1 69//1 70//1
f 72//1 70//1 71//1
f 72//1 71//1 60//1
f 85//2 73//2 74//2
f 85//2 74//2 75//2
f 85//2 75//2 76//2
f 85//2 76//2 77//2
f 85//2 77//2 78//2
f 85//2 78//2 79//2
f 85//2 79//2 80//2
f 85//2 80//2 81//2
f 85//2 81//2 82//2
f 85//2 82//2 83//2
f 85//2 83//2 84//2
f 85//2 84//2 73//2
f 98//2 86//2 87//2
f 98//2 87//2 88//2
f 98//2 88//2 89//2
f 98//2 89//2 90//2
f 98//2 90//2 91//2
f 98//2 91//2 92//2
f 98//2 92//2 93//2
f 98//2 93//2 94//2
f 98//2 94//2 95//2
f 98//2 95//2 96//2
f 98//2 96//2 97//2
f 98//2 97//2 86//2
f 103//3 99//3 100//3
f 103//3 100//3 9//3
f 103//3 9//3 16//3
f 103//3 16//3 15//3
f 103//3 15//3 14//3
f 103//3 14//3 101//3
f 103//3 101//3 102//3
f 103//3 102//3 30//3
f 103//3 30//3 29//3
f 103//3 29//3 28//3
f 103//3 28//3 35//3
f 103//3 35//3 99//3
f 108//4 39//4 38//4
f 108//4 38//4 44//4
f 108//4 44//4 43//4
f 108//4 43//4 104//4
f 108//4 104//4 105//4
f 108//4 105//4 25//4
f 108//4 25//4 24//4
f 108//4 24//4 20//4
f 108//4 20//4 19//4
f 108//4 19//4 106//4
f 108//4 106//4 107//4
f 108//4 107//4 39//4
f 33//4 32//4 1//4
f 33//4 1//4 4//4
f 5//4 8//4 12//4
f 5//4 12//4 11//4
f 3//3 2//3 45//3
f 3//3 45//3 37//3
f 21//3 23//3 7//3
f 21//3 7//3 6//3
f 117//3 109//3 110//3
f 117//3 110//3 111//3
f 117//3 111//3 112//3
f 117//3 112//3 73//3
f 117//3 73//3 84//3
f 117//3 84//3 113//3
f 117//3 113//3 114//3
f 117//3 114//3 115//3
f 117//3 115//3 116//3
f 117//3 116//3 47//3
f 117//3 47//3 58//3
f 117//3 58//3 109//3
f 126//3 118//3 119//3
f 126//3 119//3 120//3
f 126//3 120//3 121//3
f 126//3 121//3 86//3
f 126//3 86//3 97//3
f 126//3 97//3 122//3
f 126//3 122//3 123//3
f 126//3 123//3 124//3
f 126//3 124//3 125//3
f 126//3 125//3 60//3
f 126//3 60//3 71//3
f 126//3 71//3 118//3
f 135//4 53//4 52//4
f 135//4 52//4 127//4
f 135//4 127//4 128//4
f 135//4 128//4 129//4
f 135//4 129//4 130//4
f 135//4 130//4 79//4
f 135//4 79//4 78//4
f 135//4 78//4 131//4
f 135//4 131//4 132//4
f 135//4 132//4 133//4
f 135//4 133//4 134//4
f 135//4 134//4 53//4
f 144//4 66//4 65//4
f 144//4 65//4 136//4
f 144//4 136//4 137//4
f 144//4 137//4 138//4
f 144//4 138//4 139//4
f 144//4 139//4 92//4
f 144//4 92//4 91//4
f 144//4 91//4 140//4
f 144//4 140//4 141//4
f 144//4 141//4 142//4
f 144//4 142//4 143//4
f 144//4 143//4 66//4
f 145//5 47//5 116//5
f 145//5 116//5 35//5
f 145//5 35//5 34//5
f 145//5 34//5 40//5
f 145//5 40//5 39//5
f 145//5 39//5 127//5
f 145//5 127//5 52//5
f 145//5 52//5 51//5
f 145//5 51//5 50//5
f 145//5 50//5 49//5
f 145//5 49//5 48//5
f 145//5 48//5 47//5
f 146//5 116//5 115//5
f 146//5 115//5 114//5
f 146//5 114//5 113//5
f 146//5 113//5 84//5
f 146//5 84//5 83//5
f 146//5 83//5 9//5
f 146//5 9//5 100//5
f 146//5 100//5 99//5
f 146//5 99//5 35//5
f 146//5 35//5 116//5
f 147//5 39//5 107//5
f 147//5 107//5 106//5
f 147//5 106//5 19//5
f 147//5 19//5 80//5
f 147//5 80//5 79//5
f 147//5 79//5 130//5
f 147//5 130//5 129//5
f 147//5 129//5 128//5
f 147//5 128//5 127//5
f 147//5 127//5 39//5
f 148//5 9//5 83//5
f 148//5 83//5 82//5
f 148//5 82//5 81//5
f 148//5 81//5 80//5
f 148//5 80//5 19//5
f 148//5 19//5 18//5
f 148//5 18//5 10//5
f 148//5 10//5 9//5
f 149//6 70//6 69//6
f 149//6 69//6 68//6
f 149//6 68//6 67//6
f 149//6 67//6 66//6
f 149//6 66//6 143//6
f 149//6 143//6 43//6
f 149//6 43//6 42//6
f 149//6 42//6 31//6
f 149//6 31//6 30//6
f 149//6 30//6 118//6
f 149//6 118//6 71//6
f 149//6 71//6 70//6
f 150//6 30//6 102//6
f 150//6 102//6 101//6
f 150//6 101//6 14//6
f 150//6 14//6 87//6
f 150//6 87//6 86//6
f 150//6 86//6 121//6
f 150//6 121//6 120//6
f 150//6 120//6 119//6
f 150//6 119//6 118//6
f 150//6 118//6 30//6
f 151//6 143//6 142//6
f 151//6 142//6 141//6
f 151//6 141//6 140//6
f 151//6 140//6 91//6
f 151//6 91//6 90//6
f 151//6 90//6 25//6
f 151//6 25//6 105//6
f 151//6 105//6 104//6
f 151//6 104//6 43//6
f 151//6 43//6 143//6
f 152//6 13//6 26//6
f 152//6 26//6 25//6
f 152//6 25//6 90//6
f 152//6 90//6 89//6
f 152//6 89//6 88//6
f 152//6 88//6 87//6
f 152//6 87//6 14//6
f 152//6 14//6 13//6
f 33//5 4//5 3//5
f 33//5 3//5 37//5
f 5//5 11//5 21//5
f 5//5 21//5 6//5
f 45//6 2//6 1//6
f 45//6 1//6 32//6
f 7//6 23//6 12//6
f 7//6 12//6 8//6
f 153//6 57//6 56//6
f 153//6 56//6 55//6
f 153//6 55//6 54//6
f 153//6 54//6 53//6
f 153//6 53//6 134//6
f 153//6 134//6 133//6
f 153//6 133//6 132//6
f 153//6 132//6 131//6
f 153//6 131//6 78//6
f 153//6 78//6 77//6
f 153//6 77//6 76//6
f 153//6 76//6 75//6
f 153//6 75//6 74//6
f 153//6 74//6 73//6
f 153//6 73//6 112//6
f 153//6 112//6 111//6
f 153//6 111//6 110//6
f 153//6 110//6 109//6
f 153//6 109//6 58//6
f 153//6 58//6 57//6
f 154//5 60//5 125//5
f 154//5 125//5 124//5
f 154//5 124//5 123//5
f 154//5 123//5 122//5
f 154//5 122//5 97//5
f 154//5 97//5 96//5
f 154//5 96//5 95//5
f 154//5 95//5 94//5
f 154//5 94//5 93//5
f 154//5 93//5 92//5
f 154//5 92//5 139//5
f 154//5 139//5 138//5
f 154//5 138//5 137//5
f 154//5 137//5 136//5
f 154//5 136//5 65//5
f 154//5 65//5 64//5
f 154//5 64//5 63//5
f 154//5 63//5 62//5
f 154//5 62//5 61//5
f 154//5 61//5 60//5
