# Tessera door.leaf.1m2
mtllib door.leaf.1m2.mtl
o door.leaf.1m2
v 0.000000 0.000000 0.120000
v 0.000000 0.000000 1.030000
v 0.000000 0.000000 1.150000
v 0.000000 0.000000 2.060000
v 0.000000 0.000000 2.180000
v 0.000000 0.018000 2.180000
v 0.000000 0.042000 2.180000
v 0.000000 0.060000 2.180000
v 0.000000 0.060000 2.060000
v 0.000000 0.060000 1.150000
v 0.000000 0.060000 1.030000
v 0.000000 0.060000 0.120000
v 0.000000 0.060000 0.000000
v 0.000000 0.042000 0.000000
v 0.000000 0.018000 0.000000
v 0.000000 0.000000 0.000000
v 0.000000 0.030000 1.090000
v 0.100000 0.000000 0.120000
v 0.100000 0.018000 0.120000
v 0.100000 0.018000 1.030000
v 0.100000 0.000000 1.030000
v 0.100000 0.000000 1.150000
v 0.100000 0.018000 1.150000
v 0.100000 0.018000 2.060000
v 0.100000 0.000000 2.060000
v 0.100000 0.042000 0.120000
v 0.100000 0.060000 0.120000
v 0.100000 0.060000 1.030000
v 0.100000 0.042000 1.030000
v 0.100000 0.042000 1.150000
v 0.100000 0.060000 1.150000
v 0.100000 0.060000 2.060000
v 0.100000 0.042000 2.060000
v 1.060000 0.000000 1.030000
v 1.060000 0.018000 1.030000
v 1.060000 0.018000 0.120000
v 1.060000 0.000000 0.120000
v 1.060000 0.000000 2.060000
v 1.060000 0.018000 2.060000
v 1.060000 0.018000 1.150000
v 1.060000 0.000000 1.150000
v 1.060000 0.042000 1.030000
v 1.060000 0.060000 1.030000
v 1.060000 0.060000 0.120000
v 1.060000 0.042000 0.120000
v 1.060000 0.042000 2.060000
v 1.060000 0.060000 2.060000
v 1.060000 0.060000 1.150000
v 1.060000 0.042000 1.150000
v 1.160000 0.000000 0.000000
v 1.160000 0.018000 0.000000
v 1.160000 0.042000 0.000000
v 1.160000 0.060000 0.000000
v 1.160000 0.060000 0.120000
v 1.160000 0.060000 1.030000
v 1.160000 0.060000 1.150000
v 1.160000 0.060000 2.060000
v 1.160000 0.060000 2.180000
v 1.160000 0.042000 2.180000
v 1.160000 0.018000 2.180000
v 1.160000 0.000000 2.180000
v 1.160000 0.000000 2.060000
v 1.160000 0.000000 1.150000
v 1.160000 0.000000 1.030000
v 1.160000 0.000000 0.120000
v 1.160000 0.030000 1.090000
v 0.100000 0.000000 0.000000
v 1.060000 0.000000 0.000000
v 0.580000 0.000000 0.060000
v 0.100000 0.000000 2.180000
v 0.050000 0.000000 1.308000
v 1.060000 0.000000 2.180000
v 1.110000 0.000000 1.308000
v 1.060000 0.060000 0.000000
v 0.100000 0.060000 0.000000
v 0.580000 0.060000 0.060000
v 0.100000 0.060000 2.180000
v 0.050000 0.060000 1.308000
v 1.060000 0.060000 2.180000
v 1.110000 0.060000 1.308000
v 0.580000 0.030000 0.000000
v 0.580000 0.030000 2.180000
vn -1.000000 0.000000 0.000000
vn 1.000000 0.000000 0.000000
vn 0.000000 -1.000000 0.000000
vn 0.000000 1.000000 0.000000
vn 0.000000 0.000000 -1.000000
vn 0.000000 0.000000 1.000000
usemtl M_PaintedMetal
f 17//1 1//1 2//1
f 17//1 2//1 3//1
f 17//1 3//1 4//1
f 17//1 4//1 5//1
f 17//1 5//1 6//1
f 17//1 6//1 7//1
f 17//1 7//1 8//1
f 17//1 8//1 9//1
f 17//1 9//1 10//1
f 17//1 10//1 11//1
f 17//1 11//1 12//1
f 17//1 12//1 13//1
f 17//1 13//1 14//1
f 17//1 14//1 15//1
f 17//1 15//1 16//1
f 17//1 16//1 1//1
f 18//2 19//2 20//2
f 18//2 20//2 21//2
f 22//2 23//2 24//2
f 22//2 24//2 25//2
f 26//2 27//2 28//2
f 26//2 28//2 29//2
f 30//2 31//2 32//2
f 30//2 32//2 33//2
f 34//1 35//1 36//1
f 34//1 36//1 37//1
f 38//1 39//1 40//1
f 38//1 40//1 41//1
f 42//1 43//1 44//1
f 42//1 44//1 45//1
f 46//1 47//1 48//1
f 46//1 48//1 49//1
f 66//2 50//2 51//2
f 66//2 51//2 52//2
f 66//2 52//2 53//2
f 66//2 53//2 54//2
f 66//2 54//2 55//2
f 66//2 55//2 56//2
f 66//2 56//2 57//2
f 66//2 57//2 58//2
f 66//2 58//2 59//2
f 66//2 59//2 60//2
f 66//2 60//2 61//2
f 66//2 61//2 62//2
f 66//2 62//2 63//2
f 66//2 63//2 64//2
f 66//2 64//2 65//2
f 66//2 65//2 50//2
f 69//3 67//3 68//3
f 69//3 68//3 50//3
f 69//3 50//3 65//3
f 69//3 65//3 37//3
f 69//3 37//3 18//3
f 69//3 18//3 1//3
f 69//3 1//3 16//3
f 69//3 16//3 67//3
f 71//3 18//3 21//3
f 71//3 21//3 22//3
f 71//3 22//3 25//3
f 71//3 25//3 70//3
f 71//3 70//3 5//3
f 71//3 5//3 4//3
f 71//3 4//3 3//3
f 71//3 3//3 2//3
f 71//3 2//3 1//3
f 71//3 1//3 18//3
f 73//3 65//3 64//3
f 73//3 64//3 63//3
f 73//3 63//3 62//3
f 73//3 62//3 61//3
f 73//3 61//3 72//3
f 73//3 72//3 38//3
f 73//3 38//3 41//3
f 73//3 41//3 34//3
f 73//3 34//3 37//3
f 73//3 37//3 65//3
f 34//3 41//3 22//3
f 34//3 22//3 21//3
f 38//3 72//3 70//3
f 38//3 70//3 25//3
f 76//4 13//4 12//4
f 76//4 12//4 27//4
f 76//4 27//4 44//4
f 76//4 44//4 54//4
f 76//4 54//4 53//4
f 76//4 53//4 74//4
f 76//4 74//4 75//4
f 76//4 75//4 13//4
f 78//4 12//4 11//4
f 78//4 11//4 10//4
f 78//4 10//4 9//4
f 78//4 9//4 8//4
f 78//4 8//4 77//4
f 78//4 77//4 32//4
f 78//4 32//4 31//4
f 78//4 31//4 28//4
f 78//4 28//4 27//4
f 78//4 27//4 12//4
f 80//4 44//4 43//4
f 80//4 43//4 48//4
f 80//4 48//4 47//4
f 80//4 47//4 79//4
f 80//4 79//4 58//4
f 80//4 58//4 57//4
f 80//4 57//4 56//4
f 80//4 56//4 55//4
f 80//4 55//4 54//4
f 80//4 54//4 44//4
f 28//4 31//4 48//4
f 28//4 48//4 43//4
f 32//4 77//4 79//4
f 32//4 79//4 47//4
f 36//3 35//3 20//3
f 36//3 20//3 19//3
f 40//3 39//3 24//3
f 40//3 24//3 23//3
f 26//4 29//4 42//4
f 26//4 42//4 45//4
f 30//4 33//4 46//4
f 30//4 46//4 49//4
f 81//5 15//5 14//5
f 81//5 14//5 13//5
f 81//5 13//5 75//5
f 81//5 75//5 74//5
f 81//5 74//5 53//5
f 81//5 53//5 52//5
f 81//5 52//5 51//5
f 81//5 51//5 50//5
f 81//5 50//5 68//5
f 81//5 68//5 67//5
f 81//5 67//5 16//5
f 81//5 16//5 15//5
f 82//6 5//6 70//6
f 82//6 70//6 72//6
f 82//6 72//6 61//6
f 82//6 61//6 60//6
f 82//6 60//6 59//6
f 82//6 59//6 58//6
f 82//6 58//6 79//6
f 82//6 79//6 77//6
f 82//6 77//6 8//6
f 82//6 8//6 7//6
f 82//6 7//6 6//6
f 82//6 6//6 5//6
f 18//6 37//6 36//6
f 18//6 36//6 19//6
f 26//6 45//6 44//6
f 26//6 44//6 27//6
f 20//5 35//5 34//5
f 20//5 34//5 21//5
f 28//5 43//5 42//5
f 28//5 42//5 29//5
f 22//6 41//6 40//6
f 22//6 40//6 23//6
f 30//6 49//6 48//6
f 30//6 48//6 31//6
f 24//5 39//5 38//5
f 24//5 38//5 25//5
f 32//5 47//5 46//5
f 32//5 46//5 33//5
