# Tessera floor.opening.4m
mtllib floor.opening.4m.mtl
o floor.opening.4m
v 0.000000 0.000000 0.170000
v 0.000000 0.000000 0.200000
v 0.000000 1.400000 0.200000
v 0.000000 1.975000 0.200000
v 0.000000 1.975000 0.170000
v 0.000000 1.975000 0.000000
v 0.000000 1.400000 0.000000
v 0.000000 0.000000 0.000000
v 0.000000 1.090625 0.117500
v 0.000000 2.025000 0.170000
v 0.000000 4.000000 0.170000
v 0.000000 4.000000 0.000000
v 0.000000 2.025000 0.000000
v 0.000000 2.666667 0.085000
v 0.000000 2.025000 0.200000
v 0.000000 4.000000 0.200000
v 0.300000 1.400000 0.000000
v 0.300000 1.975000 0.000000
v 0.300000 1.975000 0.170000
v 0.300000 1.975000 0.200000
v 0.300000 1.400000 0.200000
v 0.300000 1.400000 0.170000
v 0.300000 1.687500 0.123333
v 0.300000 2.025000 0.000000
v 0.300000 4.000000 0.000000
v 0.300000 4.000000 0.170000
v 0.300000 2.025000 0.170000
v 0.300000 2.666667 0.085000
v 0.300000 4.000000 0.200000
v 0.300000 2.025000 0.200000
v 1.800000 1.400000 0.170000
v 1.800000 1.400000 0.200000
v 1.800000 1.975000 0.200000
v 1.800000 1.975000 0.170000
v 1.800000 1.975000 0.000000
v 1.800000 1.400000 0.000000
v 1.800000 1.687500 0.123333
v 1.800000 2.025000 0.170000
v 1.800000 4.000000 0.170000
v 1.800000 4.000000 0.000000
v 1.800000 2.025000 0.000000
v 1.800000 2.666667 0.085000
v 1.800000 2.025000 0.200000
v 1.800000 4.000000 0.200000
v 1.975000 0.000000 0.170000
v 1.975000 1.400000 0.170000
v 1.975000 1.975000 0.170000
v 1.975000 1.975000 0.200000
v 1.975000 1.400000 0.200000
v 1.975000 0.000000 0.200000
v 1.975000 1.125000 0.185000
v 1.975000 2.025000 0.170000
v 1.975000 4.000000 0.170000
v 1.975000 4.000000 0.200000
v 1.975000 2.025000 0.200000
v 2.025000 0.000000 0.200000
v 2.025000 1.400000 0.200000
v 2.025000 1.975000 0.200000
v 2.025000 1.975000 0.170000
v 2.025000 1.400000 0.170000
v 2.025000 0.000000 0.170000
v 2.025000 1.125000 0.185000
v 2.025000 2.025000 0.200000
v 2.025000 4.000000 0.200000
v 2.025000 4.000000 0.170000
v 2.025000 2.025000 0.170000
v 4.000000 0.000000 0.000000
v 4.000000 1.400000 0.000000
v 4.000000 1.975000 0.000000
v 4.000000 1.975000 0.170000
v 4.000000 1.975000 0.200000
v 4.000000 1.400000 0.200000
v 4.000000 0.000000 0.200000
v 4.000000 0.000000 0.170000
v 4.000000 1.090625 0.117500
v 4.000000 2.025000 0.000000
v 4.000000 4.000000 0.000000
v 4.000000 4.000000 0.170000
v 4.000000 2.025000 0.170000
v 4.000000 2.666667 0.085000
v 4.000000 4.000000 0.200000
v 4.000000 2.025000 0.200000
v 0.300000 0.000000 0.000000
v 1.800000 0.000000 0.000000
v 1.975000 0.000000 0.000000
v 2.025000 0.000000 0.000000
v 1.800000 0.000000 0.170000
v 0.300000 0.000000 0.170000
v 1.683333 0.000000 0.085000
v 1.800000 0.000000 0.200000
v 0.300000 0.000000 0.200000
v 1.018750 0.000000 0.185000
v 1.050000 1.400000 0.123333
v 0.150000 4.000000 0.123333
v 2.025000 4.000000 0.000000
v 1.975000 4.000000 0.000000
v 2.450000 4.000000 0.085000
v 0.150000 1.880000 0.000000
v 1.975000 1.400000 0.000000
v 2.025000 1.400000 0.000000
v 2.020000 0.700000 0.000000
v 2.600000 2.466667 0.000000
v 0.150000 1.125000 0.200000
v 1.358333 0.700000 0.200000
v 3.012500 1.125000 0.200000
v 2.450000 2.000000 0.170000
v 2.000000 1.125000 0.170000
vn -1.000000 0.000000 0.000000
vn 1.000000 0.000000 0.000000
vn 0.000000 -1.000000 0.000000
vn 0.000000 1.000000 0.000000
vn 0.000000 0.000000 -1.000000
vn 0.000000 0.000000 1.000000
usemtl M_Concrete
f 9//1 1//1 2//1
f 9//1 2//1 3//1
f 9//1 3//1 4//1
f 9//1 4//1 5//1
f 9//1 5//1 6//1
f 9//1 6//1 7//1
f 9//1 7//1 8//1
f 9//1 8//1 1//1
f 14//1 5//1 10//1
f 14//1 10//1 11//1
f 14//1 11//1 12//1
f 14//1 12//1 13//1
f 14//1 13//1 6//1
f 14//1 6//1 5//1
f 15//1 16//1 11//1
f 15//1 11//1 10//1
f 23//2 17//2 18//2
f 23//2 18//2 19//2
f 23//2 19//2 20//2
f 23//2 20//2 21//2
f 23//2 21//2 22//2
f 23//2 22//2 17//2
f 28//2 18//2 24//2
f 28//2 24//2 25//2
f 28//2 25//2 26//2
f 28//2 26//2 27//2
f 28//2 27//2 19//2
f 28//2 19//2 18//2
f 27//2 26//2 29//2
f 27//2 29//2 30//2
f 37//1 31//1 32//1
f 37//1 32//1 33//1
f 37//1 33//1 34//1
f 37//1 34//1 35//1
f 37//1 35//1 36//1
f 37//1 36//1 31//1
f 42//1 34//1 38//1
f 42//1 38//1 39//1
f 42//1 39//1 40//1
f 42//1 40//1 41//1
f 42//1 41//1 35//1
f 42//1 35//1 34//1
f 43//1 44//1 39//1
f 43//1 39//1 38//1
f 51//2 45//2 46//2
f 51//2 46//2 47//2
f 51//2 47//2 48//2
f 51//2 48//2 49//2
f 51//2 49//2 50//2
f 51//2 50//2 45//2
f 52//2 53//2 54//2
f 52//2 54//2 55//2
f 62//1 56//1 57//1
f 62//1 57//1 58//1
f 62//1 58//1 59//1
f 62//1 59//1 60//1
f 62//1 60//1 61//1
f 62//1 61//1 56//1
f 63//1 64//1 65//1
f 63//1 65//1 66//1
f 75//2 67//2 68//2
f 75//2 68//2 69//2
f 75//2 69//2 70//2
f 75//2 70//2 71//2
f 75//2 71//2 72//2
f 75//2 72//2 73//2
f 75//2 73//2 74//2
f 75//2 74//2 67//2
f 80//2 69//2 76//2
f 80//2 76//2 77//2
f 80//2 77//2 78//2
f 80//2 78//2 79//2
f 80//2 79//2 70//2
f 80//2 70//2 69//2
f 79//2 78//2 81//2
f 79//2 81//2 82//2
f 89//3 83//3 84//3
f 89//3 84//3 85//3
f 89//3 85//3 86//3
f 89//3 86//3 67//3
f 89//3 67//3 74//3
f 89//3 74//3 61//3
f 89//3 61//3 45//3
f 89//3 45//3 87//3
f 89//3 87//3 88//3
f 89//3 88//3 1//3
f 89//3 1//3 8//3
f 89//3 8//3 83//3
f 92//3 88//3 87//3
f 92//3 87//3 45//3
f 92//3 45//3 50//3
f 92//3 50//3 90//3
f 92//3 90//3 91//3
f 92//3 91//3 2//3
f 92//3 2//3 1//3
f 92//3 1//3 88//3
f 74//3 73//3 56//3
f 74//3 56//3 61//3
f 5//4 4//4 20//4
f 5//4 20//4 19//4
f 34//4 33//4 48//4
f 34//4 48//4 47//4
f 59//4 58//4 71//4
f 59//4 71//4 70//4
f 93//4 17//4 22//4
f 93//4 22//4 21//4
f 93//4 21//4 32//4
f 93//4 32//4 31//4
f 93//4 31//4 36//4
f 93//4 36//4 17//4
f 27//3 30//3 15//3
f 27//3 15//3 10//3
f 52//3 55//3 43//3
f 52//3 43//3 38//3
f 79//3 82//3 63//3
f 79//3 63//3 66//3
f 94//4 12//4 11//4
f 94//4 11//4 16//4
f 94//4 16//4 29//4
f 94//4 29//4 26//4
f 94//4 26//4 25//4
f 94//4 25//4 12//4
f 97//4 40//4 39//4
f 97//4 39//4 53//4
f 97//4 53//4 65//4
f 97//4 65//4 78//4
f 97//4 78//4 77//4
f 97//4 77//4 95//4
f 97//4 95//4 96//4
f 97//4 96//4 40//4
f 39//4 44//4 54//4
f 39//4 54//4 53//4
f 65//4 64//4 81//4
f 65//4 81//4 78//4
f 98//5 7//5 6//5
f 98//5 6//5 13//5
f 98//5 13//5 12//5
f 98//5 12//5 25//5
f 98//5 25//5 24//5
f 98//5 24//5 18//5
f 98//5 18//5 17//5
f 98//5 17//5 83//5
f 98//5 83//5 8//5
f 98//5 8//5 7//5
f 101//5 17//5 36//5
f 101//5 36//5 99//5
f 101//5 99//5 100//5
f 101//5 100//5 68//5
f 101//5 68//5 67//5
f 101//5 67//5 86//5
f 101//5 86//5 85//5
f 101//5 85//5 84//5
f 101//5 84//5 83//5
f 101//5 83//5 17//5
f 102//5 35//5 41//5
f 102//5 41//5 40//5
f 102//5 40//5 96//5
f 102//5 96//5 95//5
f 102//5 95//5 77//5
f 102//5 77//5 76//5
f 102//5 76//5 69//5
f 102//5 69//5 68//5
f 102//5 68//5 100//5
f 102//5 100//5 99//5
f 102//5 99//5 36//5
f 102//5 36//5 35//5
f 103//6 2//6 91//6
f 103//6 91//6 21//6
f 103//6 21//6 20//6
f 103//6 20//6 4//6
f 103//6 4//6 3//6
f 103//6 3//6 2//6
f 15//6 30//6 29//6
f 15//6 29//6 16//6
f 104//6 91//6 90//6
f 104//6 90//6 50//6
f 104//6 50//6 49//6
f 104//6 49//6 32//6
f 104//6 32//6 21//6
f 104//6 21//6 91//6
f 32//6 49//6 48//6
f 32//6 48//6 33//6
f 43//6 55//6 54//6
f 43//6 54//6 44//6
f 105//6 56//6 73//6
f 105//6 73//6 72//6
f 105//6 72//6 71//6
f 105//6 71//6 58//6
f 105//6 58//6 57//6
f 105//6 57//6 56//6
f 63//6 82//6 81//6
f 63//6 81//6 64//6
f 5//6 19//6 27//6
f 5//6 27//6 10//6
f 106//6 34//6 47//6
f 106//6 47//6 59//6
f 106//6 59//6 70//6
f 106//6 70//6 79//6
f 106//6 79//6 66//6
f 106//6 66//6 52//6
f 106//6 52//6 38//6
f 106//6 38//6 34//6
f 107//6 45//6 61//6
f 107//6 61//6 60//6
f 107//6 60//6 59//6
f 107//6 59//6 47//6
f 107//6 47//6 46//6
f 107//6 46//6 45//6
f 52//6 66//6 65//6
f 52//6 65//6 53//6
