# Tessera floor.slab.4m
mtllib floor.slab.4m.mtl
o floor.slab.4m
v 0.000000 0.000000 0.170000
v 0.000000 0.000000 0.200000
v 0.000000 1.975000 0.200000
v 0.000000 1.975000 0.170000
v 0.000000 1.975000 0.000000
v 0.000000 0.000000 0.000000
v 0.000000 0.987500 0.123333
v 0.000000 2.025000 0.170000
v 0.000000 4.000000 0.170000
v 0.000000 4.000000 0.000000
v 0.000000 2.025000 0.000000
v 0.000000 2.666667 0.085000
v 0.000000 2.025000 0.200000
v 0.000000 4.000000 0.200000
v 1.975000 0.000000 0.170000
v 1.975000 1.975000 0.170000
v 1.975000 1.975000 0.200000
v 1.975000 0.000000 0.200000
v 1.975000 2.025000 0.170000
v 1.975000 4.000000 0.170000
v 1.975000 4.000000 0.200000
v 1.975000 2.025000 0.200000
v 2.025000 0.000000 0.200000
v 2.025000 1.975000 0.200000
v 2.025000 1.975000 0.170000
v 2.025000 0.000000 0.170000
v 2.025000 2.025000 0.200000
v 2.025000 4.000000 0.200000
v 2.025000 4.000000 0.170000
v 2.025000 2.025000 0.170000
v 4.000000 0.000000 0.000000
v 4.000000 1.975000 0.000000
v 4.000000 1.975000 0.170000
v 4.000000 1.975000 0.200000
v 4.000000 0.000000 0.200000
v 4.000000 0.000000 0.170000
v 4.000000 0.987500 0.123333
v 4.000000 2.025000 0.000000
v 4.000000 4.000000 0.000000
v 4.000000 4.000000 0.170000
v 4.000000 2.025000 0.170000
v 4.000000 2.666667 0.085000
v 4.000000 4.000000 0.200000
v 4.000000 2.025000 0.200000
v 1.975000 0.000000 0.000000
v 2.025000 0.000000 0.000000
v 2.000000 0.000000 0.085000
v 2.025000 4.000000 0.000000
v 1.975000 4.000000 0.000000
v 2.000000 4.000000 0.085000
v 2.000000 2.000000 0.000000
v 2.000000 2.000000 0.170000
vn -1.000000 0.000000 0.000000
vn 1.000000 0.000000 0.000000
vn 0.000000 -1.000000 0.000000
vn 0.000000 1.000000 0.000000
vn 0.000000 0.000000 -1.000000
vn 0.000000 0.000000 1.000000
usemtl M_Concrete
f 7//1 1//1 2//1
f 7//1 2//1 3//1
f 7//1 3//1 4//1
f 7//1 4//1 5//1
f 7//1 5//1 6//1
f 7//1 6//1 1//1
f 12//1 4//1 8//1
f 12//1 8//1 9//1
f 12//1 9//1 10//1
f 12//1 10//1 11//1
f 12//1 11//1 5//1
f 12//1 5//1 4//1
f 13//1 14//1 9//1
f 13//1 9//1 8//1
f 15//2 16//2 17//2
f 15//2 17//2 18//2
f 19//2 20//2 21//2
f 19//2 21//2 22//2
f 23//1 24//1 25//1
f 23//1 25//1 26//1
f 27//1 28//1 29//1
f 27//1 29//1 30//1
f 37//2 31//2 32//2
f 37//2 32//2 33//2
f 37//2 33//2 34//2
f 37//2 34//2 35//2
f 37//2 35//2 36//2
f 37//2 36//2 31//2
f 42//2 32//2 38//2
f 42//2 38//2 39//2
f 42//2 39//2 40//2
f 42//2 40//2 41//2
f 42//2 41//2 33//2
f 42//2 33//2 32//2
f 41//2 40//2 43//2
f 41//2 43//2 44//2
f 47//3 45//3 46//3
f 47//3 46//3 31//3
f 47//3 31//3 36//3
f 47//3 36//3 26//3
f 47//3 26//3 15//3
f 47//3 15//3 1//3
f 47//3 1//3 6//3
f 47//3 6//3 45//3
f 15//3 18//3 2//3
f 15//3 2//3 1//3
f 36//3 35//3 23//3
f 36//3 23//3 26//3
f 4//4 3//4 17//4
f 4//4 17//4 16//4
f 25//4 24//4 34//4
f 25//4 34//4 33//4
f 19//3 22//3 13//3
f 19//3 13//3 8//3
f 41//3 44//3 27//3
f 41//3 27//3 30//3
f 50//4 10//4 9//4
f 50//4 9//4 20//4
f 50//4 20//4 29//4
f 50//4 29//4 40//4
f 50//4 40//4 39//4
f 50//4 39//4 48//4
f 50//4 48//4 49//4
f 50//4 49//4 10//4
f 9//4 14//4 21//4
f 9//4 21//4 20//4
f 29//4 28//4 43//4
f 29//4 43//4 40//4
f 51//5 5//5 11//5
f 51//5 11//5 10//5
f 51//5 10//5 49//5
f 51//5 49//5 48//5
f 51//5 48//5 39//5
f 51//5 39//5 38//5
f 51//5 38//5 32//5
f 51//5 32//5 31//5
f 51//5 31//5 46//5
f 51//5 46//5 45//5
f 51//5 45//5 6//5
f 51//5 6//5 5//5
f 2//6 18//6 17//6
f 2//6 17//6 3//6
f 13//6 22//6 21//6
f 13//6 21//6 14//6
f 23//6 35//6 34//6
f 23//6 34//6 24//6
f 27//6 44//6 43//6
f 27//6 43//6 28//6
f 52//6 4//6 16//6
f 52//6 16//6 25//6
f 52//6 25//6 33//6
f 52//6 33//6 41//6
f 52//6 41//6 30//6
f 52//6 30//6 19//6
f 52//6 19//6 8//6
f 52//6 8//6 4//6
f 15//6 26//6 25//6
f 15//6 25//6 16//6
f 19//6 30//6 29//6
f 19//6 29//6 20//6
