# Tessera foundation.pad.4m
mtllib foundation.pad.4m.mtl
o foundation.pad.4m
v 0.050000 0.050000 0.060000
v 0.050000 3.950000 0.060000
v 0.050000 3.950000 0.000000
v 0.050000 0.050000 0.000000
v 3.950000 0.050000 0.000000
v 3.950000 3.950000 0.000000
v 3.950000 3.950000 0.060000
v 3.950000 0.050000 0.060000
v 4.000000 0.000000 0.060000
v 4.000000 0.050000 0.060000
v 4.000000 3.950000 0.060000
v 4.000000 4.000000 0.060000
v 4.000000 4.000000 0.300000
v 4.000000 3.950000 0.300000
v 4.000000 0.050000 0.300000
v 4.000000 0.000000 0.300000
v 4.000000 2.000000 0.180000
v 0.000000 0.000000 0.300000
v 0.000000 0.050000 0.300000
v 0.000000 3.950000 0.300000
v 0.000000 4.000000 0.300000
v 0.000000 4.000000 0.060000
v 0.000000 3.950000 0.060000
v 0.000000 0.050000 0.060000
v 0.000000 0.000000 0.060000
v 0.000000 2.000000 0.180000
v 0.050000 4.000000 0.300000
v 3.950000 4.000000 0.300000
v 3.950000 4.000000 0.060000
v 0.050000 4.000000 0.060000
v 2.000000 4.000000 0.180000
v 0.050000 0.000000 0.060000
v 3.950000 0.000000 0.060000
v 3.950000 0.000000 0.300000
v 0.050000 0.000000 0.300000
v 2.000000 0.000000 0.180000
v 2.000000 2.000000 0.300000
v 0.025000 2.000000 0.060000
v 2.666667 0.025000 0.060000
v 2.666667 3.975000 0.060000
vn -1.000000 0.000000 0.000000
vn 1.000000 0.000000 0.000000
vn 0.000000 -1.000000 0.000000
vn 0.000000 1.000000 0.000000
vn 0.000000 0.000000 -1.000000
vn 0.000000 0.000000 1.000000
usemtl M_Concrete
f 1//1 2//1 3//1
f 1//1 3//1 4//1
f 5//2 6//2 7//2
f 5//2 7//2 8//2
f 17//2 9//2 10//2
f 17//2 10//2 11//2
f 17//2 11//2 12//2
f 17//2 12//2 13//2
f 17//2 13//2 14//2
f 17//2 14//2 15//2
f 17//2 15//2 16//2
f 17//2 16//2 9//2
f 26//1 18//1 19//1
f 26//1 19//1 20//1
f 26//1 20//1 21//1
f 26//1 21//1 22//1
f 26//1 22//1 23//1
f 26//1 23//1 24//1
f 26//1 24//1 25//1
f 26//1 25//1 18//1
f 5//3 8//3 1//3
f 5//3 1//3 4//3
f 3//4 2//4 7//4
f 3//4 7//4 6//4
f 31//4 22//4 21//4
f 31//4 21//4 27//4
f 31//4 27//4 28//4
f 31//4 28//4 13//4
f 31//4 13//4 12//4
f 31//4 12//4 29//4
f 31//4 29//4 30//4
f 31//4 30//4 22//4
f 36//3 32//3 33//3
f 36//3 33//3 9//3
f 36//3 9//3 16//3
f 36//3 16//3 34//3
f 36//3 34//3 35//3
f 36//3 35//3 18//3
f 36//3 18//3 25//3
f 36//3 25//3 32//3
f 3//5 6//5 5//5
f 3//5 5//5 4//5
f 37//6 18//6 35//6
f 37//6 35//6 34//6
f 37//6 34//6 16//6
f 37//6 16//6 15//6
f 37//6 15//6 14//6
f 37//6 14//6 13//6
f 37//6 13//6 28//6
f 37//6 28//6 27//6
f 37//6 27//6 21//6
f 37//6 21//6 20//6
f 37//6 20//6 19//6
f 37//6 19//6 18//6
f 38//5 24//5 23//5
f 38//5 23//5 22//5
f 38//5 22//5 30//5
f 38//5 30//5 2//5
f 38//5 2//5 1//5
f 38//5 1//5 32//5
f 38//5 32//5 25//5
f 38//5 25//5 24//5
f 39//5 1//5 8//5
f 39//5 8//5 10//5
f 39//5 10//5 9//5
f 39//5 9//5 33//5
f 39//5 33//5 32//5
f 39//5 32//5 1//5
f 40//5 30//5 29//5
f 40//5 29//5 12//5
f 40//5 12//5 11//5
f 40//5 11//5 7//5
f 40//5 7//5 2//5
f 40//5 2//5 30//5
f 7//5 11//5 10//5
f 7//5 10//5 8//5
