# Tessera prop.workbench
mtllib prop.workbench.mtl
o prop.workbench
v -0.900000 -0.350000 0.900000
v -0.900000 -0.295000 0.900000
v -0.900000 -0.205000 0.900000
v -0.900000 0.205000 0.900000
v -0.900000 0.295000 0.900000
v -0.900000 0.350000 0.900000
v -0.900000 0.350000 0.820000
v -0.900000 0.295000 0.820000
v -0.900000 0.205000 0.820000
v -0.900000 -0.205000 0.820000
v -0.900000 -0.295000 0.820000
v -0.900000 -0.350000 0.820000
v -0.900000 0.000000 0.860000
v 0.900000 -0.350000 0.820000
v 0.900000 -0.295000 0.820000
v 0.900000 -0.205000 0.820000
v 0.900000 0.205000 0.820000
v 0.900000 0.295000 0.820000
v 0.900000 0.350000 0.820000
v 0.900000 0.350000 0.900000
v 0.900000 0.295000 0.900000
v 0.900000 0.205000 0.900000
v 0.900000 -0.205000 0.900000
v 0.900000 -0.295000 0.900000
v 0.900000 -0.350000 0.900000
v 0.900000 0.000000 0.860000
v -0.845000 -0.295000 0.220000
v -0.845000 -0.295000 0.280000
v -0.845000 -0.295000 0.820000
v -0.845000 -0.205000 0.820000
v -0.845000 -0.205000 0.280000
v -0.845000 -0.205000 0.220000
v -0.845000 -0.205000 0.000000
v -0.845000 -0.295000 0.000000
v -0.845000 -0.250000 0.330000
v -0.845000 0.205000 0.220000
v -0.845000 0.205000 0.280000
v -0.845000 0.205000 0.820000
v -0.845000 0.295000 0.820000
v -0.845000 0.295000 0.280000
v -0.845000 0.295000 0.220000
v -0.845000 0.295000 0.000000
v -0.845000 0.205000 0.000000
v -0.845000 0.250000 0.330000
v -0.755000 -0.295000 0.000000
v -0.755000 -0.205000 0.000000
v -0.755000 -0.205000 0.220000
v -0.755000 -0.295000 0.220000
v -0.755000 -0.295000 0.280000
v -0.755000 -0.205000 0.280000
v -0.755000 -0.205000 0.820000
v -0.755000 -0.295000 0.820000
v -0.755000 0.205000 0.000000
v -0.755000 0.295000 0.000000
v -0.755000 0.295000 0.220000
v -0.755000 0.205000 0.220000
v -0.755000 0.205000 0.280000
v -0.755000 0.295000 0.280000
v -0.755000 0.295000 0.820000
v -0.755000 0.205000 0.820000
v 0.755000 -0.295000 0.220000
v 0.755000 -0.205000 0.220000
v 0.755000 -0.205000 0.000000
v 0.755000 -0.295000 0.000000
v 0.755000 -0.295000 0.820000
v 0.755000 -0.205000 0.820000
v 0.755000 -0.205000 0.280000
v 0.755000 -0.295000 0.280000
v 0.755000 0.205000 0.220000
v 0.755000 0.295000 0.220000
v 0.755000 0.295000 0.000000
v 0.755000 0.205000 0.000000
v 0.755000 0.205000 0.820000
v 0.755000 0.295000 0.820000
v 0.755000 0.295000 0.280000
v 0.755000 0.205000 0.280000
v 0.845000 -0.295000 0.000000
v 0.845000 -0.205000 0.000000
v 0.845000 -0.205000 0.220000
v 0.845000 -0.205000 0.280000
v 0.845000 -0.205000 0.820000
v 0.845000 -0.295000 0.820000
v 0.845000 -0.295000 0.280000
v 0.845000 -0.295000 0.220000
v 0.845000 -0.250000 0.330000
v 0.845000 0.205000 0.000000
v 0.845000 0.295000 0.000000
v 0.845000 0.295000 0.220000
v 0.845000 0.295000 0.280000
v 0.845000 0.295000 0.820000
v 0.845000 0.205000 0.820000
v 0.845000 0.205000 0.280000
v 0.845000 0.205000 0.220000
v 0.845000 0.250000 0.330000
v -0.845000 -0.350000 0.820000
v -0.755000 -0.350000 0.820000
v 0.755000 -0.350000 0.820000
v 0.845000 -0.350000 0.820000
v 0.845000 -0.350000 0.900000
v 0.755000 -0.350000 0.900000
v -0.755000 -0.350000 0.900000
v -0.845000 -0.350000 0.900000
v 0.000000 -0.350000 0.860000
v -0.845000 0.350000 0.900000
v -0.755000 0.350000 0.900000
v 0.755000 0.350000 0.900000
v 0.845000 0.350000 0.900000
v 0.845000 0.350000 0.820000
v 0.755000 0.350000 0.820000
v -0.755000 0.350000 0.820000
v -0.845000 0.350000 0.820000
v 0.000000 0.350000 0.860000
v -0.800000 -0.295000 0.330000
v 0.800000 -0.295000 0.330000
v -0.800000 -0.205000 0.330000
v 0.800000 -0.205000 0.330000
v -0.800000 0.205000 0.330000
v 0.800000 0.205000 0.330000
v -0.800000 0.295000 0.330000
v 0.800000 0.295000 0.330000
v -0.872500 0.000000 0.820000
v 0.180000 -0.322500 0.820000
v 0.180000 0.000000 0.820000
v 0.180000 0.322500 0.820000
v 0.000000 0.000000 0.900000
vn -1.000000 0.000000 0.000000
vn 1.000000 0.000000 0.000000
vn 0.000000 -1.000000 0.000000
vn 0.000000 1.000000 0.000000
vn 0.000000 0.000000 -1.000000
vn 0.000000 0.000000 1.000000
usemtl M_Wood
f 13//1 1//1 2//1
f 13//1 2//1 3//1
f 13//1 3//1 4//1
f 13//1 4//1 5//1
f 13//1 5//1 6//1
f 13//1 6//1 7//1
f 13//1 7//1 8//1
f 13//1 8//1 9//1
f 13//1 9//1 10//1
f 13//1 10//1 11//1
f 13//1 11//1 12//1
f 13//1 12//1 1//1
f 26//2 14//2 15//2
f 26//2 15//2 16//2
f 26//2 16//2 17//2
f 26//2 17//2 18//2
f 26//2 18//2 19//2
f 26//2 19//2 20//2
f 26//2 20//2 21//2
f 26//2 21//2 22//2
f 26//2 22//2 23//2
f 26//2 23//2 24//2
f 26//2 24//2 25//2
f 26//2 25//2 14//2
f 35//1 27//1 28//1
f 35//1 28//1 29//1
f 35//1 29//1 30//1
f 35//1 30//1 31//1
f 35//1 31//1 32//1
f 35//1 32//1 33//1
f 35//1 33//1 34//1
f 35//1 34//1 27//1
f 44//1 36//1 37//1
f 44//1 37//1 38//1
f 44//1 38//1 39//1
f 44//1 39//1 40//1
f 44//1 40//1 41//1
f 44//1 41//1 42//1
f 44//1 42//1 43//1
f 44//1 43//1 36//1
f 45//2 46//2 47//2
f 45//2 47//2 48//2
f 49//2 50//2 51//2
f 49//2 51//2 52//2
f 53//2 54//2 55//2
f 53//2 55//2 56//2
f 57//2 58//2 59//2
f 57//2 59//2 60//2
f 61//1 62//1 63//1
f 61//1 63//1 64//1
f 65//1 66//1 67//1
f 65//1 67//1 68//1
f 69//1 70//1 71//1
f 69//1 71//1 72//1
f 73//1 74//1 75//1
f 73//1 75//1 76//1
f 85//2 77//2 78//2
f 85//2 78//2 79//2
f 85//2 79//2 80//2
f 85//2 80//2 81//2
f 85//2 81//2 82//2
f 85//2 82//2 83//2
f 85//2 83//2 84//2
f 85//2 84//2 77//2
f 94//2 86//2 87//2
f 94//2 87//2 88//2
f 94//2 88//2 89//2
f 94//2 89//2 90//2
f 94//2 90//2 91//2
f 94//2 91//2 92//2
f 94//2 92//2 93//2
f 94//2 93//2 86//2
f 103//3 95//3 96//3
f 103//3 96//3 97//3
f 103//3 97//3 98//3
f 103//3 98//3 14//3
f 103//3 14//3 25//3
f 103//3 25//3 99//3
f 103//3 99//3 100//3
f 103//3 100//3 101//3
f 103//3 101//3 102//3
f 103//3 102//3 1//3
f 103//3 1//3 12//3
f 103//3 12//3 95//3
f 112//4 7//4 6//4
f 112//4 6//4 104//4
f 112//4 104//4 105//4
f 112//4 105//4 106//4
f 112//4 106//4 107//4
f 112//4 107//4 20//4
f 112//4 20//4 19//4
f 112//4 19//4 108//4
f 112//4 108//4 109//4
f 112//4 109//4 110//4
f 112//4 110//4 111//4
f 112//4 111//4 7//4
f 113//3 45//3 48//3
f 113//3 48//3 49//3
f 113//3 49//3 52//3
f 113//3 52//3 29//3
f 113//3 29//3 28//3
f 113//3 28//3 27//3
f 113//3 27//3 34//3
f 113//3 34//3 45//3
f 114//3 77//3 84//3
f 114//3 84//3 83//3
f 114//3 83//3 82//3
f 114//3 82//3 65//3
f 114//3 65//3 68//3
f 114//3 68//3 61//3
f 114//3 61//3 64//3
f 114//3 64//3 77//3
f 61//3 68//3 49//3
f 61//3 49//3 48//3
f 115//4 33//4 32//4
f 115//4 32//4 31//4
f 115//4 31//4 30//4
f 115//4 30//4 51//4
f 115//4 51//4 50//4
f 115//4 50//4 47//4
f 115//4 47//4 46//4
f 115//4 46//4 33//4
f 116//4 63//4 62//4
f 116//4 62//4 67//4
f 116//4 67//4 66//4
f 116//4 66//4 81//4
f 116//4 81//4 80//4
f 116//4 80//4 79//4
f 116//4 79//4 78//4
f 116//4 78//4 63//4
f 47//4 50//4 67//4
f 47//4 67//4 62//4
f 117//3 53//3 56//3
f 117//3 56//3 57//3
f 117//3 57//3 60//3
f 117//3 60//3 38//3
f 117//3 38//3 37//3
f 117//3 37//3 36//3
f 117//3 36//3 43//3
f 117//3 43//3 53//3
f 118//3 86//3 93//3
f 118//3 93//3 92//3
f 118//3 92//3 91//3
f 118//3 91//3 73//3
f 118//3 73//3 76//3
f 118//3 76//3 69//3
f 118//3 69//3 72//3
f 118//3 72//3 86//3
f 69//3 76//3 57//3
f 69//3 57//3 56//3
f 119//4 42//4 41//4
f 119//4 41//4 40//4
f 119//4 40//4 39//4
f 119//4 39//4 59//4
f 119//4 59//4 58//4
f 119//4 58//4 55//4
f 119//4 55//4 54//4
f 119//4 54//4 42//4
f 120//4 71//4 70//4
f 120//4 70//4 75//4
f 120//4 75//4 74//4
f 120//4 74//4 90//4
f 120//4 90//4 89//4
f 120//4 89//4 88//4
f 120//4 88//4 87//4
f 120//4 87//4 71//4
f 55//4 58//4 75//4
f 55//4 75//4 70//4
f 121//5 11//5 10//5
f 121//5 10//5 9//5
f 121//5 9//5 8//5
f 121//5 8//5 7//5
f 121//5 7//5 111//5
f 121//5 111//5 39//5
f 121//5 39//5 38//5
f 121//5 38//5 30//5
f 121//5 30//5 29//5
f 121//5 29//5 95//5
f 121//5 95//5 12//5
f 121//5 12//5 11//5
f 122//5 29//5 52//5
f 122//5 52//5 65//5
f 122//5 65//5 82//5
f 122//5 82//5 15//5
f 122//5 15//5 14//5
f 122//5 14//5 98//5
f 122//5 98//5 97//5
f 122//5 97//5 96//5
f 122//5 96//5 95//5
f 122//5 95//5 29//5
f 123//5 38//5 60//5
f 123//5 60//5 73//5
f 123//5 73//5 91//5
f 123//5 91//5 17//5
f 123//5 17//5 16//5
f 123//5 16//5 81//5
f 123//5 81//5 66//5
f 123//5 66//5 51//5
f 123//5 51//5 30//5
f 123//5 30//5 38//5
f 124//5 111//5 110//5
f 124//5 110//5 109//5
f 124//5 109//5 108//5
f 124//5 108//5 19//5
f 124//5 19//5 18//5
f 124//5 18//5 90//5
f 124//5 90//5 74//5
f 124//5 74//5 59//5
f 124//5 59//5 39//5
f 124//5 39//5 111//5
f 51//5 66//5 65//5
f 51//5 65//5 52//5
f 59//5 74//5 73//5
f 59//5 73//5 60//5
f 81//5 16//5 15//5
f 81//5 15//5 82//5
f 90//5 18//5 17//5
f 90//5 17//5 91//5
f 125//6 1//6 102//6
f 125//6 102//6 101//6
f 125//6 101//6 100//6
f 125//6 100//6 99//6
f 125//6 99//6 25//6
f 125//6 25//6 24//6
f 125//6 24//6 23//6
f 125//6 23//6 22//6
f 125//6 22//6 21//6
f 125//6 21//6 20//6
f 125//6 20//6 107//6
f 125//6 107//6 106//6
f 125//6 106//6 105//6
f 125//6 105//6 104//6
f 125//6 104//6 6//6
f 125//6 6//6 5//6
f 125//6 5//6 4//6
f 125//6 4//6 3//6
f 125//6 3//6 2//6
f 125//6 2//6 1//6
f 33//5 46//5 45//5
f 33//5 45//5 34//5
f 42//5 54//5 53//5
f 42//5 53//5 43//5
f 63//5 78//5 77//5
f 63//5 77//5 64//5
f 71//5 87//5 86//5
f 71//5 86//5 72//5
f 47//5 62//5 61//5
f 47//5 61//5 48//5
f 55//5 70//5 69//5
f 55//5 69//5 56//5
f 49//6 68//6 67//6
f 49//6 67//6 50//6
f 57//6 76//6 75//6
f 57//6 75//6 58//6
