# Tessera prop.crate.small
mtllib prop.crate.small.mtl
o prop.crate.small
v -0.299000 -0.230000 0.530000
v -0.299000 0.230000 0.530000
v -0.299000 0.230000 0.070000
v -0.299000 -0.230000 0.070000
v -0.230000 -0.300000 0.070000
v -0.230000 -0.299000 0.070000
v -0.230000 -0.299000 0.530000
v -0.230000 -0.300000 0.530000
v -0.230000 -0.230000 0.578000
v -0.230000 0.230000 0.578000
v -0.230000 0.230000 0.600000
v -0.230000 -0.230000 0.600000
v -0.230000 0.278000 0.070000
v -0.230000 0.300000 0.070000
v -0.230000 0.300000 0.530000
v -0.230000 0.278000 0.530000
v 0.230000 -0.300000 0.530000
v 0.230000 -0.299000 0.530000
v 0.230000 -0.299000 0.070000
v 0.230000 -0.300000 0.070000
v 0.230000 -0.230000 0.600000
v 0.230000 0.230000 0.600000
v 0.230000 0.230000 0.578000
v 0.230000 -0.230000 0.578000
v 0.230000 0.278000 0.530000
v 0.230000 0.300000 0.530000
v 0.230000 0.300000 0.070000
v 0.230000 0.278000 0.070000
v 0.278000 -0.230000 0.070000
v 0.278000 0.230000 0.070000
v 0.278000 0.230000 0.530000
v 0.278000 -0.230000 0.530000
v 0.300000 -0.300000 0.000000
v 0.300000 -0.299000 0.000000
v 0.300000 -0.230000 0.000000
v 0.300000 -0.230000 0.070000
v 0.300000 -0.230000 0.530000
v 0.300000 -0.230000 0.578000
v 0.300000 -0.230000 0.600000
v 0.300000 -0.299000 0.600000
v 0.300000 -0.300000 0.600000
v 0.300000 -0.300000 0.578000
v 0.300000 -0.300000 0.530000
v 0.300000 -0.300000 0.070000
v 0.300000 -0.270667 0.346333
v 0.300000 0.230000 0.000000
v 0.300000 0.278000 0.000000
v 0.300000 0.300000 0.000000
v 0.300000 0.300000 0.070000
v 0.300000 0.278000 0.070000
v 0.300000 0.230000 0.070000
v 0.300000 0.144500 0.035000
v 0.300000 0.230000 0.530000
v 0.300000 0.278000 0.530000
v 0.300000 0.300000 0.530000
v 0.300000 0.300000 0.578000
v 0.300000 0.300000 0.600000
v 0.300000 0.278000 0.600000
v 0.300000 0.230000 0.600000
v 0.300000 0.122600 0.567600
v 0.300000 0.269333 0.300000
v -0.300000 -0.300000 0.070000
v -0.300000 -0.300000 0.530000
v -0.300000 -0.300000 0.578000
v -0.300000 -0.300000 0.600000
v -0.300000 -0.299000 0.600000
v -0.300000 -0.230000 0.600000
v -0.300000 -0.230000 0.578000
v -0.300000 -0.230000 0.530000
v -0.300000 -0.230000 0.070000
v -0.300000 -0.230000 0.000000
v -0.300000 -0.299000 0.000000
v -0.300000 -0.300000 0.000000
v -0.300000 -0.270667 0.346333
v -0.300000 0.230000 0.070000
v -0.300000 0.278000 0.070000
v -0.300000 0.300000 0.070000
v -0.300000 0.300000 0.000000
v -0.300000 0.278000 0.000000
v -0.300000 0.230000 0.000000
v -0.300000 0.144500 0.035000
v -0.300000 0.230000 0.600000
v -0.300000 0.278000 0.600000
v -0.300000 0.300000 0.600000
v -0.300000 0.300000 0.578000
v -0.300000 0.300000 0.530000
v -0.300000 0.278000 0.530000
v -0.300000 0.230000 0.530000
v -0.300000 0.122600 0.567600
v -0.300000 0.269333 0.300000
v -0.299000 -0.300000 0.000000
v -0.230000 -0.300000 0.000000
v 0.230000 -0.300000 0.000000
v 0.278000 -0.300000 0.000000
v 0.278000 -0.300000 0.070000
v -0.299000 -0.300000 0.070000
v -0.003500 -0.300000 0.035000
v -0.230000 -0.300000 0.578000
v -0.230000 -0.300000 0.600000
v -0.299000 -0.300000 0.600000
v -0.271800 -0.300000 0.422600
v 0.278000 -0.300000 0.600000
v 0.230000 -0.300000 0.600000
v 0.230000 -0.300000 0.578000
v 0.267600 -0.300000 0.422600
v 0.000000 -0.300000 0.569333
v -0.299000 0.300000 0.070000
v 0.278000 0.300000 0.070000
v 0.278000 0.300000 0.000000
v 0.230000 0.300000 0.000000
v -0.230000 0.300000 0.000000
v -0.299000 0.300000 0.000000
v -0.003500 0.300000 0.035000
v -0.299000 0.300000 0.600000
v -0.230000 0.300000 0.600000
v -0.230000 0.300000 0.578000
v -0.271800 0.300000 0.422600
v 0.230000 0.300000 0.578000
v 0.230000 0.300000 0.600000
v 0.278000 0.300000 0.600000
v 0.267600 0.300000 0.422600
v 0.000000 0.300000 0.569333
v -0.002100 -0.002100 0.000000
v -0.230000 -0.299000 0.600000
v -0.230000 0.278000 0.600000
v -0.269857 -0.003000 0.600000
v 0.278000 -0.230000 0.600000
v 0.122600 -0.271800 0.600000
v 0.278000 0.230000 0.600000
v 0.122600 0.267600 0.600000
v 0.269333 0.000000 0.600000
vn -1.000000 0.000000 0.000000
vn 1.000000 0.000000 0.000000
vn 0.000000 -1.000000 0.000000
vn 0.000000 1.000000 0.000000
vn 0.000000 0.000000 -1.000000
vn 0.000000 0.000000 1.000000
usemtl M_Wood
f 1//1 2//1 3//1
f 1//1 3//1 4//1
f 5//2 6//2 7//2
f 5//2 7//2 8//2
f 9//2 10//2 11//2
f 9//2 11//2 12//2
f 13//2 14//2 15//2
f 13//2 15//2 16//2
f 17//1 18//1 19//1
f 17//1 19//1 20//1
f 21//1 22//1 23//1
f 21//1 23//1 24//1
f 25//1 26//1 27//1
f 25//1 27//1 28//1
f 29//2 30//2 31//2
f 29//2 31//2 32//2
f 45//2 33//2 34//2
f 45//2 34//2 35//2
f 45//2 35//2 36//2
f 45//2 36//2 37//2
f 45//2 37//2 38//2
f 45//2 38//2 39//2
f 45//2 39//2 40//2
f 45//2 40//2 41//2
f 45//2 41//2 42//2
f 45//2 42//2 43//2
f 45//2 43//2 44//2
f 45//2 44//2 33//2
f 52//2 35//2 46//2
f 52//2 46//2 47//2
f 52//2 47//2 48//2
f 52//2 48//2 49//2
f 52//2 49//2 50//2
f 52//2 50//2 51//2
f 52//2 51//2 36//2
f 52//2 36//2 35//2
f 60//2 37//2 53//2
f 60//2 53//2 54//2
f 60//2 54//2 55//2
f 60//2 55//2 56//2
f 60//2 56//2 57//2
f 60//2 57//2 58//2
f 60//2 58//2 59//2
f 60//2 59//2 39//2
f 60//2 39//2 38//2
f 60//2 38//2 37//2
f 61//2 51//2 50//2
f 61//2 50//2 49//2
f 61//2 49//2 55//2
f 61//2 55//2 54//2
f 61//2 54//2 53//2
f 61//2 53//2 51//2
f 74//1 62//1 63//1
f 74//1 63//1 64//1
f 74//1 64//1 65//1
f 74//1 65//1 66//1
f 74//1 66//1 67//1
f 74//1 67//1 68//1
f 74//1 68//1 69//1
f 74//1 69//1 70//1
f 74//1 70//1 71//1
f 74//1 71//1 72//1
f 74//1 72//1 73//1
f 74//1 73//1 62//1
f 81//1 70//1 75//1
f 81//1 75//1 76//1
f 81//1 76//1 77//1
f 81//1 77//1 78//1
f 81//1 78//1 79//1
f 81//1 79//1 80//1
f 81//1 80//1 71//1
f 81//1 71//1 70//1
f 89//1 68//1 67//1
f 89//1 67//1 82//1
f 89//1 82//1 83//1
f 89//1 83//1 84//1
f 89//1 84//1 85//1
f 89//1 85//1 86//1
f 89//1 86//1 87//1
f 89//1 87//1 88//1
f 89//1 88//1 69//1
f 89//1 69//1 68//1
f 90//1 88//1 87//1
f 90//1 87//1 86//1
f 90//1 86//1 77//1
f 90//1 77//1 76//1
f 90//1 76//1 75//1
f 90//1 75//1 88//1
f 97//3 91//3 92//3
f 97//3 92//3 93//3
f 97//3 93//3 94//3
f 97//3 94//3 33//3
f 97//3 33//3 44//3
f 97//3 44//3 95//3
f 97//3 95//3 20//3
f 97//3 20//3 5//3
f 97//3 5//3 96//3
f 97//3 96//3 62//3
f 97//3 62//3 73//3
f 97//3 73//3 91//3
f 101//3 96//3 5//3
f 101//3 5//3 8//3
f 101//3 8//3 98//3
f 101//3 98//3 99//3
f 101//3 99//3 100//3
f 101//3 100//3 65//3
f 101//3 65//3 64//3
f 101//3 64//3 63//3
f 101//3 63//3 62//3
f 101//3 62//3 96//3
f 105//3 95//3 44//3
f 105//3 44//3 43//3
f 105//3 43//3 42//3
f 105//3 42//3 41//3
f 105//3 41//3 102//3
f 105//3 102//3 103//3
f 105//3 103//3 104//3
f 105//3 104//3 17//3
f 105//3 17//3 20//3
f 105//3 20//3 95//3
f 106//3 17//3 104//3
f 106//3 104//3 103//3
f 106//3 103//3 99//3
f 106//3 99//3 98//3
f 106//3 98//3 8//3
f 106//3 8//3 17//3
f 113//4 78//4 77//4
f 113//4 77//4 107//4
f 113//4 107//4 14//4
f 113//4 14//4 27//4
f 113//4 27//4 108//4
f 113//4 108//4 49//4
f 113//4 49//4 48//4
f 113//4 48//4 109//4
f 113//4 109//4 110//4
f 113//4 110//4 111//4
f 113//4 111//4 112//4
f 113//4 112//4 78//4
f 117//4 77//4 86//4
f 117//4 86//4 85//4
f 117//4 85//4 84//4
f 117//4 84//4 114//4
f 117//4 114//4 115//4
f 117//4 115//4 116//4
f 117//4 116//4 15//4
f 117//4 15//4 14//4
f 117//4 14//4 107//4
f 117//4 107//4 77//4
f 121//4 27//4 26//4
f 121//4 26//4 118//4
f 121//4 118//4 119//4
f 121//4 119//4 120//4
f 121//4 120//4 57//4
f 121//4 57//4 56//4
f 121//4 56//4 55//4
f 121//4 55//4 49//4
f 121//4 49//4 108//4
f 121//4 108//4 27//4
f 122//4 15//4 116//4
f 122//4 116//4 115//4
f 122//4 115//4 119//4
f 122//4 119//4 118//4
f 122//4 118//4 26//4
f 122//4 26//4 15//4
f 19//3 18//3 7//3
f 19//3 7//3 6//3
f 70//4 69//4 1//4
f 70//4 1//4 4//4
f 29//4 32//4 37//4
f 29//4 37//4 36//4
f 9//4 12//4 21//4
f 9//4 21//4 24//4
f 3//3 2//3 88//3
f 3//3 88//3 75//3
f 51//3 53//3 31//3
f 51//3 31//3 30//3
f 23//3 22//3 11//3
f 23//3 11//3 10//3
f 13//4 16//4 25//4
f 13//4 25//4 28//4
f 123//5 72//5 71//5
f 123//5 71//5 80//5
f 123//5 80//5 79//5
f 123//5 79//5 78//5
f 123//5 78//5 112//5
f 123//5 112//5 111//5
f 123//5 111//5 110//5
f 123//5 110//5 109//5
f 123//5 109//5 48//5
f 123//5 48//5 47//5
f 123//5 47//5 46//5
f 123//5 46//5 35//5
f 123//5 35//5 34//5
f 123//5 34//5 33//5
f 123//5 33//5 94//5
f 123//5 94//5 93//5
f 123//5 93//5 92//5
f 123//5 92//5 91//5
f 123//5 91//5 73//5
f 123//5 73//5 72//5
f 126//6 65//6 100//6
f 126//6 100//6 99//6
f 126//6 99//6 124//6
f 126//6 124//6 12//6
f 126//6 12//6 11//6
f 126//6 11//6 125//6
f 126//6 125//6 115//6
f 126//6 115//6 114//6
f 126//6 114//6 84//6
f 126//6 84//6 83//6
f 126//6 83//6 82//6
f 126//6 82//6 67//6
f 126//6 67//6 66//6
f 126//6 66//6 65//6
f 128//6 99//6 103//6
f 128//6 103//6 102//6
f 128//6 102//6 41//6
f 128//6 41//6 40//6
f 128//6 40//6 39//6
f 128//6 39//6 127//6
f 128//6 127//6 21//6
f 128//6 21//6 12//6
f 128//6 12//6 124//6
f 128//6 124//6 99//6
f 130//6 11//6 22//6
f 130//6 22//6 129//6
f 130//6 129//6 59//6
f 130//6 59//6 58//6
f 130//6 58//6 57//6
f 130//6 57//6 120//6
f 130//6 120//6 119//6
f 130//6 119//6 115//6
f 130//6 115//6 125//6
f 130//6 125//6 11//6
f 131//6 21//6 127//6
f 131//6 127//6 39//6
f 131//6 39//6 59//6
f 131//6 59//6 129//6
f 131//6 129//6 22//6
f 131//6 22//6 21//6
f 9//6 24//6 23//6
f 9//6 23//6 10//6
f 70//6 4//6 3//6
f 70//6 3//6 75//6
f 5//6 20//6 19//6
f 5//6 19//6 6//6
f 13//6 28//6 27//6
f 13//6 27//6 14//6
f 29//6 36//6 51//6
f 29//6 51//6 30//6
f 88//5 2//5 1//5
f 88//5 1//5 69//5
f 7//5 18//5 17//5
f 7//5 17//5 8//5
f 15//5 26//5 25//5
f 15//5 25//5 16//5
f 31//5 53//5 37//5
f 31//5 37//5 32//5
