# Tessera railing.4m
mtllib railing.4m.mtl
o railing.4m
v 0.000000 0.000000 0.495000
v 0.000000 0.000000 0.535000
v 0.000000 0.000000 1.050000
v 0.000000 0.000000 1.100000
v 0.000000 0.040000 1.100000
v 0.000000 0.050000 1.100000
v 0.000000 0.070000 1.100000
v 0.000000 0.070000 1.050000
v 0.000000 0.070000 0.535000
v 0.000000 0.070000 0.495000
v 0.000000 0.070000 0.000000
v 0.000000 0.050000 0.000000
v 0.000000 0.040000 0.000000
v 0.000000 0.000000 0.000000
v 0.000000 0.037857 0.611429
v 0.070000 0.000000 0.000000
v 0.070000 0.040000 0.000000
v 0.070000 0.050000 0.000000
v 0.070000 0.070000 0.000000
v 0.070000 0.070000 0.495000
v 0.070000 0.050000 0.495000
v 0.070000 0.040000 0.495000
v 0.070000 0.000000 0.495000
v 0.070000 0.040000 0.247500
v 0.070000 0.000000 0.535000
v 0.070000 0.040000 0.535000
v 0.070000 0.050000 0.535000
v 0.070000 0.070000 0.535000
v 0.070000 0.070000 1.050000
v 0.070000 0.050000 1.050000
v 0.070000 0.040000 1.050000
v 0.070000 0.000000 1.050000
v 0.070000 0.040000 0.792500
v 0.070000 0.053333 0.515000
v 0.070000 0.070000 1.100000
v 0.070000 0.050000 1.100000
v 0.982500 0.000000 0.495000
v 0.982500 0.040000 0.495000
v 0.982500 0.050000 0.495000
v 0.982500 0.070000 0.495000
v 0.982500 0.070000 0.000000
v 0.982500 0.050000 0.000000
v 0.982500 0.040000 0.000000
v 0.982500 0.000000 0.000000
v 0.982500 0.040000 0.247500
v 0.982500 0.000000 1.050000
v 0.982500 0.040000 1.050000
v 0.982500 0.050000 1.050000
v 0.982500 0.070000 1.050000
v 0.982500 0.070000 0.535000
v 0.982500 0.050000 0.535000
v 0.982500 0.040000 0.535000
v 0.982500 0.000000 0.535000
v 0.982500 0.040000 0.792500
v 0.982500 0.053333 0.515000
v 0.982500 0.050000 1.100000
v 0.982500 0.070000 1.100000
v 1.052500 0.000000 0.000000
v 1.052500 0.040000 0.000000
v 1.052500 0.050000 0.000000
v 1.052500 0.070000 0.000000
v 1.052500 0.070000 0.495000
v 1.052500 0.050000 0.495000
v 1.052500 0.040000 0.495000
v 1.052500 0.000000 0.495000
v 1.052500 0.040000 0.247500
v 1.052500 0.000000 0.535000
v 1.052500 0.040000 0.535000
v 1.052500 0.050000 0.535000
v 1.052500 0.070000 0.535000
v 1.052500 0.070000 1.050000
v 1.052500 0.050000 1.050000
v 1.052500 0.040000 1.050000
v 1.052500 0.000000 1.050000
v 1.052500 0.040000 0.792500
v 1.052500 0.053333 0.515000
v 1.052500 0.070000 1.100000
v 1.052500 0.050000 1.100000
v 1.965000 0.000000 0.495000
v 1.965000 0.040000 0.495000
v 1.965000 0.050000 0.495000
v 1.965000 0.070000 0.495000
v 1.965000 0.070000 0.000000
v 1.965000 0.050000 0.000000
v 1.965000 0.040000 0.000000
v 1.965000 0.000000 0.000000
v 1.965000 0.040000 0.247500
v 1.965000 0.000000 1.050000
v 1.965000 0.040000 1.050000
v 1.965000 0.050000 1.050000
v 1.965000 0.070000 1.050000
v 1.965000 0.070000 0.535000
v 1.965000 0.050000 0.535000
v 1.965000 0.040000 0.535000
v 1.965000 0.000000 0.535000
v 1.965000 0.040000 0.792500
v 1.965000 0.053333 0.515000
v 1.965000 0.050000 1.100000
v 1.965000 0.070000 1.100000
v 2.035000 0.000000 0.000000
v 2.035000 0.040000 0.000000
v 2.035000 0.050000 0.000000
v 2.035000 0.070000 0.000000
v 2.035000 0.070000 0.495000
v 2.035000 0.050000 0.495000
v 2.035000 0.040000 0.495000
v 2.035000 0.000000 0.495000
v 2.035000 0.040000 0.247500
v 2.035000 0.000000 0.535000
v 2.035000 0.040000 0.535000
v 2.035000 0.050000 0.535000
v 2.035000 0.070000 0.535000
v 2.035000 0.070000 1.050000
v 2.035000 0.050000 1.050000
v 2.035000 0.040000 1.050000
v 2.035000 0.000000 1.050000
v 2.035000 0.040000 0.792500
v 2.035000 0.053333 0.515000
v 2.035000 0.070000 1.100000
v 2.035000 0.050000 1.100000
v 2.947500 0.000000 0.495000
v 2.947500 0.040000 0.495000
v 2.947500 0.050000 0.495000
v 2.947500 0.070000 0.495000
v 2.947500 0.070000 0.000000
v 2.947500 0.050000 0.000000
v 2.947500 0.040000 0.000000
v 2.947500 0.000000 0.000000
v 2.947500 0.040000 0.247500
v 2.947500 0.000000 1.050000
v 2.947500 0.040000 1.050000
v 2.947500 0.050000 1.050000
v 2.947500 0.070000 1.050000
v 2.947500 0.070000 0.535000
v 2.947500 0.050000 0.535000
v 2.947500 0.040000 0.535000
v 2.947500 0.000000 0.535000
v 2.947500 0.040000 0.792500
v 2.947500 0.053333 0.515000
v 2.947500 0.050000 1.100000
v 2.947500 0.070000 1.100000
v 3.017500 0.000000 0.000000
v 3.017500 0.040000 0.000000
v 3.017500 0.050000 0.000000
v 3.017500 0.070000 0.000000
v 3.017500 0.070000 0.495000
v 3.017500 0.050000 0.495000
v 3.017500 0.040000 0.495000
v 3.017500 0.000000 0.495000
v 3.017500 0.040000 0.247500
v 3.017500 0.000000 0.535000
v 3.017500 0.040000 0.535000
v 3.017500 0.050000 0.535000
v 3.017500 0.070000 0.535000
v 3.017500 0.070000 1.050000
v 3.017500 0.050000 1.050000
v 3.017500 0.040000 1.050000
v 3.017500 0.000000 1.050000
v 3.017500 0.040000 0.792500
v 3.017500 0.053333 0.515000
v 3.017500 0.070000 1.100000
v 3.017500 0.050000 1.100000
v 3.930000 0.000000 0.495000
v 3.930000 0.040000 0.495000
v 3.930000 0.050000 0.495000
v 3.930000 0.070000 0.495000
v 3.930000 0.070000 0.000000
v 3.930000 0.050000 0.000000
v 3.930000 0.040000 0.000000
v 3.930000 0.000000 0.000000
v 3.930000 0.040000 0.247500
v 3.930000 0.000000 1.050000
v 3.930000 0.040000 1.050000
v 3.930000 0.050000 1.050000
v 3.930000 0.070000 1.050000
v 3.930000 0.070000 0.535000
v 3.930000 0.050000 0.535000
v 3.930000 0.040000 0.535000
v 3.930000 0.000000 0.535000
v 3.930000 0.040000 0.792500
v 3.930000 0.053333 0.515000
v 3.930000 0.050000 1.100000
v 3.930000 0.070000 1.100000
v 4.000000 0.000000 0.000000
v 4.000000 0.040000 0.000000
v 4.000000 0.050000 0.000000
v 4.000000 0.070000 0.000000
v 4.000000 0.070000 0.495000
v 4.000000 0.070000 0.535000
v 4.000000 0.070000 1.050000
v 4.000000 0.070000 1.100000
v 4.000000 0.050000 1.100000
v 4.000000 0.040000 1.100000
v 4.000000 0.000000 1.100000
v 4.000000 0.000000 1.050000
v 4.000000 0.000000 0.535000
v 4.000000 0.000000 0.495000
v 4.000000 0.037857 0.611429
v 0.035000 0.070000 0.636000
v 1.017500 0.070000 0.636000
v 2.000000 0.070000 0.636000
v 2.982500 0.070000 0.636000
v 3.965000 0.070000 0.636000
v 0.070000 0.000000 1.100000
v 0.035000 0.000000 0.636000
v 1.052500 0.000000 1.100000
v 0.982500 0.000000 1.100000
v 1.017500 0.000000 0.636000
v 2.035000 0.000000 1.100000
v 1.965000 0.000000 1.100000
v 2.000000 0.000000 0.636000
v 3.017500 0.000000 1.100000
v 2.947500 0.000000 1.100000
v 2.982500 0.000000 0.636000
v 3.930000 0.000000 1.100000
v 3.965000 0.000000 0.636000
v 0.035000 0.040000 0.000000
v 1.017500 0.040000 0.000000
v 2.000000 0.040000 0.000000
v 2.982500 0.040000 0.000000
v 3.965000 0.040000 0.000000
v 0.070000 0.040000 1.100000
v 0.035000 0.040000 1.100000
v 2.203500 0.026500 1.100000
v 0.526250 0.030000 1.050000
v 1.508750 0.030000 1.050000
v 2.491250 0.030000 1.050000
v 3.473750 0.030000 1.050000
vn -1.000000 0.000000 0.000000
vn 1.000000 0.000000 0.000000
vn 0.000000 1.000000 0.000000
vn 0.000000 -1.000000 0.000000
vn 0.000000 0.000000 -1.000000
vn 0.000000 0.000000 1.000000
usemtl M_Steel
f 15//1 1//1 2//1
f 15//1 2//1 3//1
f 15//1 3//1 4//1
f 15//1 4//1 5//1
f 15//1 5//1 6//1
f 15//1 6//1 7//1
f 15//1 7//1 8//1
f 15//1 8//1 9//1
f 15//1 9//1 10//1
f 15//1 10//1 11//1
f 15//1 11//1 12//1
f 15//1 12//1 13//1
f 15//1 13//1 14//1
f 15//1 14//1 1//1
f 24//2 16//2 17//2
f 24//2 17//2 18//2
f 24//2 18//2 19//2
f 24//2 19//2 20//2
f 24//2 20//2 21//2
f 24//2 21//2 22//2
f 24//2 22//2 23//2
f 24//2 23//2 16//2
f 33//2 25//2 26//2
f 33//2 26//2 27//2
f 33//2 27//2 28//2
f 33//2 28//2 29//2
f 33//2 29//2 30//2
f 33//2 30//2 31//2
f 33//2 31//2 32//2
f 33//2 32//2 25//2
f 34//2 22//2 21//2
f 34//2 21//2 20//2
f 34//2 20//2 28//2
f 34//2 28//2 27//2
f 34//2 27//2 26//2
f 34//2 26//2 22//2
f 30//2 29//2 35//2
f 30//2 35//2 36//2
f 45//1 37//1 38//1
f 45//1 38//1 39//1
f 45//1 39//1 40//1
f 45//1 40//1 41//1
f 45//1 41//1 42//1
f 45//1 42//1 43//1
f 45//1 43//1 44//1
f 45//1 44//1 37//1
f 54//1 46//1 47//1
f 54//1 47//1 48//1
f 54//1 48//1 49//1
f 54//1 49//1 50//1
f 54//1 50//1 51//1
f 54//1 51//1 52//1
f 54//1 52//1 53//1
f 54//1 53//1 46//1
f 55//1 52//1 51//1
f 55//1 51//1 50//1
f 55//1 50//1 40//1
f 55//1 40//1 39//1
f 55//1 39//1 38//1
f 55//1 38//1 52//1
f 56//1 57//1 49//1
f 56//1 49//1 48//1
f 66//2 58//2 59//2
f 66//2 59//2 60//2
f 66//2 60//2 61//2
f 66//2 61//2 62//2
f 66//2 62//2 63//2
f 66//2 63//2 64//2
f 66//2 64//2 65//2
f 66//2 65//2 58//2
f 75//2 67//2 68//2
f 75//2 68//2 69//2
f 75//2 69//2 70//2
f 75//2 70//2 71//2
f 75//2 71//2 72//2
f 75//2 72//2 73//2
f 75//2 73//2 74//2
f 75//2 74//2 67//2
f 76//2 64//2 63//2
f 76//2 63//2 62//2
f 76//2 62//2 70//2
f 76//2 70//2 69//2
f 76//2 69//2 68//2
f 76//2 68//2 64//2
f 72//2 71//2 77//2
f 72//2 77//2 78//2
f 87//1 79//1 80//1
f 87//1 80//1 81//1
f 87//1 81//1 82//1
f 87//1 82//1 83//1
f 87//1 83//1 84//1
f 87//1 84//1 85//1
f 87//1 85//1 86//1
f 87//1 86//1 79//1
f 96//1 88//1 89//1
f 96//1 89//1 90//1
f 96//1 90//1 91//1
f 96//1 91//1 92//1
f 96//1 92//1 93//1
f 96//1 93//1 94//1
f 96//1 94//1 95//1
f 96//1 95//1 88//1
f 97//1 94//1 93//1
f 97//1 93//1 92//1
f 97//1 92//1 82//1
f 97//1 82//1 81//1
f 97//1 81//1 80//1
f 97//1 80//1 94//1
f 98//1 99//1 91//1
f 98//1 91//1 90//1
f 108//2 100//2 101//2
f 108//2 101//2 102//2
f 108//2 102//2 103//2
f 108//2 103//2 104//2
f 108//2 104//2 105//2
f 108//2 105//2 106//2
f 108//2 106//2 107//2
f 108//2 107//2 100//2
f 117//2 109//2 110//2
f 117//2 110//2 111//2
f 117//2 111//2 112//2
f 117//2 112//2 113//2
f 117//2 113//2 114//2
f 117//2 114//2 115//2
f 117//2 115//2 116//2
f 117//2 116//2 109//2
f 118//2 106//2 105//2
f 118//2 105//2 104//2
f 118//2 104//2 112//2
f 118//2 112//2 111//2
f 118//2 111//2 110//2
f 118//2 110//2 106//2
f 114//2 113//2 119//2
f 114//2 119//2 120//2
f 129//1 121//1 122//1
f 129//1 122//1 123//1
f 129//1 123//1 124//1
f 129//1 124//1 125//1
f 129//1 125//1 126//1
f 129//1 126//1 127//1
f 129//1 127//1 128//1
f 129//1 128//1 121//1
f 138//1 130//1 131//1
f 138//1 131//1 132//1
f 138//1 132//1 133//1
f 138//1 133//1 134//1
f 138//1 134//1 135//1
f 138//1 135//1 136//1
f 138//1 136//1 137//1
f 138//1 137//1 130//1
f 139//1 136//1 135//1
f 139//1 135//1 134//1
f 139//1 134//1 124//1
f 139//1 124//1 123//1
f 139//1 123//1 122//1
f 139//1 122//1 136//1
f 140//1 141//1 133//1
f 140//1 133//1 132//1
f 150//2 142//2 143//2
f 150//2 143//2 144//2
f 150//2 144//2 145//2
f 150//2 145//2 146//2
f 150//2 146//2 147//2
f 150//2 147//2 148//2
f 150//2 148//2 149//2
f 150//2 149//2 142//2
f 159//2 151//2 152//2
f 159//2 152//2 153//2
f 159//2 153//2 154//2
f 159//2 154//2 155//2
f 159//2 155//2 156//2
f 159//2 156//2 157//2
f 159//2 157//2 158//2
f 159//2 158//2 151//2
f 160//2 148//2 147//2
f 160//2 147//2 146//2
f 160//2 146//2 154//2
f 160//2 154//2 153//2
f 160//2 153//2 152//2
f 160//2 152//2 148//2
f 156//2 155//2 161//2
f 156//2 161//2 162//2
f 171//1 163//1 164//1
f 171//1 164//1 165//1
f 171//1 165//1 166//1
f 171//1 166//1 167//1
f 171//1 167//1 168//1
f 171//1 168//1 169//1
f 171//1 169//1 170//1
f 171//1 170//1 163//1
f 180//1 172//1 173//1
f 180//1 173//1 174//1
f 180//1 174//1 175//1
f 180//1 175//1 176//1
f 180//1 176//1 177//1
f 180//1 177//1 178//1
f 180//1 178//1 179//1
f 180//1 179//1 172//1
f 181//1 178//1 177//1
f 181//1 177//1 176//1
f 181//1 176//1 166//1
f 181//1 166//1 165//1
f 181//1 165//1 164//1
f 181//1 164//1 178//1
f 182//1 183//1 175//1
f 182//1 175//1 174//1
f 198//2 184//2 185//2
f 198//2 185//2 186//2
f 198//2 186//2 187//2
f 198//2 187//2 188//2
f 198//2 188//2 189//2
f 198//2 189//2 190//2
f 198//2 190//2 191//2
f 198//2 191//2 192//2
f 198//2 192//2 193//2
f 198//2 193//2 194//2
f 198//2 194//2 195//2
f 198//2 195//2 196//2
f 198//2 196//2 197//2
f 198//2 197//2 184//2
f 30//3 36//3 56//3
f 30//3 56//3 48//3
f 72//3 78//3 98//3
f 72//3 98//3 90//3
f 114//3 120//3 140//3
f 114//3 140//3 132//3
f 156//3 162//3 182//3
f 156//3 182//3 174//3
f 199//3 11//3 10//3
f 199//3 10//3 9//3
f 199//3 9//3 8//3
f 199//3 8//3 7//3
f 199//3 7//3 35//3
f 199//3 35//3 29//3
f 199//3 29//3 28//3
f 199//3 28//3 20//3
f 199//3 20//3 19//3
f 199//3 19//3 11//3
f 200//3 41//3 40//3
f 200//3 40//3 50//3
f 200//3 50//3 49//3
f 200//3 49//3 57//3
f 200//3 57//3 77//3
f 200//3 77//3 71//3
f 200//3 71//3 70//3
f 200//3 70//3 62//3
f 200//3 62//3 61//3
f 200//3 61//3 41//3
f 201//3 83//3 82//3
f 201//3 82//3 92//3
f 201//3 92//3 91//3
f 201//3 91//3 99//3
f 201//3 99//3 119//3
f 201//3 119//3 113//3
f 201//3 113//3 112//3
f 201//3 112//3 104//3
f 201//3 104//3 103//3
f 201//3 103//3 83//3
f 202//3 125//3 124//3
f 202//3 124//3 134//3
f 202//3 134//3 133//3
f 202//3 133//3 141//3
f 202//3 141//3 161//3
f 202//3 161//3 155//3
f 202//3 155//3 154//3
f 202//3 154//3 146//3
f 202//3 146//3 145//3
f 202//3 145//3 125//3
f 203//3 167//3 166//3
f 203//3 166//3 176//3
f 203//3 176//3 175//3
f 203//3 175//3 183//3
f 203//3 183//3 191//3
f 203//3 191//3 190//3
f 203//3 190//3 189//3
f 203//3 189//3 188//3
f 203//3 188//3 187//3
f 203//3 187//3 167//3
f 22//3 26//3 52//3
f 22//3 52//3 38//3
f 64//3 68//3 94//3
f 64//3 94//3 80//3
f 106//3 110//3 136//3
f 106//3 136//3 122//3
f 148//3 152//3 178//3
f 148//3 178//3 164//3
f 205//4 16//4 23//4
f 205//4 23//4 25//4
f 205//4 25//4 32//4
f 205//4 32//4 204//4
f 205//4 204//4 4//4
f 205//4 4//4 3//4
f 205//4 3//4 2//4
f 205//4 2//4 1//4
f 205//4 1//4 14//4
f 205//4 14//4 16//4
f 208//4 58//4 65//4
f 208//4 65//4 67//4
f 208//4 67//4 74//4
f 208//4 74//4 206//4
f 208//4 206//4 207//4
f 208//4 207//4 46//4
f 208//4 46//4 53//4
f 208//4 53//4 37//4
f 208//4 37//4 44//4
f 208//4 44//4 58//4
f 211//4 100//4 107//4
f 211//4 107//4 109//4
f 211//4 109//4 116//4
f 211//4 116//4 209//4
f 211//4 209//4 210//4
f 211//4 210//4 88//4
f 211//4 88//4 95//4
f 211//4 95//4 79//4
f 211//4 79//4 86//4
f 211//4 86//4 100//4
f 214//4 142//4 149//4
f 214//4 149//4 151//4
f 214//4 151//4 158//4
f 214//4 158//4 212//4
f 214//4 212//4 213//4
f 214//4 213//4 130//4
f 214//4 130//4 137//4
f 214//4 137//4 121//4
f 214//4 121//4 128//4
f 214//4 128//4 142//4
f 216//4 184//4 197//4
f 216//4 197//4 196//4
f 216//4 196//4 195//4
f 216//4 195//4 194//4
f 216//4 194//4 215//4
f 216//4 215//4 172//4
f 216//4 172//4 179//4
f 216//4 179//4 163//4
f 216//4 163//4 170//4
f 216//4 170//4 184//4
f 37//4 53//4 25//4
f 37//4 25//4 23//4
f 79//4 95//4 67//4
f 79//4 67//4 65//4
f 121//4 137//4 109//4
f 121//4 109//4 107//4
f 163//4 179//4 151//4
f 163//4 151//4 149//4
f 46//4 207//4 204//4
f 46//4 204//4 32//4
f 88//4 210//4 206//4
f 88//4 206//4 74//4
f 130//4 213//4 209//4
f 130//4 209//4 116//4
f 172//4 215//4 212//4
f 172//4 212//4 158//4
f 217//5 13//5 12//5
f 217//5 12//5 11//5
f 217//5 11//5 19//5
f 217//5 19//5 18//5
f 217//5 18//5 17//5
f 217//5 17//5 16//5
f 217//5 16//5 14//5
f 217//5 14//5 13//5
f 218//5 43//5 42//5
f 218//5 42//5 41//5
f 218//5 41//5 61//5
f 218//5 61//5 60//5
f 218//5 60//5 59//5
f 218//5 59//5 58//5
f 218//5 58//5 44//5
f 218//5 44//5 43//5
f 219//5 85//5 84//5
f 219//5 84//5 83//5
f 219//5 83//5 103//5
f 219//5 103//5 102//5
f 219//5 102//5 101//5
f 219//5 101//5 100//5
f 219//5 100//5 86//5
f 219//5 86//5 85//5
f 220//5 127//5 126//5
f 220//5 126//5 125//5
f 220//5 125//5 145//5
f 220//5 145//5 144//5
f 220//5 144//5 143//5
f 220//5 143//5 142//5
f 220//5 142//5 128//5
f 220//5 128//5 127//5
f 221//5 169//5 168//5
f 221//5 168//5 167//5
f 221//5 167//5 187//5
f 221//5 187//5 186//5
f 221//5 186//5 185//5
f 221//5 185//5 184//5
f 221//5 184//5 170//5
f 221//5 170//5 169//5
f 223//6 4//6 204//6
f 223//6 204//6 222//6
f 223//6 222//6 36//6
f 223//6 36//6 35//6
f 223//6 35//6 7//6
f 223//6 7//6 6//6
f 223//6 6//6 5//6
f 223//6 5//6 4//6
f 224//6 204//6 207//6
f 224//6 207//6 206//6
f 224//6 206//6 210//6
f 224//6 210//6 209//6
f 224//6 209//6 213//6
f 224//6 213//6 212//6
f 224//6 212//6 215//6
f 224//6 215//6 194//6
f 224//6 194//6 193//6
f 224//6 193//6 192//6
f 224//6 192//6 182//6
f 224//6 182//6 162//6
f 224//6 162//6 140//6
f 224//6 140//6 120//6
f 224//6 120//6 98//6
f 224//6 98//6 78//6
f 224//6 78//6 56//6
f 224//6 56//6 36//6
f 224//6 36//6 222//6
f 224//6 222//6 204//6
f 56//6 78//6 77//6
f 56//6 77//6 57//6
f 98//6 120//6 119//6
f 98//6 119//6 99//6
f 140//6 162//6 161//6
f 140//6 161//6 141//6
f 182//6 192//6 191//6
f 182//6 191//6 183//6
f 225//5 31//5 30//5
f 225//5 30//5 48//5
f 225//5 48//5 47//5
f 225//5 47//5 46//5
f 225//5 46//5 32//5
f 225//5 32//5 31//5
f 226//5 73//5 72//5
f 226//5 72//5 90//5
f 226//5 90//5 89//5
f 226//5 89//5 88//5
f 226//5 88//5 74//5
f 226//5 74//5 73//5
f 227//5 115//5 114//5
f 227//5 114//5 132//5
f 227//5 132//5 131//5
f 227//5 131//5 130//5
f 227//5 130//5 116//5
f 227//5 116//5 115//5
f 228//5 157//5 156//5
f 228//5 156//5 174//5
f 228//5 174//5 173//5
f 228//5 173//5 172//5
f 228//5 172//5 158//5
f 228//5 158//5 157//5
f 22//5 38//5 37//5
f 22//5 37//5 23//5
f 64//5 80//5 79//5
f 64//5 79//5 65//5
f 106//5 122//5 121//5
f 106//5 121//5 107//5
f 148//5 164//5 163//5
f 148//5 163//5 149//5
f 25//6 53//6 52//6
f 25//6 52//6 26//6
f 67//6 95//6 94//6
f 67//6 94//6 68//6
f 109//6 137//6 136//6
f 109//6 136//6 110//6
f 151//6 179//6 178//6
f 151//6 178//6 152//6
