# Tessera roof.ridge.4m
mtllib roof.ridge.4m.mtl
o roof.ridge.4m
v 4.000000 -0.280000 0.042400
v 4.000000 -0.280000 -0.117600
v 4.000000 0.000000 0.000000
v 0.000000 0.000000 0.000000
v 0.000000 -0.280000 -0.117600
v 0.000000 -0.280000 0.042400
v 4.000000 0.280000 -0.117600
v 4.000000 0.280000 0.042400
v 0.000000 0.280000 0.042400
v 0.000000 0.280000 -0.117600
v 4.000000 0.000000 0.160000
v 0.000000 0.000000 0.160000
vn 1.000000 0.000000 0.000000
vn -1.000000 0.000000 0.000000
vn 0.000000 0.387232 -0.921982
vn 0.000000 -0.387232 -0.921982
vn 0.000000 1.000000 -0.000000
vn 0.000000 0.387232 0.921982
vn 0.000000 -0.387232 0.921982
vn 0.000000 -1.000000 -0.000000
usemtl M_RoofSheet
f 1//1 2//1 3//1
f 4//2 5//2 6//2
f 3//1 7//1 8//1
f 9//2 10//2 4//2
f 1//1 3//1 8//1
f 9//2 4//2 6//2
f 8//1 11//1 1//1
f 6//2 12//2 9//2
f 5//3 4//3 3//3
f 5//3 3//3 2//3
f 4//4 10//4 7//4
f 4//4 7//4 3//4
f 10//5 9//5 8//5
f 10//5 8//5 7//5
f 9//6 12//6 11//6
f 9//6 11//6 8//6
f 12//7 6//7 1//7
f 12//7 1//7 11//7
f 6//8 5//8 2//8
f 6//8 2//8 1//8
