# Tessera roof.panel.4m
mtllib roof.panel.4m.mtl
o roof.panel.4m
v 4.000000 -0.300000 0.054000
v 4.000000 -0.300000 -0.126000
v 4.000000 6.000000 2.520000
v 0.000000 6.000000 2.520000
v 0.000000 -0.300000 -0.126000
v 0.000000 -0.300000 0.054000
v 4.000000 6.000000 2.700000
v 0.000000 6.000000 2.700000
vn 1.000000 0.000000 0.000000
vn -1.000000 0.000000 0.000000
vn 0.000000 0.387232 -0.921982
vn 0.000000 1.000000 -0.000000
vn 0.000000 -0.387232 0.921982
vn 0.000000 -1.000000 -0.000000
usemtl M_RoofSheet
f 1//1 2//1 3//1
f 4//2 5//2 6//2
f 3//1 7//1 1//1
f 6//2 8//2 4//2
f 5//3 4//3 3//3
f 5//3 3//3 2//3
f 4//4 8//4 7//4
f 4//4 7//4 3//4
f 8//5 6//5 1//5
f 8//5 1//5 7//5
f 6//6 5//6 2//6
f 6//6 2//6 1//6
