# Tessera stair.straight.4m
mtllib stair.straight.4m.mtl
o stair.straight.4m
v 0.000000 0.250000 0.400000
v 0.000000 0.500000 0.400000
v 0.000000 0.750000 0.400000
v 0.000000 1.000000 0.400000
v 0.000000 1.250000 0.400000
v 0.000000 1.500000 0.400000
v 0.000000 1.750000 0.400000
v 0.000000 2.000000 0.400000
v 0.000000 2.250000 0.400000
v 0.000000 2.500000 0.400000
v 0.000000 2.750000 0.400000
v 0.000000 3.000000 0.400000
v 0.000000 3.250000 0.400000
v 0.000000 3.500000 0.400000
v 0.000000 3.750000 0.400000
v 0.000000 4.000000 0.400000
v 0.000000 4.000000 0.200000
v 0.000000 3.750000 0.200000
v 0.000000 3.500000 0.200000
v 0.000000 3.250000 0.200000
v 0.000000 3.000000 0.200000
v 0.000000 2.750000 0.200000
v 0.000000 2.500000 0.200000
v 0.000000 2.250000 0.200000
v 0.000000 2.000000 0.200000
v 0.000000 1.750000 0.200000
v 0.000000 1.500000 0.200000
v 0.000000 1.250000 0.200000
v 0.000000 1.000000 0.200000
v 0.000000 0.750000 0.200000
v 0.000000 0.500000 0.200000
v 0.000000 0.250000 0.200000
v 0.000000 2.125000 0.300000
v 0.000000 0.500000 0.600000
v 0.000000 0.750000 0.600000
v 0.000000 1.000000 0.600000
v 0.000000 1.250000 0.600000
v 0.000000 1.500000 0.600000
v 0.000000 1.750000 0.600000
v 0.000000 2.000000 0.600000
v 0.000000 2.250000 0.600000
v 0.000000 2.500000 0.600000
v 0.000000 2.750000 0.600000
v 0.000000 3.000000 0.600000
v 0.000000 3.250000 0.600000
v 0.000000 3.500000 0.600000
v 0.000000 3.750000 0.600000
v 0.000000 4.000000 0.600000
v 0.000000 2.250000 0.500000
v 0.000000 0.750000 0.800000
v 0.000000 1.000000 0.800000
v 0.000000 1.250000 0.800000
v 0.000000 1.500000 0.800000
v 0.000000 1.750000 0.800000
v 0.000000 2.000000 0.800000
v 0.000000 2.250000 0.800000
v 0.000000 2.500000 0.800000
v 0.000000 2.750000 0.800000
v 0.000000 3.000000 0.800000
v 0.000000 3.250000 0.800000
v 0.000000 3.500000 0.800000
v 0.000000 3.750000 0.800000
v 0.000000 4.000000 0.800000
v 0.000000 2.375000 0.700000
v 0.000000 1.000000 1.000000
v 0.000000 1.250000 1.000000
v 0.000000 1.500000 1.000000
v 0.000000 1.750000 1.000000
v 0.000000 2.000000 1.000000
v 0.000000 2.250000 1.000000
v 0.000000 2.500000 1.000000
v 0.000000 2.750000 1.000000
v 0.000000 3.000000 1.000000
v 0.000000 3.250000 1.000000
v 0.000000 3.500000 1.000000
v 0.000000 3.750000 1.000000
v 0.000000 4.000000 1.000000
v 0.000000 2.500000 0.900000
v 0.000000 1.250000 1.200000
v 0.000000 1.500000 1.200000
v 0.000000 1.750000 1.200000
v 0.000000 2.000000 1.200000
v 0.000000 2.250000 1.200000
v 0.000000 2.500000 1.200000
v 0.000000 2.750000 1.200000
v 0.000000 3.000000 1.200000
v 0.000000 3.250000 1.200000
v 0.000000 3.500000 1.200000
v 0.000000 3.750000 1.200000
v 0.000000 4.000000 1.200000
v 0.000000 2.625000 1.100000
v 0.000000 1.500000 1.400000
v 0.000000 1.750000 1.400000
v 0.000000 2.000000 1.400000
v 0.000000 2.250000 1.400000
v 0.000000 2.500000 1.400000
v 0.000000 2.750000 1.400000
v 0.000000 3.000000 1.400000
v 0.000000 3.250000 1.400000
v 0.000000 3.500000 1.400000
v 0.000000 3.750000 1.400000
v 0.000000 4.000000 1.400000
v 0.000000 2.750000 1.300000
v 0.000000 1.750000 1.600000
v 0.000000 2.000000 1.600000
v 0.000000 2.250000 1.600000
v 0.000000 2.500000 1.600000
v 0.000000 2.750000 1.600000
v 0.000000 3.000000 1.600000
v 0.000000 3.250000 1.600000
v 0.000000 3.500000 1.600000
v 0.000000 3.750000 1.600000
v 0.000000 4.000000 1.600000
v 0.000000 2.875000 1.500000
v 0.000000 2.000000 1.800000
v 0.000000 2.250000 1.800000
v 0.000000 2.500000 1.800000
v 0.000000 2.750000 1.800000
v 0.000000 3.000000 1.800000
v 0.000000 3.250000 1.800000
v 0.000000 3.500000 1.800000
v 0.000000 3.750000 1.800000
v 0.000000 4.000000 1.800000
v 0.000000 3.000000 1.700000
v 0.000000 2.250000 2.000000
v 0.000000 2.500000 2.000000
v 0.000000 2.750000 2.000000
v 0.000000 3.000000 2.000000
v 0.000000 3.250000 2.000000
v 0.000000 3.500000 2.000000
v 0.000000 3.750000 2.000000
v 0.000000 4.000000 2.000000
v 0.000000 3.125000 1.900000
v 0.000000 2.500000 2.200000
v 0.000000 2.750000 2.200000
v 0.000000 3.000000 2.200000
v 0.000000 3.250000 2.200000
v 0.000000 3.500000 2.200000
v 0.000000 3.750000 2.200000
v 0.000000 4.000000 2.200000
v 0.000000 3.250000 2.100000
v 0.000000 2.750000 2.400000
v 0.000000 3.000000 2.400000
v 0.000000 3.250000 2.400000
v 0.000000 3.500000 2.400000
v 0.000000 3.750000 2.400000
v 0.000000 4.000000 2.400000
v 0.000000 3.375000 2.300000
v 0.000000 3.000000 2.600000
v 0.000000 3.250000 2.600000
v 0.000000 3.500000 2.600000
v 0.000000 3.750000 2.600000
v 0.000000 4.000000 2.600000
v 0.000000 3.500000 2.500000
v 0.000000 3.250000 2.800000
v 0.000000 3.500000 2.800000
v 0.000000 3.750000 2.800000
v 0.000000 4.000000 2.800000
v 0.000000 3.625000 2.700000
v 0.000000 3.500000 3.000000
v 0.000000 3.750000 3.000000
v 0.000000 4.000000 3.000000
v 0.000000 3.750000 2.900000
v 0.000000 3.750000 3.200000
v 0.000000 4.000000 3.200000
v 1.200000 0.250000 0.200000
v 1.200000 0.500000 0.200000
v 1.200000 0.750000 0.200000
v 1.200000 1.000000 0.200000
v 1.200000 1.250000 0.200000
v 1.200000 1.500000 0.200000
v 1.200000 1.750000 0.200000
v 1.200000 2.000000 0.200000
v 1.200000 2.250000 0.200000
v 1.200000 2.500000 0.200000
v 1.200000 2.750000 0.200000
v 1.200000 3.000000 0.200000
v 1.200000 3.250000 0.200000
v 1.200000 3.500000 0.200000
v 1.200000 3.750000 0.200000
v 1.200000 4.000000 0.200000
v 1.200000 4.000000 0.400000
v 1.200000 3.750000 0.400000
v 1.200000 3.500000 0.400000
v 1.200000 3.250000 0.400000
v 1.200000 3.000000 0.400000
v 1.200000 2.750000 0.400000
v 1.200000 2.500000 0.400000
v 1.200000 2.250000 0.400000
v 1.200000 2.000000 0.400000
v 1.200000 1.750000 0.400000
v 1.200000 1.500000 0.400000
v 1.200000 1.250000 0.400000
v 1.200000 1.000000 0.400000
v 1.200000 0.750000 0.400000
v 1.200000 0.500000 0.400000
v 1.200000 0.250000 0.400000
v 1.200000 2.125000 0.300000
v 1.200000 4.000000 0.600000
v 1.200000 3.750000 0.600000
v 1.200000 3.500000 0.600000
v 1.200000 3.250000 0.600000
v 1.200000 3.000000 0.600000
v 1.200000 2.750000 0.600000
v 1.200000 2.500000 0.600000
v 1.200000 2.250000 0.600000
v 1.200000 2.000000 0.600000
v 1.200000 1.750000 0.600000
v 1.200000 1.500000 0.600000
v 1.200000 1.250000 0.600000
v 1.200000 1.000000 0.600000
v 1.200000 0.750000 0.600000
v 1.200000 0.500000 0.600000
v 1.200000 2.250000 0.500000
v 1.200000 4.000000 0.800000
v 1.200000 3.750000 0.800000
v 1.200000 3.500000 0.800000
v 1.200000 3.250000 0.800000
v 1.200000 3.000000 0.800000
v 1.200000 2.750000 0.800000
v 1.200000 2.500000 0.800000
v 1.200000 2.250000 0.800000
v 1.200000 2.000000 0.800000
v 1.200000 1.750000 0.800000
v 1.200000 1.500000 0.800000
v 1.200000 1.250000 0.800000
v 1.200000 1.000000 0.800000
v 1.200000 0.750000 0.800000
v 1.200000 2.375000 0.700000
v 1.200000 4.000000 1.000000
v 1.200000 3.750000 1.000000
v 1.200000 3.500000 1.000000
v 1.200000 3.250000 1.000000
v 1.200000 3.000000 1.000000
v 1.200000 2.750000 1.000000
v 1.200000 2.500000 1.000000
v 1.200000 2.250000 1.000000
v 1.200000 2.000000 1.000000
v 1.200000 1.750000 1.000000
v 1.200000 1.500000 1.000000
v 1.200000 1.250000 1.000000
v 1.200000 1.000000 1.000000
v 1.200000 2.500000 0.900000
v 1.200000 4.000000 1.200000
v 1.200000 3.750000 1.200000
v 1.200000 3.500000 1.200000
v 1.200000 3.250000 1.200000
v 1.200000 3.000000 1.200000
v 1.200000 2.750000 1.200000
v 1.200000 2.500000 1.200000
v 1.200000 2.250000 1.200000
v 1.200000 2.000000 1.200000
v 1.200000 1.750000 1.200000
v 1.200000 1.500000 1.200000
v 1.200000 1.250000 1.200000
v 1.200000 2.625000 1.100000
v 1.200000 4.000000 1.400000
v 1.200000 3.750000 1.400000
v 1.200000 3.500000 1.400000
v 1.200000 3.250000 1.400000
v 1.200000 3.000000 1.400000
v 1.200000 2.750000 1.400000
v 1.200000 2.500000 1.400000
v 1.200000 2.250000 1.400000
v 1.200000 2.000000 1.400000
v 1.200000 1.750000 1.400000
v 1.200000 1.500000 1.400000
v 1.200000 2.750000 1.300000
v 1.200000 4.000000 1.600000
v 1.200000 3.750000 1.600000
v 1.200000 3.500000 1.600000
v 1.200000 3.250000 1.600000
v 1.200000 3.000000 1.600000
v 1.200000 2.750000 1.600000
v 1.200000 2.500000 1.600000
v 1.200000 2.250000 1.600000
v 1.200000 2.000000 1.600000
v 1.200000 1.750000 1.600000
v 1.200000 2.875000 1.500000
v 1.200000 4.000000 1.800000
v 1.200000 3.750000 1.800000
v 1.200000 3.500000 1.800000
v 1.200000 3.250000 1.800000
v 1.200000 3.000000 1.800000
v 1.200000 2.750000 1.800000
v 1.200000 2.500000 1.800000
v 1.200000 2.250000 1.800000
v 1.200000 2.000000 1.800000
v 1.200000 3.000000 1.700000
v 1.200000 4.000000 2.000000
v 1.200000 3.750000 2.000000
v 1.200000 3.500000 2.000000
v 1.200000 3.250000 2.000000
v 1.200000 3.000000 2.000000
v 1.200000 2.750000 2.000000
v 1.200000 2.500000 2.000000
v 1.200000 2.250000 2.000000
v 1.200000 3.125000 1.900000
v 1.200000 4.000000 2.200000
v 1.200000 3.750000 2.200000
v 1.200000 3.500000 2.200000
v 1.200000 3.250000 2.200000
v 1.200000 3.000000 2.200000
v 1.200000 2.750000 2.200000
v 1.200000 2.500000 2.200000
v 1.200000 3.250000 2.100000
v 1.200000 4.000000 2.400000
v 1.200000 3.750000 2.400000
v 1.200000 3.500000 2.400000
v 1.200000 3.250000 2.400000
v 1.200000 3.000000 2.400000
v 1.200000 2.750000 2.400000
v 1.200000 3.375000 2.300000
v 1.200000 4.000000 2.600000
v 1.200000 3.750000 2.600000
v 1.200000 3.500000 2.600000
v 1.200000 3.250000 2.600000
v 1.200000 3.000000 2.600000
v 1.200000 3.500000 2.500000
v 1.200000 4.000000 2.800000
v 1.200000 3.750000 2.800000
v 1.200000 3.500000 2.800000
v 1.200000 3.250000 2.800000
v 1.200000 3.625000 2.700000
v 1.200000 4.000000 3.000000
v 1.200000 3.750000 3.000000
v 1.200000 3.500000 3.000000
v 1.200000 3.750000 2.900000
v 1.200000 4.000000 3.200000
v 1.200000 3.750000 3.200000
v -0.060000 0.000000 0.200000
v -0.060000 0.250000 0.200000
v -0.060000 0.500000 0.200000
v -0.060000 0.750000 0.200000
v -0.060000 1.000000 0.200000
v -0.060000 1.250000 0.200000
v -0.060000 1.500000 0.200000
v -0.060000 1.750000 0.200000
v -0.060000 2.000000 0.200000
v -0.060000 2.250000 0.200000
v -0.060000 2.500000 0.200000
v -0.060000 2.750000 0.200000
v -0.060000 3.000000 0.200000
v -0.060000 3.250000 0.200000
v -0.060000 3.500000 0.200000
v -0.060000 3.750000 0.200000
v -0.060000 4.000000 0.200000
v -0.060000 4.000000 0.000000
v -0.060000 3.750000 0.000000
v -0.060000 3.500000 0.000000
v -0.060000 3.250000 0.000000
v -0.060000 3.000000 0.000000
v -0.060000 2.750000 0.000000
v -0.060000 2.500000 0.000000
v -0.060000 2.250000 0.000000
v -0.060000 2.000000 0.000000
v -0.060000 1.750000 0.000000
v -0.060000 1.500000 0.000000
v -0.060000 1.250000 0.000000
v -0.060000 1.000000 0.000000
v -0.060000 0.750000 0.000000
v -0.060000 0.500000 0.000000
v -0.060000 0.250000 0.000000
v -0.060000 0.000000 0.000000
v -0.060000 2.000000 0.100000
v 1.260000 0.000000 0.000000
v 1.260000 0.250000 0.000000
v 1.260000 0.500000 0.000000
v 1.260000 0.750000 0.000000
v 1.260000 1.000000 0.000000
v 1.260000 1.250000 0.000000
v 1.260000 1.500000 0.000000
v 1.260000 1.750000 0.000000
v 1.260000 2.000000 0.000000
v 1.260000 2.250000 0.000000
v 1.260000 2.500000 0.000000
v 1.260000 2.750000 0.000000
v 1.260000 3.000000 0.000000
v 1.260000 3.250000 0.000000
v 1.260000 3.500000 0.000000
v 1.260000 3.750000 0.000000
v 1.260000 4.000000 0.000000
v 1.260000 4.000000 0.200000
v 1.260000 3.750000 0.200000
v 1.260000 3.500000 0.200000
v 1.260000 3.250000 0.200000
v 1.260000 3.000000 0.200000
v 1.260000 2.750000 0.200000
v 1.260000 2.500000 0.200000
v 1.260000 2.250000 0.200000
v 1.260000 2.000000 0.200000
v 1.260000 1.750000 0.200000
v 1.260000 1.500000 0.200000
v 1.260000 1.250000 0.200000
v 1.260000 1.000000 0.200000
v 1.260000 0.750000 0.200000
v 1.260000 0.500000 0.200000
v 1.260000 0.250000 0.200000
v 1.260000 0.000000 0.200000
v 1.260000 2.000000 0.100000
v 0.000000 0.000000 0.000000
v 1.200000 0.000000 0.000000
v 1.200000 0.000000 0.200000
v 0.000000 0.000000 0.200000
v 0.600000 0.000000 0.100000
v 1.200000 4.000000 0.000000
v 0.000000 4.000000 0.000000
v 0.600000 4.000000 0.100000
v 0.600000 4.000000 1.700000
v 0.600000 2.000000 0.000000
v -0.030000 2.000000 0.200000
v 0.820000 0.125000 0.200000
v 1.230000 2.125000 0.200000
vn -1.000000 0.000000 0.000000
vn 1.000000 0.000000 0.000000
vn 0.000000 -1.000000 0.000000
vn 0.000000 1.000000 0.000000
vn 0.000000 0.000000 -1.000000
vn 0.000000 0.000000 1.000000
usemtl M_Concrete
f 33//1 1//1 2//1
f 33//1 2//1 3//1
f 33//1 3//1 4//1
f 33//1 4//1 5//1
f 33//1 5//1 6//1
f 33//1 6//1 7//1
f 33//1 7//1 8//1
f 33//1 8//1 9//1
f 33//1 9//1 10//1
f 33//1 10//1 11//1
f 33//1 11//1 12//1
f 33//1 12//1 13//1
f 33//1 13//1 14//1
f 33//1 14//1 15//1
f 33//1 15//1 16//1
f 33//1 16//1 17//1
f 33//1 17//1 18//1
f 33//1 18//1 19//1
f 33//1 19//1 20//1
f 33//1 20//1 21//1
f 33//1 21//1 22//1
f 33//1 22//1 23//1
f 33//1 23//1 24//1
f 33//1 24//1 25//1
f 33//1 25//1 26//1
f 33//1 26//1 27//1
f 33//1 27//1 28//1
f 33//1 28//1 29//1
f 33//1 29//1 30//1
f 33//1 30//1 31//1
f 33//1 31//1 32//1
f 33//1 32//1 1//1
f 49//1 34//1 35//1
f 49//1 35//1 36//1
f 49//1 36//1 37//1
f 49//1 37//1 38//1
f 49//1 38//1 39//1
f 49//1 39//1 40//1
f 49//1 40//1 41//1
f 49//1 41//1 42//1
f 49//1 42//1 43//1
f 49//1 43//1 44//1
f 49//1 44//1 45//1
f 49//1 45//1 46//1
f 49//1 46//1 47//1
f 49//1 47//1 48//1
f 49//1 48//1 16//1
f 49//1 16//1 15//1
f 49//1 15//1 14//1
f 49//1 14//1 13//1
f 49//1 13//1 12//1
f 49//1 12//1 11//1
f 49//1 11//1 10//1
f 49//1 10//1 9//1
f 49//1 9//1 8//1
f 49//1 8//1 7//1
f 49//1 7//1 6//1
f 49//1 6//1 5//1
f 49//1 5//1 4//1
f 49//1 4//1 3//1
f 49//1 3//1 2//1
f 49//1 2//1 34//1
f 64//1 50//1 51//1
f 64//1 51//1 52//1
f 64//1 52//1 53//1
f 64//1 53//1 54//1
f 64//1 54//1 55//1
f 64//1 55//1 56//1
f 64//1 56//1 57//1
f 64//1 57//1 58//1
f 64//1 58//1 59//1
f 64//1 59//1 60//1
f 64//1 60//1 61//1
f 64//1 61//1 62//1
f 64//1 62//1 63//1
f 64//1 63//1 48//1
f 64//1 48//1 47//1
f 64//1 47//1 46//1
f 64//1 46//1 45//1
f 64//1 45//1 44//1
f 64//1 44//1 43//1
f 64//1 43//1 42//1
f 64//1 42//1 41//1
f 64//1 41//1 40//1
f 64//1 40//1 39//1
f 64//1 39//1 38//1
f 64//1 38//1 37//1
f 64//1 37//1 36//1
f 64//1 36//1 35//1
f 64//1 35//1 50//1
f 78//1 65//1 66//1
f 78//1 66//1 67//1
f 78//1 67//1 68//1
f 78//1 68//1 69//1
f 78//1 69//1 70//1
f 78//1 70//1 71//1
f 78//1 71//1 72//1
f 78//1 72//1 73//1
f 78//1 73//1 74//1
f 78//1 74//1 75//1
f 78//1 75//1 76//1
f 78//1 76//1 77//1
f 78//1 77//1 63//1
f 78//1 63//1 62//1
f 78//1 62//1 61//1
f 78//1 61//1 60//1
f 78//1 60//1 59//1
f 78//1 59//1 58//1
f 78//1 58//1 57//1
f 78//1 57//1 56//1
f 78//1 56//1 55//1
f 78//1 55//1 54//1
f 78//1 54//1 53//1
f 78//1 53//1 52//1
f 78//1 52//1 51//1
f 78//1 51//1 65//1
f 91//1 79//1 80//1
f 91//1 80//1 81//1
f 91//1 81//1 82//1
f 91//1 82//1 83//1
f 91//1 83//1 84//1
f 91//1 84//1 85//1
f 91//1 85//1 86//1
f 91//1 86//1 87//1
f 91//1 87//1 88//1
f 91//1 88//1 89//1
f 91//1 89//1 90//1
f 91//1 90//1 77//1
f 91//1 77//1 76//1
f 91//1 76//1 75//1
f 91//1 75//1 74//1
f 91//1 74//1 73//1
f 91//1 73//1 72//1
f 91//1 72//1 71//1
f 91//1 71//1 70//1
f 91//1 70//1 69//1
f 91//1 69//1 68//1
f 91//1 68//1 67//1
f 91//1 67//1 66//1
f 91//1 66//1 79//1
f 103//1 92//1 93//1
f 103//1 93//1 94//1
f 103//1 94//1 95//1
f 103//1 95//1 96//1
f 103//1 96//1 97//1
f 103//1 97//1 98//1
f 103//1 98//1 99//1
f 103//1 99//1 100//1
f 103//1 100//1 101//1
f 103//1 101//1 102//1
f 103//1 102//1 90//1
f 103//1 90//1 89//1
f 103//1 89//1 88//1
f 103//1 88//1 87//1
f 103//1 87//1 86//1
f 103//1 86//1 85//1
f 103//1 85//1 84//1
f 103//1 84//1 83//1
f 103//1 83//1 82//1
f 103//1 82//1 81//1
f 103//1 81//1 80//1
f 103//1 80//1 92//1
f 114//1 104//1 105//1
f 114//1 105//1 106//1
f 114//1 106//1 107//1
f 114//1 107//1 108//1
f 114//1 108//1 109//1
f 114//1 109//1 110//1
f 114//1 110//1 111//1
f 114//1 111//1 112//1
f 114//1 112//1 113//1
f 114//1 113//1 102//1
f 114//1 102//1 101//1
f 114//1 101//1 100//1
f 114//1 100//1 99//1
f 114//1 99//1 98//1
f 114//1 98//1 97//1
f 114//1 97//1 96//1
f 114//1 96//1 95//1
f 114//1 95//1 94//1
f 114//1 94//1 93//1
f 114//1 93//1 104//1
f 124//1 115//1 116//1
f 124//1 116//1 117//1
f 124//1 117//1 118//1
f 124//1 118//1 119//1
f 124//1 119//1 120//1
f 124//1 120//1 121//1
f 124//1 121//1 122//1
f 124//1 122//1 123//1
f 124//1 123//1 113//1
f 124//1 113//1 112//1
f 124//1 112//1 111//1
f 124//1 111//1 110//1
f 124//1 110//1 109//1
f 124//1 109//1 108//1
f 124//1 108//1 107//1
f 124//1 107//1 106//1
f 124//1 106//1 105//1
f 124//1 105//1 115//1
f 133//1 125//1 126//1
f 133//1 126//1 127//1
f 133//1 127//1 128//1
f 133//1 128//1 129//1
f 133//1 129//1 130//1
f 133//1 130//1 131//1
f 133//1 131//1 132//1
f 133//1 132//1 123//1
f 133//1 123//1 122//1
f 133//1 122//1 121//1
f 133//1 121//1 120//1
f 133//1 120//1 119//1
f 133//1 119//1 118//1
f 133//1 118//1 117//1
f 133//1 117//1 116//1
f 133//1 116//1 125//1
f 141//1 134//1 135//1
f 141//1 135//1 136//1
f 141//1 136//1 137//1
f 141//1 137//1 138//1
f 141//1 138//1 139//1
f 141//1 139//1 140//1
f 141//1 140//1 132//1
f 141//1 132//1 131//1
f 141//1 131//1 130//1
f 141//1 130//1 129//1
f 141//1 129//1 128//1
f 141//1 128//1 127//1
f 141//1 127//1 126//1
f 141//1 126//1 134//1
f 148//1 142//1 143//1
f 148//1 143//1 144//1
f 148//1 144//1 145//1
f 148//1 145//1 146//1
f 148//1 146//1 147//1
f 148//1 147//1 140//1
f 148//1 140//1 139//1
f 148//1 139//1 138//1
f 148//1 138//1 137//1
f 148//1 137//1 136//1
f 148//1 136//1 135//1
f 148//1 135//1 142//1
f 154//1 149//1 150//1
f 154//1 150//1 151//1
f 154//1 151//1 152//1
f 154//1 152//1 153//1
f 154//1 153//1 147//1
f 154//1 147//1 146//1
f 154//1 146//1 145//1
f 154//1 145//1 144//1
f 154//1 144//1 143//1
f 154//1 143//1 149//1
f 159//1 155//1 156//1
f 159//1 156//1 157//1
f 159//1 157//1 158//1
f 159//1 158//1 153//1
f 159//1 153//1 152//1
f 159//1 152//1 151//1
f 159//1 151//1 150//1
f 159//1 150//1 155//1
f 163//1 160//1 161//1
f 163//1 161//1 162//1
f 163//1 162//1 158//1
f 163//1 158//1 157//1
f 163//1 157//1 156//1
f 163//1 156//1 160//1
f 164//1 165//1 162//1
f 164//1 162//1 161//1
f 198//2 166//2 167//2
f 198//2 167//2 168//2
f 198//2 168//2 169//2
f 198//2 169//2 170//2
f 198//2 170//2 171//2
f 198//2 171//2 172//2
f 198//2 172//2 173//2
f 198//2 173//2 174//2
f 198//2 174//2 175//2
f 198//2 175//2 176//2
f 198//2 176//2 177//2
f 198//2 177//2 178//2
f 198//2 178//2 179//2
f 198//2 179//2 180//2
f 198//2 180//2 181//2
f 198//2 181//2 182//2
f 198//2 182//2 183//2
f 198//2 183//2 184//2
f 198//2 184//2 185//2
f 198//2 185//2 186//2
f 198//2 186//2 187//2
f 198//2 187//2 188//2
f 198//2 188//2 189//2
f 198//2 189//2 190//2
f 198//2 190//2 191//2
f 198//2 191//2 192//2
f 198//2 192//2 193//2
f 198//2 193//2 194//2
f 198//2 194//2 195//2
f 198//2 195//2 196//2
f 198//2 196//2 197//2
f 198//2 197//2 166//2
f 214//2 196//2 195//2
f 214//2 195//2 194//2
f 214//2 194//2 193//2
f 214//2 193//2 192//2
f 214//2 192//2 191//2
f 214//2 191//2 190//2
f 214//2 190//2 189//2
f 214//2 189//2 188//2
f 214//2 188//2 187//2
f 214//2 187//2 186//2
f 214//2 186//2 185//2
f 214//2 185//2 184//2
f 214//2 184//2 183//2
f 214//2 183//2 182//2
f 214//2 182//2 199//2
f 214//2 199//2 200//2
f 214//2 200//2 201//2
f 214//2 201//2 202//2
f 214//2 202//2 203//2
f 214//2 203//2 204//2
f 214//2 204//2 205//2
f 214//2 205//2 206//2
f 214//2 206//2 207//2
f 214//2 207//2 208//2
f 214//2 208//2 209//2
f 214//2 209//2 210//2
f 214//2 210//2 211//2
f 214//2 211//2 212//2
f 214//2 212//2 213//2
f 214//2 213//2 196//2
f 229//2 212//2 211//2
f 229//2 211//2 210//2
f 229//2 210//2 209//2
f 229//2 209//2 208//2
f 229//2 208//2 207//2
f 229//2 207//2 206//2
f 229//2 206//2 205//2
f 229//2 205//2 204//2
f 229//2 204//2 203//2
f 229//2 203//2 202//2
f 229//2 202//2 201//2
f 229//2 201//2 200//2
f 229//2 200//2 199//2
f 229//2 199//2 215//2
f 229//2 215//2 216//2
f 229//2 216//2 217//2
f 229//2 217//2 218//2
f 229//2 218//2 219//2
f 229//2 219//2 220//2
f 229//2 220//2 221//2
f 229//2 221//2 222//2
f 229//2 222//2 223//2
f 229//2 223//2 224//2
f 229//2 224//2 225//2
f 229//2 225//2 226//2
f 229//2 226//2 227//2
f 229//2 227//2 228//2
f 229//2 228//2 212//2
f 243//2 227//2 226//2
f 243//2 226//2 225//2
f 243//2 225//2 224//2
f 243//2 224//2 223//2
f 243//2 223//2 222//2
f 243//2 222//2 221//2
f 243//2 221//2 220//2
f 243//2 220//2 219//2
f 243//2 219//2 218//2
f 243//2 218//2 217//2
f 243//2 217//2 216//2
f 243//2 216//2 215//2
f 243//2 215//2 230//2
f 243//2 230//2 231//2
f 243//2 231//2 232//2
f 243//2 232//2 233//2
f 243//2 233//2 234//2
f 243//2 234//2 235//2
f 243//2 235//2 236//2
f 243//2 236//2 237//2
f 243//2 237//2 238//2
f 243//2 238//2 239//2
f 243//2 239//2 240//2
f 243//2 240//2 241//2
f 243//2 241//2 242//2
f 243//2 242//2 227//2
f 256//2 241//2 240//2
f 256//2 240//2 239//2
f 256//2 239//2 238//2
f 256//2 238//2 237//2
f 256//2 237//2 236//2
f 256//2 236//2 235//2
f 256//2 235//2 234//2
f 256//2 234//2 233//2
f 256//2 233//2 232//2
f 256//2 232//2 231//2
f 256//2 231//2 230//2
f 256//2 230//2 244//2
f 256//2 244//2 245//2
f 256//2 245//2 246//2
f 256//2 246//2 247//2
f 256//2 247//2 248//2
f 256//2 248//2 249//2
f 256//2 249//2 250//2
f 256//2 250//2 251//2
f 256//2 251//2 252//2
f 256//2 252//2 253//2
f 256//2 253//2 254//2
f 256//2 254//2 255//2
f 256//2 255//2 241//2
f 268//2 254//2 253//2
f 268//2 253//2 252//2
f 268//2 252//2 251//2
f 268//2 251//2 250//2
f 268//2 250//2 249//2
f 268//2 249//2 248//2
f 268//2 248//2 247//2
f 268//2 247//2 246//2
f 268//2 246//2 245//2
f 268//2 245//2 244//2
f 268//2 244//2 257//2
f 268//2 257//2 258//2
f 268//2 258//2 259//2
f 268//2 259//2 260//2
f 268//2 260//2 261//2
f 268//2 261//2 262//2
f 268//2 262//2 263//2
f 268//2 263//2 264//2
f 268//2 264//2 265//2
f 268//2 265//2 266//2
f 268//2 266//2 267//2
f 268//2 267//2 254//2
f 279//2 266//2 265//2
f 279//2 265//2 264//2
f 279//2 264//2 263//2
f 279//2 263//2 262//2
f 279//2 262//2 261//2
f 279//2 261//2 260//2
f 279//2 260//2 259//2
f 279//2 259//2 258//2
f 279//2 258//2 257//2
f 279//2 257//2 269//2
f 279//2 269//2 270//2
f 279//2 270//2 271//2
f 279//2 271//2 272//2
f 279//2 272//2 273//2
f 279//2 273//2 274//2
f 279//2 274//2 275//2
f 279//2 275//2 276//2
f 279//2 276//2 277//2
f 279//2 277//2 278//2
f 279//2 278//2 266//2
f 289//2 277//2 276//2
f 289//2 276//2 275//2
f 289//2 275//2 274//2
f 289//2 274//2 273//2
f 289//2 273//2 272//2
f 289//2 272//2 271//2
f 289//2 271//2 270//2
f 289//2 270//2 269//2
f 289//2 269//2 280//2
f 289//2 280//2 281//2
f 289//2 281//2 282//2
f 289//2 282//2 283//2
f 289//2 283//2 284//2
f 289//2 284//2 285//2
f 289//2 285//2 286//2
f 289//2 286//2 287//2
f 289//2 287//2 288//2
f 289//2 288//2 277//2
f 298//2 287//2 286//2
f 298//2 286//2 285//2
f 298//2 285//2 284//2
f 298//2 284//2 283//2
f 298//2 283//2 282//2
f 298//2 282//2 281//2
f 298//2 281//2 280//2
f 298//2 280//2 290//2
f 298//2 290//2 291//2
f 298//2 291//2 292//2
f 298//2 292//2 293//2
f 298//2 293//2 294//2
f 298//2 294//2 295//2
f 298//2 295//2 296//2
f 298//2 296//2 297//2
f 298//2 297//2 287//2
f 306//2 296//2 295//2
f 306//2 295//2 294//2
f 306//2 294//2 293//2
f 306//2 293//2 292//2
f 306//2 292//2 291//2
f 306//2 291//2 290//2
f 306//2 290//2 299//2
f 306//2 299//2 300//2
f 306//2 300//2 301//2
f 306//2 301//2 302//2
f 306//2 302//2 303//2
f 306//2 303//2 304//2
f 306//2 304//2 305//2
f 306//2 305//2 296//2
f 313//2 304//2 303//2
f 313//2 303//2 302//2
f 313//2 302//2 301//2
f 313//2 301//2 300//2
f 313//2 300//2 299//2
f 313//2 299//2 307//2
f 313//2 307//2 308//2
f 313//2 308//2 309//2
f 313//2 309//2 310//2
f 313//2 310//2 311//2
f 313//2 311//2 312//2
f 313//2 312//2 304//2
f 319//2 311//2 310//2
f 319//2 310//2 309//2
f 319//2 309//2 308//2
f 319//2 308//2 307//2
f 319//2 307//2 314//2
f 319//2 314//2 315//2
f 319//2 315//2 316//2
f 319//2 316//2 317//2
f 319//2 317//2 318//2
f 319//2 318//2 311//2
f 324//2 317//2 316//2
f 324//2 316//2 315//2
f 324//2 315//2 314//2
f 324//2 314//2 320//2
f 324//2 320//2 321//2
f 324//2 321//2 322//2
f 324//2 322//2 323//2
f 324//2 323//2 317//2
f 328//2 322//2 321//2
f 328//2 321//2 320//2
f 328//2 320//2 325//2
f 328//2 325//2 326//2
f 328//2 326//2 327//2
f 328//2 327//2 322//2
f 326//2 325//2 329//2
f 326//2 329//2 330//2
f 365//1 331//1 332//1
f 365//1 332//1 333//1
f 365//1 333//1 334//1
f 365//1 334//1 335//1
f 365//1 335//1 336//1
f 365//1 336//1 337//1
f 365//1 337//1 338//1
f 365//1 338//1 339//1
f 365//1 339//1 340//1
f 365//1 340//1 341//1
f 365//1 341//1 342//1
f 365//1 342//1 343//1
f 365//1 343//1 344//1
f 365//1 344//1 345//1
f 365//1 345//1 346//1
f 365//1 346//1 347//1
f 365//1 347//1 348//1
f 365//1 348//1 349//1
f 365//1 349//1 350//1
f 365//1 350//1 351//1
f 365//1 351//1 352//1
f 365//1 352//1 353//1
f 365//1 353//1 354//1
f 365//1 354//1 355//1
f 365//1 355//1 356//1
f 365//1 356//1 357//1
f 365//1 357//1 358//1
f 365//1 358//1 359//1
f 365//1 359//1 360//1
f 365//1 360//1 361//1
f 365//1 361//1 362//1
f 365//1 362//1 363//1
f 365//1 363//1 364//1
f 365//1 364//1 331//1
f 400//2 366//2 367//2
f 400//2 367//2 368//2
f 400//2 368//2 369//2
f 400//2 369//2 370//2
f 400//2 370//2 371//2
f 400//2 371//2 372//2
f 400//2 372//2 373//2
f 400//2 373//2 374//2
f 400//2 374//2 375//2
f 400//2 375//2 376//2
f 400//2 376//2 377//2
f 400//2 377//2 378//2
f 400//2 378//2 379//2
f 400//2 379//2 380//2
f 400//2 380//2 381//2
f 400//2 381//2 382//2
f 400//2 382//2 383//2
f 400//2 383//2 384//2
f 400//2 384//2 385//2
f 400//2 385//2 386//2
f 400//2 386//2 387//2
f 400//2 387//2 388//2
f 400//2 388//2 389//2
f 400//2 389//2 390//2
f 400//2 390//2 391//2
f 400//2 391//2 392//2
f 400//2 392//2 393//2
f 400//2 393//2 394//2
f 400//2 394//2 395//2
f 400//2 395//2 396//2
f 400//2 396//2 397//2
f 400//2 397//2 398//2
f 400//2 398//2 399//2
f 400//2 399//2 366//2
f 405//3 401//3 402//3
f 405//3 402//3 366//3
f 405//3 366//3 399//3
f 405//3 399//3 403//3
f 405//3 403//3 404//3
f 405//3 404//3 331//3
f 405//3 331//3 364//3
f 405//3 364//3 401//3
f 166//3 197//3 1//3
f 166//3 1//3 32//3
f 196//3 213//3 34//3
f 196//3 34//3 2//3
f 212//3 228//3 50//3
f 212//3 50//3 35//3
f 227//3 242//3 65//3
f 227//3 65//3 51//3
f 241//3 255//3 79//3
f 241//3 79//3 66//3
f 254//3 267//3 92//3
f 254//3 92//3 80//3
f 266//3 278//3 104//3
f 266//3 104//3 93//3
f 277//3 288//3 115//3
f 277//3 115//3 105//3
f 287//3 297//3 125//3
f 287//3 125//3 116//3
f 296//3 305//3 134//3
f 296//3 134//3 126//3
f 304//3 312//3 142//3
f 304//3 142//3 135//3
f 311//3 318//3 149//3
f 311//3 149//3 143//3
f 317//3 323//3 155//3
f 317//3 155//3 150//3
f 322//3 327//3 160//3
f 322//3 160//3 156//3
f 326//3 330//3 164//3
f 326//3 164//3 161//3
f 408//4 348//4 347//4
f 408//4 347//4 17//4
f 408//4 17//4 181//4
f 408//4 181//4 383//4
f 408//4 383//4 382//4
f 408//4 382//4 406//4
f 408//4 406//4 407//4
f 408//4 407//4 348//4
f 409//4 17//4 16//4
f 409//4 16//4 48//4
f 409//4 48//4 63//4
f 409//4 63//4 77//4
f 409//4 77//4 90//4
f 409//4 90//4 102//4
f 409//4 102//4 113//4
f 409//4 113//4 123//4
f 409//4 123//4 132//4
f 409//4 132//4 140//4
f 409//4 140//4 147//4
f 409//4 147//4 153//4
f 409//4 153//4 158//4
f 409//4 158//4 162//4
f 409//4 162//4 165//4
f 409//4 165//4 329//4
f 409//4 329//4 325//4
f 409//4 325//4 320//4
f 409//4 320//4 314//4
f 409//4 314//4 307//4
f 409//4 307//4 299//4
f 409//4 299//4 290//4
f 409//4 290//4 280//4
f 409//4 280//4 269//4
f 409//4 269//4 257//4
f 409//4 257//4 244//4
f 409//4 244//4 230//4
f 409//4 230//4 215//4
f 409//4 215//4 199//4
f 409//4 199//4 182//4
f 409//4 182//4 181//4
f 409//4 181//4 17//4
f 410//5 363//5 362//5
f 410//5 362//5 361//5
f 410//5 361//5 360//5
f 410//5 360//5 359//5
f 410//5 359//5 358//5
f 410//5 358//5 357//5
f 410//5 357//5 356//5
f 410//5 356//5 355//5
f 410//5 355//5 354//5
f 410//5 354//5 353//5
f 410//5 353//5 352//5
f 410//5 352//5 351//5
f 410//5 351//5 350//5
f 410//5 350//5 349//5
f 410//5 349//5 348//5
f 410//5 348//5 407//5
f 410//5 407//5 406//5
f 410//5 406//5 382//5
f 410//5 382//5 381//5
f 410//5 381//5 380//5
f 410//5 380//5 379//5
f 410//5 379//5 378//5
f 410//5 378//5 377//5
f 410//5 377//5 376//5
f 410//5 376//5 375//5
f 410//5 375//5 374//5
f 410//5 374//5 373//5
f 410//5 373//5 372//5
f 410//5 372//5 371//5
f 410//5 371//5 370//5
f 410//5 370//5 369//5
f 410//5 369//5 368//5
f 410//5 368//5 367//5
f 410//5 367//5 366//5
f 410//5 366//5 402//5
f 410//5 402//5 401//5
f 410//5 401//5 364//5
f 410//5 364//5 363//5
f 411//6 331//6 404//6
f 411//6 404//6 32//6
f 411//6 32//6 31//6
f 411//6 31//6 30//6
f 411//6 30//6 29//6
f 411//6 29//6 28//6
f 411//6 28//6 27//6
f 411//6 27//6 26//6
f 411//6 26//6 25//6
f 411//6 25//6 24//6
f 411//6 24//6 23//6
f 411//6 23//6 22//6
f 411//6 22//6 21//6
f 411//6 21//6 20//6
f 411//6 20//6 19//6
f 411//6 19//6 18//6
f 411//6 18//6 17//6
f 411//6 17//6 347//6
f 411//6 347//6 346//6
f 411//6 346//6 345//6
f 411//6 345//6 344//6
f 411//6 344//6 343//6
f 411//6 343//6 342//6
f 411//6 342//6 341//6
f 411//6 341//6 340//6
f 411//6 340//6 339//6
f 411//6 339//6 338//6
f 411//6 338//6 337//6
f 411//6 337//6 336//6
f 411//6 336//6 335//6
f 411//6 335//6 334//6
f 411//6 334//6 333//6
f 411//6 333//6 332//6
f 411//6 332//6 331//6
f 412//6 404//6 403//6
f 412//6 403//6 399//6
f 412//6 399//6 398//6
f 412//6 398//6 166//6
f 412//6 166//6 32//6
f 412//6 32//6 404//6
f 413//6 166//6 398//6
f 413//6 398//6 397//6
f 413//6 397//6 396//6
f 413//6 396//6 395//6
f 413//6 395//6 394//6
f 413//6 394//6 393//6
f 413//6 393//6 392//6
f 413//6 392//6 391//6
f 413//6 391//6 390//6
f 413//6 390//6 389//6
f 413//6 389//6 388//6
f 413//6 388//6 387//6
f 413//6 387//6 386//6
f 413//6 386//6 385//6
f 413//6 385//6 384//6
f 413//6 384//6 383//6
f 413//6 383//6 181//6
f 413//6 181//6 180//6
f 413//6 180//6 179//6
f 413//6 179//6 178//6
f 413//6 178//6 177//6
f 413//6 177//6 176//6
f 413//6 176//6 175//6
f 413//6 175//6 174//6
f 413//6 174//6 173//6
f 413//6 173//6 172//6
f 413//6 172//6 171//6
f 413//6 171//6 170//6
f 413//6 170//6 169//6
f 413//6 169//6 168//6
f 413//6 168//6 167//6
f 413//6 167//6 166//6
f 1//6 197//6 196//6
f 1//6 196//6 2//6
f 34//6 213//6 212//6
f 34//6 212//6 35//6
f 50//6 228//6 227//6
f 50//6 227//6 51//6
f 65//6 242//6 241//6
f 65//6 241//6 66//6
f 79//6 255//6 254//6
f 79//6 254//6 80//6
f 92//6 267//6 266//6
f 92//6 266//6 93//6
f 104//6 278//6 277//6
f 104//6 277//6 105//6
f 115//6 288//6 287//6
f 115//6 287//6 116//6
f 125//6 297//6 296//6
f 125//6 296//6 126//6
f 134//6 305//6 304//6
f 134//6 304//6 135//6
f 142//6 312//6 311//6
f 142//6 311//6 143//6
f 149//6 318//6 317//6
f 149//6 317//6 150//6
f 155//6 323//6 322//6
f 155//6 322//6 156//6
f 160//6 327//6 326//6
f 160//6 326//6 161//6
f 164//6 330//6 329//6
f 164//6 329//6 165//6
