# Tessera stair.stoop.1m2
mtllib stair.stoop.1m2.mtl
o stair.stoop.1m2
v 0.000000 0.000000 0.250000
v 0.000000 0.300000 0.250000
v 0.000000 0.600000 0.250000
v 0.000000 0.600000 0.125000
v 0.000000 0.300000 0.125000
v 0.000000 0.000000 0.125000
v 0.000000 0.300000 0.187500
v 0.000000 0.300000 0.500000
v 0.000000 0.600000 0.500000
v 1.200000 0.000000 0.125000
v 1.200000 0.300000 0.125000
v 1.200000 0.600000 0.125000
v 1.200000 0.600000 0.250000
v 1.200000 0.300000 0.250000
v 1.200000 0.000000 0.250000
v 1.200000 0.300000 0.187500
v 1.200000 0.600000 0.500000
v 1.200000 0.300000 0.500000
v -0.050000 0.000000 0.125000
v -0.050000 0.300000 0.125000
v -0.050000 0.600000 0.125000
v -0.050000 0.600000 0.000000
v -0.050000 0.300000 0.000000
v -0.050000 0.000000 0.000000
v -0.050000 0.300000 0.062500
v 1.250000 0.000000 0.000000
v 1.250000 0.300000 0.000000
v 1.250000 0.600000 0.000000
v 1.250000 0.600000 0.125000
v 1.250000 0.300000 0.125000
v 1.250000 0.000000 0.125000
v 1.250000 0.300000 0.062500
v 0.000000 0.000000 0.000000
v 1.200000 0.000000 0.000000
v 0.600000 0.000000 0.062500
v 1.200000 0.600000 0.000000
v 0.000000 0.600000 0.000000
v 0.600000 0.600000 0.062500
v 0.600000 0.600000 0.291667
v 0.600000 0.300000 0.000000
v -0.025000 0.300000 0.125000
v 1.225000 0.300000 0.125000
vn -1.000000 0.000000 0.000000
vn 1.000000 0.000000 0.000000
vn 0.000000 -1.000000 0.000000
vn 0.000000 1.000000 0.000000
vn 0.000000 0.000000 -1.000000
vn 0.000000 0.000000 1.000000
usemtl M_Concrete
f 7//1 1//1 2//1
f 7//1 2//1 3//1
f 7//1 3//1 4//1
f 7//1 4//1 5//1
f 7//1 5//1 6//1
f 7//1 6//1 1//1
f 8//1 9//1 3//1
f 8//1 3//1 2//1
f 16//2 10//2 11//2
f 16//2 11//2 12//2
f 16//2 12//2 13//2
f 16//2 13//2 14//2
f 16//2 14//2 15//2
f 16//2 15//2 10//2
f 14//2 13//2 17//2
f 14//2 17//2 18//2
f 25//1 19//1 20//1
f 25//1 20//1 21//1
f 25//1 21//1 22//1
f 25//1 22//1 23//1
f 25//1 23//1 24//1
f 25//1 24//1 19//1
f 32//2 26//2 27//2
f 32//2 27//2 28//2
f 32//2 28//2 29//2
f 32//2 29//2 30//2
f 32//2 30//2 31//2
f 32//2 31//2 26//2
f 35//3 33//3 34//3
f 35//3 34//3 26//3
f 35//3 26//3 31//3
f 35//3 31//3 10//3
f 35//3 10//3 6//3
f 35//3 6//3 19//3
f 35//3 19//3 24//3
f 35//3 24//3 33//3
f 10//3 15//3 1//3
f 10//3 1//3 6//3
f 14//3 18//3 8//3
f 14//3 8//3 2//3
f 38//4 22//4 21//4
f 38//4 21//4 4//4
f 38//4 4//4 12//4
f 38//4 12//4 29//4
f 38//4 29//4 28//4
f 38//4 28//4 36//4
f 38//4 36//4 37//4
f 38//4 37//4 22//4
f 39//4 4//4 3//4
f 39//4 3//4 9//4
f 39//4 9//4 17//4
f 39//4 17//4 13//4
f 39//4 13//4 12//4
f 39//4 12//4 4//4
f 40//5 23//5 22//5
f 40//5 22//5 37//5
f 40//5 37//5 36//5
f 40//5 36//5 28//5
f 40//5 28//5 27//5
f 40//5 27//5 26//5
f 40//5 26//5 34//5
f 40//5 34//5 33//5
f 40//5 33//5 24//5
f 40//5 24//5 23//5
f 1//6 15//6 14//6
f 1//6 14//6 2//6
f 8//6 18//6 17//6
f 8//6 17//6 9//6
f 41//6 19//6 6//6
f 41//6 6//6 5//6
f 41//6 5//6 4//6
f 41//6 4//6 21//6
f 41//6 21//6 20//6
f 41//6 20//6 19//6
f 42//6 10//6 31//6
f 42//6 31//6 30//6
f 42//6 30//6 29//6
f 42//6 29//6 12//6
f 42//6 12//6 11//6
f 42//6 11//6 10//6
