# Tessera wall.straight.4m
mtllib wall.straight.4m.mtl
o wall.straight.4m
v 0.000000 -0.030000 0.180000
v 0.000000 0.000000 0.180000
v 0.000000 0.040000 0.180000
v 0.000000 0.160000 0.180000
v 0.000000 0.200000 0.180000
v 0.000000 0.230000 0.180000
v 0.000000 0.230000 0.000000
v 0.000000 0.200000 0.000000
v 0.000000 0.160000 0.000000
v 0.000000 0.040000 0.000000
v 0.000000 0.000000 0.000000
v 0.000000 -0.030000 0.000000
v 0.000000 0.100000 0.090000
v 0.000000 0.000000 0.300000
v 0.000000 0.000000 2.750000
v 0.000000 0.000000 3.000000
v 0.000000 0.040000 3.000000
v 0.000000 0.160000 3.000000
v 0.000000 0.200000 3.000000
v 0.000000 0.200000 2.750000
v 0.000000 0.200000 0.300000
v 0.000000 0.100000 1.568333
v 0.250000 0.000000 0.300000
v 0.250000 0.040000 0.300000
v 0.250000 0.040000 2.750000
v 0.250000 0.000000 2.750000
v 0.250000 0.160000 0.300000
v 0.250000 0.200000 0.300000
v 0.250000 0.200000 2.750000
v 0.250000 0.160000 2.750000
v 3.750000 0.000000 2.750000
v 3.750000 0.040000 2.750000
v 3.750000 0.040000 0.300000
v 3.750000 0.000000 0.300000
v 3.750000 0.160000 2.750000
v 3.750000 0.200000 2.750000
v 3.750000 0.200000 0.300000
v 3.750000 0.160000 0.300000
v 4.000000 -0.030000 0.000000
v 4.000000 0.000000 0.000000
v 4.000000 0.040000 0.000000
v 4.000000 0.160000 0.000000
v 4.000000 0.200000 0.000000
v 4.000000 0.230000 0.000000
v 4.000000 0.230000 0.180000
v 4.000000 0.200000 0.180000
v 4.000000 0.160000 0.180000
v 4.000000 0.040000 0.180000
v 4.000000 0.000000 0.180000
v 4.000000 -0.030000 0.180000
v 4.000000 0.100000 0.090000
v 4.000000 0.200000 0.300000
v 4.000000 0.200000 2.750000
v 4.000000 0.200000 3.000000
v 4.000000 0.160000 3.000000
v 4.000000 0.040000 3.000000
v 4.000000 0.000000 3.000000
v 4.000000 0.000000 2.750000
v 4.000000 0.000000 0.300000
v 4.000000 0.100000 1.568333
v 0.250000 0.000000 0.180000
v 3.750000 0.000000 0.180000
v 2.000000 0.000000 0.240000
v 0.250000 0.000000 3.000000
v 0.125000 0.000000 2.016667
v 3.750000 0.000000 3.000000
v 3.875000 0.000000 2.016667
v 3.750000 0.200000 0.180000
v 0.250000 0.200000 0.180000
v 2.000000 0.200000 0.240000
v 0.250000 0.200000 3.000000
v 0.125000 0.200000 2.016667
v 3.750000 0.200000 3.000000
v 3.875000 0.200000 2.016667
v 0.250000 -0.030000 0.000000
v 3.750000 -0.030000 0.000000
v 3.750000 -0.030000 0.180000
v 0.250000 -0.030000 0.180000
v 2.000000 -0.030000 0.090000
v 0.250000 0.230000 0.180000
v 3.750000 0.230000 0.180000
v 3.750000 0.230000 0.000000
v 0.250000 0.230000 0.000000
v 2.000000 0.230000 0.090000
v 2.000000 -0.015000 0.180000
v 2.000000 0.215000 0.180000
v 2.000000 0.100000 3.000000
v 2.000000 0.100000 0.000000
vn -1.000000 0.000000 0.000000
vn 1.000000 0.000000 0.000000
vn 0.000000 -1.000000 0.000000
vn 0.000000 1.000000 0.000000
vn 0.000000 0.000000 1.000000
vn 0.000000 0.000000 -1.000000
usemtl M_Concrete
f 13//1 1//1 2//1
f 13//1 2//1 3//1
f 13//1 3//1 4//1
f 13//1 4//1 5//1
f 13//1 5//1 6//1
f 13//1 6//1 7//1
f 13//1 7//1 8//1
f 13//1 8//1 9//1
f 13//1 9//1 10//1
f 13//1 10//1 11//1
f 13//1 11//1 12//1
f 13//1 12//1 1//1
f 22//1 14//1 15//1
f 22//1 15//1 16//1
f 22//1 16//1 17//1
f 22//1 17//1 18//1
f 22//1 18//1 19//1
f 22//1 19//1 20//1
f 22//1 20//1 21//1
f 22//1 21//1 5//1
f 22//1 5//1 4//1
f 22//1 4//1 3//1
f 22//1 3//1 2//1
f 22//1 2//1 14//1
f 23//2 24//2 25//2
f 23//2 25//2 26//2
f 27//2 28//2 29//2
f 27//2 29//2 30//2
f 31//1 32//1 33//1
f 31//1 33//1 34//1
f 35//1 36//1 37//1
f 35//1 37//1 38//1
f 51//2 39//2 40//2
f 51//2 40//2 41//2
f 51//2 41//2 42//2
f 51//2 42//2 43//2
f 51//2 43//2 44//2
f 51//2 44//2 45//2
f 51//2 45//2 46//2
f 51//2 46//2 47//2
f 51//2 47//2 48//2
f 51//2 48//2 49//2
f 51//2 49//2 50//2
f 51//2 50//2 39//2
f 60//2 49//2 48//2
f 60//2 48//2 47//2
f 60//2 47//2 46//2
f 60//2 46//2 52//2
f 60//2 52//2 53//2
f 60//2 53//2 54//2
f 60//2 54//2 55//2
f 60//2 55//2 56//2
f 60//2 56//2 57//2
f 60//2 57//2 58//2
f 60//2 58//2 59//2
f 60//2 59//2 49//2
f 63//3 61//3 62//3
f 63//3 62//3 49//3
f 63//3 49//3 59//3
f 63//3 59//3 34//3
f 63//3 34//3 23//3
f 63//3 23//3 14//3
f 63//3 14//3 2//3
f 63//3 2//3 61//3
f 65//3 23//3 26//3
f 65//3 26//3 64//3
f 65//3 64//3 16//3
f 65//3 16//3 15//3
f 65//3 15//3 14//3
f 65//3 14//3 23//3
f 67//3 59//3 58//3
f 67//3 58//3 57//3
f 67//3 57//3 66//3
f 67//3 66//3 31//3
f 67//3 31//3 34//3
f 67//3 34//3 59//3
f 31//3 66//3 64//3
f 31//3 64//3 26//3
f 70//4 5//4 21//4
f 70//4 21//4 28//4
f 70//4 28//4 37//4
f 70//4 37//4 52//4
f 70//4 52//4 46//4
f 70//4 46//4 68//4
f 70//4 68//4 69//4
f 70//4 69//4 5//4
f 72//4 21//4 20//4
f 72//4 20//4 19//4
f 72//4 19//4 71//4
f 72//4 71//4 29//4
f 72//4 29//4 28//4
f 72//4 28//4 21//4
f 74//4 37//4 36//4
f 74//4 36//4 73//4
f 74//4 73//4 54//4
f 74//4 54//4 53//4
f 74//4 53//4 52//4
f 74//4 52//4 37//4
f 29//4 71//4 73//4
f 29//4 73//4 36//4
f 33//3 32//3 25//3
f 33//3 25//3 24//3
f 27//4 30//4 35//4
f 27//4 35//4 38//4
f 79//3 75//3 76//3
f 79//3 76//3 39//3
f 79//3 39//3 50//3
f 79//3 50//3 77//3
f 79//3 77//3 78//3
f 79//3 78//3 1//3
f 79//3 1//3 12//3
f 79//3 12//3 75//3
f 84//4 7//4 6//4
f 84//4 6//4 80//4
f 84//4 80//4 81//4
f 84//4 81//4 45//4
f 84//4 45//4 44//4
f 84//4 44//4 82//4
f 84//4 82//4 83//4
f 84//4 83//4 7//4
f 85//5 1//5 78//5
f 85//5 78//5 77//5
f 85//5 77//5 50//5
f 85//5 50//5 49//5
f 85//5 49//5 62//5
f 85//5 62//5 61//5
f 85//5 61//5 2//5
f 85//5 2//5 1//5
f 86//5 5//5 69//5
f 86//5 69//5 68//5
f 86//5 68//5 46//5
f 86//5 46//5 45//5
f 86//5 45//5 81//5
f 86//5 81//5 80//5
f 86//5 80//5 6//5
f 86//5 6//5 5//5
f 87//5 16//5 64//5
f 87//5 64//5 66//5
f 87//5 66//5 57//5
f 87//5 57//5 56//5
f 87//5 56//5 55//5
f 87//5 55//5 54//5
f 87//5 54//5 73//5
f 87//5 73//5 71//5
f 87//5 71//5 19//5
f 87//5 19//5 18//5
f 87//5 18//5 17//5
f 87//5 17//5 16//5
f 23//5 34//5 33//5
f 23//5 33//5 24//5
f 27//5 38//5 37//5
f 27//5 37//5 28//5
f 25//6 32//6 31//6
f 25//6 31//6 26//6
f 29//6 36//6 35//6
f 29//6 35//6 30//6
f 88//6 11//6 10//6
f 88//6 10//6 9//6
f 88//6 9//6 8//6
f 88//6 8//6 7//6
f 88//6 7//6 83//6
f 88//6 83//6 82//6
f 88//6 82//6 44//6
f 88//6 44//6 43//6
f 88//6 43//6 42//6
f 88//6 42//6 41//6
f 88//6 41//6 40//6
f 88//6 40//6 39//6
f 88//6 39//6 76//6
f 88//6 76//6 75//6
f 88//6 75//6 12//6
f 88//6 12//6 11//6
