# Tessera wall.doorway.4m
mtllib wall.doorway.4m.mtl
o wall.doorway.4m
v 0.000000 -0.030000 0.180000
v 0.000000 0.000000 0.180000
v 0.000000 0.040000 0.180000
v 0.000000 0.160000 0.180000
v 0.000000 0.200000 0.180000
v 0.000000 0.230000 0.180000
v 0.000000 0.230000 0.000000
v 0.000000 0.200000 0.000000
v 0.000000 0.160000 0.000000
v 0.000000 0.040000 0.000000
v 0.000000 0.000000 0.000000
v 0.000000 -0.030000 0.000000
v 0.000000 0.100000 0.090000
v 0.000000 0.000000 0.300000
v 0.000000 0.000000 2.200000
v 0.000000 0.000000 2.750000
v 0.000000 0.000000 3.000000
v 0.000000 0.040000 3.000000
v 0.000000 0.160000 3.000000
v 0.000000 0.200000 3.000000
v 0.000000 0.200000 2.750000
v 0.000000 0.200000 2.200000
v 0.000000 0.200000 0.300000
v 0.000000 0.100000 1.658571
v 0.250000 0.000000 0.300000
v 0.250000 0.040000 0.300000
v 0.250000 0.040000 2.200000
v 0.250000 0.040000 2.750000
v 0.250000 0.000000 2.750000
v 0.250000 0.000000 2.200000
v 0.250000 0.020000 1.750000
v 0.250000 0.160000 0.300000
v 0.250000 0.200000 0.300000
v 0.250000 0.200000 2.200000
v 0.250000 0.200000 2.750000
v 0.250000 0.160000 2.750000
v 0.250000 0.160000 2.200000
v 0.250000 0.180000 1.750000
v 1.280000 0.000000 2.200000
v 1.280000 0.000000 2.750000
v 1.280000 0.040000 2.750000
v 1.280000 0.040000 2.200000
v 1.280000 0.040000 0.300000
v 1.280000 0.000000 0.300000
v 1.280000 0.020000 1.750000
v 1.280000 0.160000 2.200000
v 1.280000 0.160000 2.750000
v 1.280000 0.200000 2.750000
v 1.280000 0.200000 2.200000
v 1.280000 0.200000 0.300000
v 1.280000 0.160000 0.300000
v 1.280000 0.180000 1.750000
v 1.400000 -0.030000 0.000000
v 1.400000 0.000000 0.000000
v 1.400000 0.040000 0.000000
v 1.400000 0.160000 0.000000
v 1.400000 0.200000 0.000000
v 1.400000 0.230000 0.000000
v 1.400000 0.230000 0.180000
v 1.400000 0.200000 0.180000
v 1.400000 0.160000 0.180000
v 1.400000 0.040000 0.180000
v 1.400000 0.000000 0.180000
v 1.400000 -0.030000 0.180000
v 1.400000 0.100000 0.090000
v 1.400000 0.200000 0.300000
v 1.400000 0.200000 2.200000
v 1.400000 0.160000 2.200000
v 1.400000 0.040000 2.200000
v 1.400000 0.000000 2.200000
v 1.400000 0.000000 0.300000
v 1.400000 0.100000 1.012000
v 2.600000 -0.030000 0.180000
v 2.600000 0.000000 0.180000
v 2.600000 0.040000 0.180000
v 2.600000 0.160000 0.180000
v 2.600000 0.200000 0.180000
v 2.600000 0.230000 0.180000
v 2.600000 0.230000 0.000000
v 2.600000 0.200000 0.000000
v 2.600000 0.160000 0.000000
v 2.600000 0.040000 0.000000
v 2.600000 0.000000 0.000000
v 2.600000 -0.030000 0.000000
v 2.600000 0.100000 0.090000
v 2.600000 0.000000 0.300000
v 2.600000 0.000000 2.200000
v 2.600000 0.040000 2.200000
v 2.600000 0.160000 2.200000
v 2.600000 0.200000 2.200000
v 2.600000 0.200000 0.300000
v 2.600000 0.100000 1.012000
v 2.720000 0.000000 0.300000
v 2.720000 0.040000 0.300000
v 2.720000 0.040000 2.200000
v 2.720000 0.040000 2.750000
v 2.720000 0.000000 2.750000
v 2.720000 0.000000 2.200000
v 2.720000 0.020000 1.750000
v 2.720000 0.160000 0.300000
v 2.720000 0.200000 0.300000
v 2.720000 0.200000 2.200000
v 2.720000 0.200000 2.750000
v 2.720000 0.160000 2.750000
v 2.720000 0.160000 2.200000
v 2.720000 0.180000 1.750000
v 3.750000 0.000000 2.200000
v 3.750000 0.000000 2.750000
v 3.750000 0.040000 2.750000
v 3.750000 0.040000 2.200000
v 3.750000 0.040000 0.300000
v 3.750000 0.000000 0.300000
v 3.750000 0.020000 1.750000
v 3.750000 0.160000 2.200000
v 3.750000 0.160000 2.750000
v 3.750000 0.200000 2.750000
v 3.750000 0.200000 2.200000
v 3.750000 0.200000 0.300000
v 3.750000 0.160000 0.300000
v 3.750000 0.180000 1.750000
v 4.000000 -0.030000 0.000000
v 4.000000 0.000000 0.000000
v 4.000000 0.040000 0.000000
v 4.000000 0.160000 0.000000
v 4.000000 0.200000 0.000000
v 4.000000 0.230000 0.000000
v 4.000000 0.230000 0.180000
v 4.000000 0.200000 0.180000
v 4.000000 0.160000 0.180000
v 4.000000 0.040000 0.180000
v 4.000000 0.000000 0.180000
v 4.000000 -0.030000 0.180000
v 4.000000 0.100000 0.090000
v 4.000000 0.200000 0.300000
v 4.000000 0.200000 2.200000
v 4.000000 0.200000 2.750000
v 4.000000 0.200000 3.000000
v 4.000000 0.160000 3.000000
v 4.000000 0.040000 3.000000
v 4.000000 0.000000 3.000000
v 4.000000 0.000000 2.750000
v 4.000000 0.000000 2.200000
v 4.000000 0.000000 0.300000
v 4.000000 0.100000 1.658571
v 0.250000 0.000000 0.180000
v 1.280000 0.000000 0.180000
v 0.732500 0.000000 0.240000
v 2.720000 0.000000 0.180000
v 3.750000 0.000000 0.180000
v 3.267500 0.000000 0.240000
v 0.250000 0.000000 3.000000
v 0.125000 0.000000 2.062500
v 1.400000 0.000000 2.750000
v 1.400000 0.000000 3.000000
v 1.280000 0.000000 3.000000
v 1.340000 0.000000 2.062500
v 2.720000 0.000000 3.000000
v 2.600000 0.000000 3.000000
v 2.600000 0.000000 2.750000
v 2.660000 0.000000 2.062500
v 3.750000 0.000000 3.000000
v 3.875000 0.000000 2.062500
v 2.000000 0.000000 2.650000
v 1.280000 0.200000 0.180000
v 0.250000 0.200000 0.180000
v 0.732500 0.200000 0.240000
v 3.750000 0.200000 0.180000
v 2.720000 0.200000 0.180000
v 3.267500 0.200000 0.240000
v 0.250000 0.200000 3.000000
v 0.125000 0.200000 2.062500
v 1.280000 0.200000 3.000000
v 1.400000 0.200000 3.000000
v 1.400000 0.200000 2.750000
v 1.340000 0.200000 2.062500
v 2.600000 0.200000 2.750000
v 2.600000 0.200000 3.000000
v 2.720000 0.200000 3.000000
v 2.660000 0.200000 2.062500
v 3.750000 0.200000 3.000000
v 3.875000 0.200000 2.062500
v 2.000000 0.200000 2.650000
v 0.765000 0.040000 1.750000
v 3.235000 0.040000 1.750000
v 0.765000 0.160000 1.750000
v 3.235000 0.160000 1.750000
v 0.250000 -0.030000 0.000000
v 1.280000 -0.030000 0.000000
v 1.280000 -0.030000 0.180000
v 0.250000 -0.030000 0.180000
v 0.732500 -0.030000 0.090000
v 2.720000 -0.030000 0.000000
v 3.750000 -0.030000 0.000000
v 3.750000 -0.030000 0.180000
v 2.720000 -0.030000 0.180000
v 3.267500 -0.030000 0.090000
v 0.250000 0.230000 0.180000
v 1.280000 0.230000 0.180000
v 1.280000 0.230000 0.000000
v 0.250000 0.230000 0.000000
v 0.732500 0.230000 0.090000
v 2.720000 0.230000 0.180000
v 3.750000 0.230000 0.180000
v 3.750000 0.230000 0.000000
v 2.720000 0.230000 0.000000
v 3.267500 0.230000 0.090000
v 0.732500 -0.015000 0.180000
v 0.732500 0.215000 0.180000
v 3.267500 -0.015000 0.180000
v 3.267500 0.215000 0.180000
v 2.000000 0.100000 3.000000
v 2.000000 0.100000 2.200000
v 0.716250 0.100000 0.000000
v 3.283750 0.100000 0.000000
vn -1.000000 0.000000 0.000000
vn 1.000000 0.000000 0.000000
vn 0.000000 -1.000000 0.000000
vn 0.000000 1.000000 0.000000
vn 0.000000 0.000000 1.000000
vn 0.000000 0.000000 -1.000000
usemtl M_Concrete
f 13//1 1//1 2//1
f 13//1 2//1 3//1
f 13//1 3//1 4//1
f 13//1 4//1 5//1
f 13//1 5//1 6//1
f 13//1 6//1 7//1
f 13//1 7//1 8//1
f 13//1 8//1 9//1
f 13//1 9//1 10//1
f 13//1 10//1 11//1
f 13//1 11//1 12//1
f 13//1 12//1 1//1
f 24//1 14//1 15//1
f 24//1 15//1 16//1
f 24//1 16//1 17//1
f 24//1 17//1 18//1
f 24//1 18//1 19//1
f 24//1 19//1 20//1
f 24//1 20//1 21//1
f 24//1 21//1 22//1
f 24//1 22//1 23//1
f 24//1 23//1 5//1
f 24//1 5//1 4//1
f 24//1 4//1 3//1
f 24//1 3//1 2//1
f 24//1 2//1 14//1
f 31//2 25//2 26//2
f 31//2 26//2 27//2
f 31//2 27//2 28//2
f 31//2 28//2 29//2
f 31//2 29//2 30//2
f 31//2 30//2 25//2
f 38//2 32//2 33//2
f 38//2 33//2 34//2
f 38//2 34//2 35//2
f 38//2 35//2 36//2
f 38//2 36//2 37//2
f 38//2 37//2 32//2
f 45//1 39//1 40//1
f 45//1 40//1 41//1
f 45//1 41//1 42//1
f 45//1 42//1 43//1
f 45//1 43//1 44//1
f 45//1 44//1 39//1
f 52//1 46//1 47//1
f 52//1 47//1 48//1
f 52//1 48//1 49//1
f 52//1 49//1 50//1
f 52//1 50//1 51//1
f 52//1 51//1 46//1
f 65//2 53//2 54//2
f 65//2 54//2 55//2
f 65//2 55//2 56//2
f 65//2 56//2 57//2
f 65//2 57//2 58//2
f 65//2 58//2 59//2
f 65//2 59//2 60//2
f 65//2 60//2 61//2
f 65//2 61//2 62//2
f 65//2 62//2 63//2
f 65//2 63//2 64//2
f 65//2 64//2 53//2
f 72//2 63//2 62//2
f 72//2 62//2 61//2
f 72//2 61//2 60//2
f 72//2 60//2 66//2
f 72//2 66//2 67//2
f 72//2 67//2 68//2
f 72//2 68//2 69//2
f 72//2 69//2 70//2
f 72//2 70//2 71//2
f 72//2 71//2 63//2
f 85//1 73//1 74//1
f 85//1 74//1 75//1
f 85//1 75//1 76//1
f 85//1 76//1 77//1
f 85//1 77//1 78//1
f 85//1 78//1 79//1
f 85//1 79//1 80//1
f 85//1 80//1 81//1
f 85//1 81//1 82//1
f 85//1 82//1 83//1
f 85//1 83//1 84//1
f 85//1 84//1 73//1
f 92//1 86//1 87//1
f 92//1 87//1 88//1
f 92//1 88//1 89//1
f 92//1 89//1 90//1
f 92//1 90//1 91//1
f 92//1 91//1 77//1
f 92//1 77//1 76//1
f 92//1 76//1 75//1
f 92//1 75//1 74//1
f 92//1 74//1 86//1
f 99//2 93//2 94//2
f 99//2 94//2 95//2
f 99//2 95//2 96//2
f 99//2 96//2 97//2
f 99//2 97//2 98//2
f 99//2 98//2 93//2
f 106//2 100//2 101//2
f 106//2 101//2 102//2
f 106//2 102//2 103//2
f 106//2 103//2 104//2
f 106//2 104//2 105//2
f 106//2 105//2 100//2
f 113//1 107//1 108//1
f 113//1 108//1 109//1
f 113//1 109//1 110//1
f 113//1 110//1 111//1
f 113//1 111//1 112//1
f 113//1 112//1 107//1
f 120//1 114//1 115//1
f 120//1 115//1 116//1
f 120//1 116//1 117//1
f 120//1 117//1 118//1
f 120//1 118//1 119//1
f 120//1 119//1 114//1
f 133//2 121//2 122//2
f 133//2 122//2 123//2
f 133//2 123//2 124//2
f 133//2 124//2 125//2
f 133//2 125//2 126//2
f 133//2 126//2 127//2
f 133//2 127//2 128//2
f 133//2 128//2 129//2
f 133//2 129//2 130//2
f 133//2 130//2 131//2
f 133//2 131//2 132//2
f 133//2 132//2 121//2
f 144//2 131//2 130//2
f 144//2 130//2 129//2
f 144//2 129//2 128//2
f 144//2 128//2 134//2
f 144//2 134//2 135//2
f 144//2 135//2 136//2
f 144//2 136//2 137//2
f 144//2 137//2 138//2
f 144//2 138//2 139//2
f 144//2 139//2 140//2
f 144//2 140//2 141//2
f 144//2 141//2 142//2
f 144//2 142//2 143//2
f 144//2 143//2 131//2
f 147//3 145//3 146//3
f 147//3 146//3 63//3
f 147//3 63//3 71//3
f 147//3 71//3 44//3
f 147//3 44//3 25//3
f 147//3 25//3 14//3
f 147//3 14//3 2//3
f 147//3 2//3 145//3
f 150//3 148//3 149//3
f 150//3 149//3 131//3
f 150//3 131//3 143//3
f 150//3 143//3 112//3
f 150//3 112//3 93//3
f 150//3 93//3 86//3
f 150//3 86//3 74//3
f 150//3 74//3 148//3
f 152//3 25//3 30//3
f 152//3 30//3 29//3
f 152//3 29//3 151//3
f 152//3 151//3 17//3
f 152//3 17//3 16//3
f 152//3 16//3 15//3
f 152//3 15//3 14//3
f 152//3 14//3 25//3
f 156//3 71//3 70//3
f 156//3 70//3 153//3
f 156//3 153//3 154//3
f 156//3 154//3 155//3
f 156//3 155//3 40//3
f 156//3 40//3 39//3
f 156//3 39//3 44//3
f 156//3 44//3 71//3
f 160//3 93//3 98//3
f 160//3 98//3 97//3
f 160//3 97//3 157//3
f 160//3 157//3 158//3
f 160//3 158//3 159//3
f 160//3 159//3 87//3
f 160//3 87//3 86//3
f 160//3 86//3 93//3
f 162//3 143//3 142//3
f 162//3 142//3 141//3
f 162//3 141//3 140//3
f 162//3 140//3 161//3
f 162//3 161//3 108//3
f 162//3 108//3 107//3
f 162//3 107//3 112//3
f 162//3 112//3 143//3
f 163//3 87//3 159//3
f 163//3 159//3 158//3
f 163//3 158//3 154//3
f 163//3 154//3 153//3
f 163//3 153//3 70//3
f 163//3 70//3 87//3
f 40//3 155//3 151//3
f 40//3 151//3 29//3
f 108//3 161//3 157//3
f 108//3 157//3 97//3
f 166//4 5//4 23//4
f 166//4 23//4 33//4
f 166//4 33//4 50//4
f 166//4 50//4 66//4
f 166//4 66//4 60//4
f 166//4 60//4 164//4
f 166//4 164//4 165//4
f 166//4 165//4 5//4
f 169//4 77//4 91//4
f 169//4 91//4 101//4
f 169//4 101//4 118//4
f 169//4 118//4 134//4
f 169//4 134//4 128//4
f 169//4 128//4 167//4
f 169//4 167//4 168//4
f 169//4 168//4 77//4
f 171//4 23//4 22//4
f 171//4 22//4 21//4
f 171//4 21//4 20//4
f 171//4 20//4 170//4
f 171//4 170//4 35//4
f 171//4 35//4 34//4
f 171//4 34//4 33//4
f 171//4 33//4 23//4
f 175//4 50//4 49//4
f 175//4 49//4 48//4
f 175//4 48//4 172//4
f 175//4 172//4 173//4
f 175//4 173//4 174//4
f 175//4 174//4 67//4
f 175//4 67//4 66//4
f 175//4 66//4 50//4
f 179//4 91//4 90//4
f 179//4 90//4 176//4
f 179//4 176//4 177//4
f 179//4 177//4 178//4
f 179//4 178//4 103//4
f 179//4 103//4 102//4
f 179//4 102//4 101//4
f 179//4 101//4 91//4
f 181//4 118//4 117//4
f 181//4 117//4 116//4
f 181//4 116//4 180//4
f 181//4 180//4 137//4
f 181//4 137//4 136//4
f 181//4 136//4 135//4
f 181//4 135//4 134//4
f 181//4 134//4 118//4
f 182//4 67//4 174//4
f 182//4 174//4 173//4
f 182//4 173//4 177//4
f 182//4 177//4 176//4
f 182//4 176//4 90//4
f 182//4 90//4 67//4
f 35//4 170//4 172//4
f 35//4 172//4 48//4
f 103//4 178//4 180//4
f 103//4 180//4 116//4
f 183//3 43//3 42//3
f 183//3 42//3 41//3
f 183//3 41//3 28//3
f 183//3 28//3 27//3
f 183//3 27//3 26//3
f 183//3 26//3 43//3
f 184//3 111//3 110//3
f 184//3 110//3 109//3
f 184//3 109//3 96//3
f 184//3 96//3 95//3
f 184//3 95//3 94//3
f 184//3 94//3 111//3
f 185//4 32//4 37//4
f 185//4 37//4 36//4
f 185//4 36//4 47//4
f 185//4 47//4 46//4
f 185//4 46//4 51//4
f 185//4 51//4 32//4
f 186//4 100//4 105//4
f 186//4 105//4 104//4
f 186//4 104//4 115//4
f 186//4 115//4 114//4
f 186//4 114//4 119//4
f 186//4 119//4 100//4
f 191//3 187//3 188//3
f 191//3 188//3 53//3
f 191//3 53//3 64//3
f 191//3 64//3 189//3
f 191//3 189//3 190//3
f 191//3 190//3 1//3
f 191//3 1//3 12//3
f 191//3 12//3 187//3
f 196//3 192//3 193//3
f 196//3 193//3 121//3
f 196//3 121//3 132//3
f 196//3 132//3 194//3
f 196//3 194//3 195//3
f 196//3 195//3 73//3
f 196//3 73//3 84//3
f 196//3 84//3 192//3
f 201//4 7//4 6//4
f 201//4 6//4 197//4
f 201//4 197//4 198//4
f 201//4 198//4 59//4
f 201//4 59//4 58//4
f 201//4 58//4 199//4
f 201//4 199//4 200//4
f 201//4 200//4 7//4
f 206//4 79//4 78//4
f 206//4 78//4 202//4
f 206//4 202//4 203//4
f 206//4 203//4 127//4
f 206//4 127//4 126//4
f 206//4 126//4 204//4
f 206//4 204//4 205//4
f 206//4 205//4 79//4
f 207//5 1//5 190//5
f 207//5 190//5 189//5
f 207//5 189//5 64//5
f 207//5 64//5 63//5
f 207//5 63//5 146//5
f 207//5 146//5 145//5
f 207//5 145//5 2//5
f 207//5 2//5 1//5
f 208//5 5//5 165//5
f 208//5 165//5 164//5
f 208//5 164//5 60//5
f 208//5 60//5 59//5
f 208//5 59//5 198//5
f 208//5 198//5 197//5
f 208//5 197//5 6//5
f 208//5 6//5 5//5
f 209//5 73//5 195//5
f 209//5 195//5 194//5
f 209//5 194//5 132//5
f 209//5 132//5 131//5
f 209//5 131//5 149//5
f 209//5 149//5 148//5
f 209//5 148//5 74//5
f 209//5 74//5 73//5
f 210//5 77//5 168//5
f 210//5 168//5 167//5
f 210//5 167//5 128//5
f 210//5 128//5 127//5
f 210//5 127//5 203//5
f 210//5 203//5 202//5
f 210//5 202//5 78//5
f 210//5 78//5 77//5
f 211//5 17//5 151//5
f 211//5 151//5 155//5
f 211//5 155//5 154//5
f 211//5 154//5 158//5
f 211//5 158//5 157//5
f 211//5 157//5 161//5
f 211//5 161//5 140//5
f 211//5 140//5 139//5
f 211//5 139//5 138//5
f 211//5 138//5 137//5
f 211//5 137//5 180//5
f 211//5 180//5 178//5
f 211//5 178//5 177//5
f 211//5 177//5 173//5
f 211//5 173//5 172//5
f 211//5 172//5 170//5
f 211//5 170//5 20//5
f 211//5 20//5 19//5
f 211//5 19//5 18//5
f 211//5 18//5 17//5
f 212//6 69//6 68//6
f 212//6 68//6 67//6
f 212//6 67//6 90//6
f 212//6 90//6 89//6
f 212//6 89//6 88//6
f 212//6 88//6 87//6
f 212//6 87//6 70//6
f 212//6 70//6 69//6
f 25//5 44//5 43//5
f 25//5 43//5 26//5
f 32//5 51//5 50//5
f 32//5 50//5 33//5
f 93//5 112//5 111//5
f 93//5 111//5 94//5
f 100//5 119//5 118//5
f 100//5 118//5 101//5
f 28//6 41//6 40//6
f 28//6 40//6 29//6
f 35//6 48//6 47//6
f 35//6 47//6 36//6
f 96//6 109//6 108//6
f 96//6 108//6 97//6
f 103//6 116//6 115//6
f 103//6 115//6 104//6
f 213//6 11//6 10//6
f 213//6 10//6 9//6
f 213//6 9//6 8//6
f 213//6 8//6 7//6
f 213//6 7//6 200//6
f 213//6 200//6 199//6
f 213//6 199//6 58//6
f 213//6 58//6 57//6
f 213//6 57//6 56//6
f 213//6 56//6 55//6
f 213//6 55//6 54//6
f 213//6 54//6 53//6
f 213//6 53//6 188//6
f 213//6 188//6 187//6
f 213//6 187//6 12//6
f 213//6 12//6 11//6
f 214//6 83//6 82//6
f 214//6 82//6 81//6
f 214//6 81//6 80//6
f 214//6 80//6 79//6
f 214//6 79//6 205//6
f 214//6 205//6 204//6
f 214//6 204//6 126//6
f 214//6 126//6 125//6
f 214//6 125//6 124//6
f 214//6 124//6 123//6
f 214//6 123//6 122//6
f 214//6 122//6 121//6
f 214//6 121//6 193//6
f 214//6 193//6 192//6
f 214//6 192//6 84//6
f 214//6 84//6 83//6
