# Tessera wall.interior.4m
mtllib wall.interior.4m.mtl
o wall.interior.4m
v 0.000000 0.000000 0.100000
v 0.000000 0.020000 0.100000
v 0.000000 0.180000 0.100000
v 0.000000 0.200000 0.100000
v 0.000000 0.200000 0.000000
v 0.000000 0.180000 0.000000
v 0.000000 0.020000 0.000000
v 0.000000 0.000000 0.000000
v 0.000000 0.100000 0.050000
v 0.000000 0.000000 3.000000
v 0.000000 0.020000 3.000000
v 0.000000 0.180000 3.000000
v 0.000000 0.200000 3.000000
v 0.000000 0.200000 0.120000
v 0.000000 0.180000 0.120000
v 0.000000 0.020000 0.120000
v 0.000000 0.000000 0.120000
v 0.000000 0.100000 1.560000
v 4.000000 0.000000 0.000000
v 4.000000 0.020000 0.000000
v 4.000000 0.180000 0.000000
v 4.000000 0.200000 0.000000
v 4.000000 0.200000 0.100000
v 4.000000 0.180000 0.100000
v 4.000000 0.020000 0.100000
v 4.000000 0.000000 0.100000
v 4.000000 0.100000 0.050000
v 4.000000 0.000000 0.120000
v 4.000000 0.020000 0.120000
v 4.000000 0.180000 0.120000
v 4.000000 0.200000 0.120000
v 4.000000 0.200000 3.000000
v 4.000000 0.180000 3.000000
v 4.000000 0.020000 3.000000
v 4.000000 0.000000 3.000000
v 4.000000 0.100000 1.560000
v 2.000000 0.100000 0.000000
v 2.000000 0.100000 3.000000
vn -1.000000 0.000000 0.000000
vn 1.000000 0.000000 0.000000
vn 0.000000 -1.000000 0.000000
vn 0.000000 1.000000 0.000000
vn 0.000000 0.000000 -1.000000
vn 0.000000 0.000000 1.000000
usemtl M_Plaster
f 9//1 1//1 2//1
f 9//1 2//1 3//1
f 9//1 3//1 4//1
f 9//1 4//1 5//1
f 9//1 5//1 6//1
f 9//1 6//1 7//1
f 9//1 7//1 8//1
f 9//1 8//1 1//1
f 18//1 10//1 11//1
f 18//1 11//1 12//1
f 18//1 12//1 13//1
f 18//1 13//1 14//1
f 18//1 14//1 15//1
f 18//1 15//1 16//1
f 18//1 16//1 17//1
f 18//1 17//1 10//1
f 16//1 15//1 3//1
f 16//1 3//1 2//1
f 27//2 19//2 20//2
f 27//2 20//2 21//2
f 27//2 21//2 22//2
f 27//2 22//2 23//2
f 27//2 23//2 24//2
f 27//2 24//2 25//2
f 27//2 25//2 26//2
f 27//2 26//2 19//2
f 36//2 28//2 29//2
f 36//2 29//2 30//2
f 36//2 30//2 31//2
f 36//2 31//2 32//2
f 36//2 32//2 33//2
f 36//2 33//2 34//2
f 36//2 34//2 35//2
f 36//2 35//2 28//2
f 25//2 24//2 30//2
f 25//2 30//2 29//2
f 25//3 29//3 16//3
f 25//3 16//3 2//3
f 3//4 15//4 30//4
f 3//4 30//4 24//4
f 5//4 4//4 23//4
f 5//4 23//4 22//4
f 14//4 13//4 32//4
f 14//4 32//4 31//4
f 19//3 26//3 1//3
f 19//3 1//3 8//3
f 28//3 35//3 10//3
f 28//3 10//3 17//3
f 37//5 7//5 6//5
f 37//5 6//5 5//5
f 37//5 5//5 22//5
f 37//5 22//5 21//5
f 37//5 21//5 20//5
f 37//5 20//5 19//5
f 37//5 19//5 8//5
f 37//5 8//5 7//5
f 38//6 10//6 35//6
f 38//6 35//6 34//6
f 38//6 34//6 33//6
f 38//6 33//6 32//6
f 38//6 32//6 13//6
f 38//6 13//6 12//6
f 38//6 12//6 11//6
f 38//6 11//6 10//6
f 1//6 26//6 25//6
f 1//6 25//6 2//6
f 3//6 24//6 23//6
f 3//6 23//6 4//6
f 16//5 29//5 28//5
f 16//5 28//5 17//5
f 14//5 31//5 30//5
f 14//5 30//5 15//5
