# Tessera wall.corner.4m
mtllib wall.corner.4m.mtl
o wall.corner.4m
v 0.200000 0.200000 0.180000
v 0.200000 0.230000 0.180000
v 0.200000 4.000000 0.180000
v 0.200000 4.000000 0.300000
v 0.200000 4.000000 2.750000
v 0.200000 4.000000 3.000000
v 0.200000 0.230000 3.000000
v 0.200000 0.200000 3.000000
v 0.200000 0.200000 2.750000
v 0.200000 0.200000 0.300000
v 0.200000 1.726000 1.564000
v 0.450000 0.000000 0.300000
v 0.450000 0.040000 0.300000
v 0.450000 0.040000 2.750000
v 0.450000 0.000000 2.750000
v 0.450000 0.160000 0.300000
v 0.450000 0.200000 0.300000
v 0.450000 0.200000 2.750000
v 0.450000 0.160000 2.750000
v 3.750000 0.000000 2.750000
v 3.750000 0.040000 2.750000
v 3.750000 0.040000 0.300000
v 3.750000 0.000000 0.300000
v 3.750000 0.160000 2.750000
v 3.750000 0.200000 2.750000
v 3.750000 0.200000 0.300000
v 3.750000 0.160000 0.300000
v 4.000000 -0.030000 0.000000
v 4.000000 0.000000 0.000000
v 4.000000 0.040000 0.000000
v 4.000000 0.160000 0.000000
v 4.000000 0.200000 0.000000
v 4.000000 0.230000 0.000000
v 4.000000 0.230000 0.180000
v 4.000000 0.200000 0.180000
v 4.000000 0.160000 0.180000
v 4.000000 0.040000 0.180000
v 4.000000 0.000000 0.180000
v 4.000000 -0.030000 0.180000
v 4.000000 0.100000 0.090000
v 4.000000 0.200000 0.300000
v 4.000000 0.200000 2.750000
v 4.000000 0.200000 3.000000
v 4.000000 0.160000 3.000000
v 4.000000 0.040000 3.000000
v 4.000000 0.000000 3.000000
v 4.000000 0.000000 2.750000
v 4.000000 0.000000 0.300000
v 4.000000 0.100000 1.568333
v 0.000000 -0.030000 0.180000
v 0.000000 0.000000 0.180000
v 0.000000 0.000000 0.000000
v 0.000000 -0.030000 0.000000
v 0.000000 0.000000 0.300000
v 0.000000 0.000000 2.750000
v 0.000000 0.000000 3.000000
v 0.000000 0.040000 3.000000
v 0.000000 0.160000 3.000000
v 0.000000 0.200000 3.000000
v 0.000000 0.230000 3.000000
v 0.000000 4.000000 3.000000
v 0.000000 4.000000 2.750000
v 0.000000 4.000000 0.300000
v 0.000000 4.000000 0.180000
v 0.000000 0.230000 0.180000
v 0.000000 0.200000 0.180000
v 0.000000 0.160000 0.180000
v 0.000000 0.040000 0.180000
v 0.000000 1.078750 1.573750
v 0.230000 0.230000 0.000000
v 0.230000 4.000000 0.000000
v 0.230000 4.000000 0.180000
v 0.230000 0.230000 0.180000
v -0.030000 0.000000 0.180000
v -0.030000 0.040000 0.180000
v -0.030000 0.160000 0.180000
v -0.030000 0.200000 0.180000
v -0.030000 0.230000 0.180000
v -0.030000 4.000000 0.180000
v -0.030000 4.000000 0.000000
v -0.030000 0.230000 0.000000
v -0.030000 0.200000 0.000000
v -0.030000 0.160000 0.000000
v -0.030000 0.040000 0.000000
v -0.030000 0.000000 0.000000
v -0.030000 0.771667 0.090000
v 0.200000 0.000000 0.180000
v 0.230000 0.000000 0.180000
v 0.450000 0.000000 0.180000
v 3.750000 0.000000 0.180000
v 0.230000 0.000000 0.300000
v 0.200000 0.000000 0.300000
v 1.438333 0.000000 0.240000
v 0.450000 0.000000 3.000000
v 0.230000 0.000000 3.000000
v 0.200000 0.000000 3.000000
v 0.221000 0.000000 1.870000
v 3.750000 0.000000 3.000000
v 3.875000 0.000000 2.016667
v 0.230000 0.200000 0.300000
v 3.750000 0.200000 0.180000
v 0.450000 0.200000 0.180000
v 0.230000 0.200000 0.180000
v 1.726000 0.200000 0.240000
v 0.230000 0.200000 3.000000
v 0.450000 0.200000 3.000000
v 0.301250 0.200000 1.925000
v 3.750000 0.200000 3.000000
v 3.875000 0.200000 2.016667
v 0.450000 0.230000 0.180000
v 3.750000 0.230000 0.180000
v 3.750000 0.230000 0.000000
v 0.450000 0.230000 0.000000
v 2.107500 0.230000 0.090000
v 0.200000 4.000000 0.000000
v 0.000000 4.000000 0.000000
v 0.100000 4.000000 0.090000
v 0.100000 4.000000 1.557500
v 0.200000 -0.030000 0.000000
v 0.230000 -0.030000 0.000000
v 0.450000 -0.030000 0.000000
v 3.750000 -0.030000 0.000000
v 3.750000 -0.030000 0.180000
v 0.450000 -0.030000 0.180000
v 0.230000 -0.030000 0.180000
v 0.200000 -0.030000 0.180000
v 1.438333 -0.030000 0.090000
v -0.015000 0.771667 0.180000
v 1.438333 -0.015000 0.180000
v 0.215000 1.476667 0.180000
v 2.107500 0.215000 0.180000
v 0.200000 0.040000 3.000000
v 0.200000 0.160000 3.000000
v 0.100000 0.771667 3.000000
v 1.832857 0.100000 3.000000
v 0.230000 0.200000 0.000000
v 0.230000 0.160000 0.000000
v 0.230000 0.040000 0.000000
v 0.230000 0.000000 0.000000
v 0.200000 0.000000 0.000000
v 0.100000 1.078750 0.000000
v 0.450000 0.000000 0.000000
v 3.750000 0.000000 0.000000
v 1.438333 -0.015000 0.000000
v 2.110714 0.122857 0.000000
vn 1.000000 0.000000 0.000000
vn -1.000000 0.000000 0.000000
vn 0.000000 -1.000000 0.000000
vn 0.000000 1.000000 0.000000
vn 0.000000 0.000000 1.000000
vn 0.000000 0.000000 -1.000000
usemtl M_Concrete
f 11//1 1//1 2//1
f 11//1 2//1 3//1
f 11//1 3//1 4//1
f 11//1 4//1 5//1
f 11//1 5//1 6//1
f 11//1 6//1 7//1
f 11//1 7//1 8//1
f 11//1 8//1 9//1
f 11//1 9//1 10//1
f 11//1 10//1 1//1
f 12//1 13//1 14//1
f 12//1 14//1 15//1
f 16//1 17//1 18//1
f 16//1 18//1 19//1
f 20//2 21//2 22//2
f 20//2 22//2 23//2
f 24//2 25//2 26//2
f 24//2 26//2 27//2
f 40//1 28//1 29//1
f 40//1 29//1 30//1
f 40//1 30//1 31//1
f 40//1 31//1 32//1
f 40//1 32//1 33//1
f 40//1 33//1 34//1
f 40//1 34//1 35//1
f 40//1 35//1 36//1
f 40//1 36//1 37//1
f 40//1 37//1 38//1
f 40//1 38//1 39//1
f 40//1 39//1 28//1
f 49//1 38//1 37//1
f 49//1 37//1 36//1
f 49//1 36//1 35//1
f 49//1 35//1 41//1
f 49//1 41//1 42//1
f 49//1 42//1 43//1
f 49//1 43//1 44//1
f 49//1 44//1 45//1
f 49//1 45//1 46//1
f 49//1 46//1 47//1
f 49//1 47//1 48//1
f 49//1 48//1 38//1
f 50//2 51//2 52//2
f 50//2 52//2 53//2
f 69//2 54//2 55//2
f 69//2 55//2 56//2
f 69//2 56//2 57//2
f 69//2 57//2 58//2
f 69//2 58//2 59//2
f 69//2 59//2 60//2
f 69//2 60//2 61//2
f 69//2 61//2 62//2
f 69//2 62//2 63//2
f 69//2 63//2 64//2
f 69//2 64//2 65//2
f 69//2 65//2 66//2
f 69//2 66//2 67//2
f 69//2 67//2 68//2
f 69//2 68//2 51//2
f 69//2 51//2 54//2
f 70//1 71//1 72//1
f 70//1 72//1 73//1
f 86//2 74//2 75//2
f 86//2 75//2 76//2
f 86//2 76//2 77//2
f 86//2 77//2 78//2
f 86//2 78//2 79//2
f 86//2 79//2 80//2
f 86//2 80//2 81//2
f 86//2 81//2 82//2
f 86//2 82//2 83//2
f 86//2 83//2 84//2
f 86//2 84//2 85//2
f 86//2 85//2 74//2
f 52//3 51//3 74//3
f 52//3 74//3 85//3
f 93//3 87//3 88//3
f 93//3 88//3 89//3
f 93//3 89//3 90//3
f 93//3 90//3 38//3
f 93//3 38//3 48//3
f 93//3 48//3 23//3
f 93//3 23//3 12//3
f 93//3 12//3 91//3
f 93//3 91//3 92//3
f 93//3 92//3 54//3
f 93//3 54//3 51//3
f 93//3 51//3 87//3
f 97//3 92//3 91//3
f 97//3 91//3 12//3
f 97//3 12//3 15//3
f 97//3 15//3 94//3
f 97//3 94//3 95//3
f 97//3 95//3 96//3
f 97//3 96//3 56//3
f 97//3 56//3 55//3
f 97//3 55//3 54//3
f 97//3 54//3 92//3
f 99//3 48//3 47//3
f 99//3 47//3 46//3
f 99//3 46//3 98//3
f 99//3 98//3 20//3
f 99//3 20//3 23//3
f 99//3 23//3 48//3
f 20//3 98//3 94//3
f 20//3 94//3 15//3
f 104//4 1//4 10//4
f 104//4 10//4 100//4
f 104//4 100//4 17//4
f 104//4 17//4 26//4
f 104//4 26//4 41//4
f 104//4 41//4 35//4
f 104//4 35//4 101//4
f 104//4 101//4 102//4
f 104//4 102//4 103//4
f 104//4 103//4 1//4
f 107//4 10//4 9//4
f 107//4 9//4 8//4
f 107//4 8//4 105//4
f 107//4 105//4 106//4
f 107//4 106//4 18//4
f 107//4 18//4 17//4
f 107//4 17//4 100//4
f 107//4 100//4 10//4
f 109//4 26//4 25//4
f 109//4 25//4 108//4
f 109//4 108//4 43//4
f 109//4 43//4 42//4
f 109//4 42//4 41//4
f 109//4 41//4 26//4
f 18//4 106//4 108//4
f 18//4 108//4 25//4
f 22//3 21//3 14//3
f 22//3 14//3 13//3
f 16//4 19//4 24//4
f 16//4 24//4 27//4
f 114//4 70//4 73//4
f 114//4 73//4 110//4
f 114//4 110//4 111//4
f 114//4 111//4 34//4
f 114//4 34//4 33//4
f 114//4 33//4 112//4
f 114//4 112//4 113//4
f 114//4 113//4 70//4
f 117//4 80//4 79//4
f 117//4 79//4 64//4
f 117//4 64//4 3//4
f 117//4 3//4 72//4
f 117//4 72//4 71//4
f 117//4 71//4 115//4
f 117//4 115//4 116//4
f 117//4 116//4 80//4
f 118//4 64//4 63//4
f 118//4 63//4 62//4
f 118//4 62//4 61//4
f 118//4 61//4 6//4
f 118//4 6//4 5//4
f 118//4 5//4 4//4
f 118//4 4//4 3//4
f 118//4 3//4 64//4
f 127//3 119//3 120//3
f 127//3 120//3 121//3
f 127//3 121//3 122//3
f 127//3 122//3 28//3
f 127//3 28//3 39//3
f 127//3 39//3 123//3
f 127//3 123//3 124//3
f 127//3 124//3 125//3
f 127//3 125//3 126//3
f 127//3 126//3 50//3
f 127//3 50//3 53//3
f 127//3 53//3 119//3
f 128//5 74//5 51//5
f 128//5 51//5 68//5
f 128//5 68//5 67//5
f 128//5 67//5 66//5
f 128//5 66//5 65//5
f 128//5 65//5 64//5
f 128//5 64//5 79//5
f 128//5 79//5 78//5
f 128//5 78//5 77//5
f 128//5 77//5 76//5
f 128//5 76//5 75//5
f 128//5 75//5 74//5
f 129//5 50//5 126//5
f 129//5 126//5 125//5
f 129//5 125//5 124//5
f 129//5 124//5 123//5
f 129//5 123//5 39//5
f 129//5 39//5 38//5
f 129//5 38//5 90//5
f 129//5 90//5 89//5
f 129//5 89//5 88//5
f 129//5 88//5 87//5
f 129//5 87//5 51//5
f 129//5 51//5 50//5
f 130//5 1//5 103//5
f 130//5 103//5 73//5
f 130//5 73//5 72//5
f 130//5 72//5 3//5
f 130//5 3//5 2//5
f 130//5 2//5 1//5
f 131//5 103//5 102//5
f 131//5 102//5 101//5
f 131//5 101//5 35//5
f 131//5 35//5 34//5
f 131//5 34//5 111//5
f 131//5 111//5 110//5
f 131//5 110//5 73//5
f 131//5 73//5 103//5
f 134//5 56//5 96//5
f 134//5 96//5 132//5
f 134//5 132//5 133//5
f 134//5 133//5 8//5
f 134//5 8//5 7//5
f 134//5 7//5 6//5
f 134//5 6//5 61//5
f 134//5 61//5 60//5
f 134//5 60//5 59//5
f 134//5 59//5 58//5
f 134//5 58//5 57//5
f 134//5 57//5 56//5
f 135//5 96//5 95//5
f 135//5 95//5 94//5
f 135//5 94//5 98//5
f 135//5 98//5 46//5
f 135//5 46//5 45//5
f 135//5 45//5 44//5
f 135//5 44//5 43//5
f 135//5 43//5 108//5
f 135//5 108//5 106//5
f 135//5 106//5 105//5
f 135//5 105//5 8//5
f 135//5 8//5 133//5
f 135//5 133//5 132//5
f 135//5 132//5 96//5
f 12//5 23//5 22//5
f 12//5 22//5 13//5
f 16//5 27//5 26//5
f 16//5 26//5 17//5
f 14//6 21//6 20//6
f 14//6 20//6 15//6
f 18//6 25//6 24//6
f 18//6 24//6 19//6
f 141//6 84//6 83//6
f 141//6 83//6 82//6
f 141//6 82//6 81//6
f 141//6 81//6 80//6
f 141//6 80//6 116//6
f 141//6 116//6 115//6
f 141//6 115//6 71//6
f 141//6 71//6 70//6
f 141//6 70//6 136//6
f 141//6 136//6 137//6
f 141//6 137//6 138//6
f 141//6 138//6 139//6
f 141//6 139//6 140//6
f 141//6 140//6 52//6
f 141//6 52//6 85//6
f 141//6 85//6 84//6
f 144//6 52//6 140//6
f 144//6 140//6 139//6
f 144//6 139//6 142//6
f 144//6 142//6 143//6
f 144//6 143//6 29//6
f 144//6 29//6 28//6
f 144//6 28//6 122//6
f 144//6 122//6 121//6
f 144//6 121//6 120//6
f 144//6 120//6 119//6
f 144//6 119//6 53//6
f 144//6 53//6 52//6
f 145//6 138//6 137//6
f 145//6 137//6 136//6
f 145//6 136//6 70//6
f 145//6 70//6 113//6
f 145//6 113//6 112//6
f 145//6 112//6 33//6
f 145//6 33//6 32//6
f 145//6 32//6 31//6
f 145//6 31//6 30//6
f 145//6 30//6 29//6
f 145//6 29//6 143//6
f 145//6 143//6 142//6
f 145//6 142//6 139//6
f 145//6 139//6 138//6
