# Tessera wall.interior.corner.4m
mtllib wall.interior.corner.4m.mtl
o wall.interior.corner.4m
v 0.200000 0.000000 0.100000
v 0.200000 0.020000 0.100000
v 0.200000 0.020000 0.120000
v 0.200000 0.000000 0.120000
v 0.200000 0.180000 0.100000
v 0.200000 0.200000 0.100000
v 0.200000 0.200000 0.120000
v 0.200000 0.180000 0.120000
v 0.200000 0.200000 0.000000
v 0.200000 4.000000 0.000000
v 0.200000 4.000000 0.100000
v 0.200000 4.000000 0.120000
v 0.200000 4.000000 3.000000
v 0.200000 0.200000 3.000000
v 4.000000 0.000000 0.000000
v 4.000000 0.020000 0.000000
v 4.000000 0.180000 0.000000
v 4.000000 0.200000 0.000000
v 4.000000 0.200000 0.100000
v 4.000000 0.180000 0.100000
v 4.000000 0.020000 0.100000
v 4.000000 0.000000 0.100000
v 4.000000 0.100000 0.050000
v 4.000000 0.000000 0.120000
v 4.000000 0.020000 0.120000
v 4.000000 0.180000 0.120000
v 4.000000 0.200000 0.120000
v 4.000000 0.200000 3.000000
v 4.000000 0.180000 3.000000
v 4.000000 0.020000 3.000000
v 4.000000 0.000000 3.000000
v 4.000000 0.100000 1.560000
v 0.020000 0.200000 0.120000
v 0.020000 4.000000 0.120000
v 0.020000 4.000000 0.100000
v 0.020000 0.200000 0.100000
v 0.180000 0.200000 0.100000
v 0.180000 4.000000 0.100000
v 0.180000 4.000000 0.120000
v 0.180000 0.200000 0.120000
v 0.000000 0.000000 0.100000
v 0.000000 0.000000 0.120000
v 0.000000 0.000000 3.000000
v 0.000000 0.020000 3.000000
v 0.000000 0.180000 3.000000
v 0.000000 0.200000 3.000000
v 0.000000 0.200000 0.120000
v 0.000000 0.200000 0.100000
v 0.000000 0.200000 0.000000
v 0.000000 0.180000 0.000000
v 0.000000 0.020000 0.000000
v 0.000000 0.000000 0.000000
v 0.000000 0.100000 1.036667
v 0.000000 4.000000 0.100000
v 0.000000 4.000000 0.000000
v 0.000000 4.000000 3.000000
v 0.000000 4.000000 0.120000
v 0.020000 0.000000 0.000000
v 0.180000 0.000000 0.000000
v 0.200000 0.000000 0.000000
v 0.180000 0.000000 0.100000
v 0.020000 0.000000 0.100000
v 0.880000 0.000000 0.050000
v 0.200000 0.000000 3.000000
v 0.180000 0.000000 3.000000
v 0.020000 0.000000 3.000000
v 0.100000 0.000000 1.264000
v 0.180000 4.000000 0.000000
v 0.020000 4.000000 0.000000
v 0.100000 4.000000 0.050000
v 0.020000 4.000000 3.000000
v 0.180000 4.000000 3.000000
v 0.100000 4.000000 1.073333
v 0.200000 0.180000 0.000000
v 0.200000 0.020000 0.000000
v 0.100000 1.200000 0.000000
v 2.100000 0.100000 0.000000
v 0.200000 0.020000 3.000000
v 0.200000 0.180000 3.000000
v 0.100000 1.200000 3.000000
v 2.100000 0.100000 3.000000
vn 1.000000 0.000000 0.000000
vn -1.000000 0.000000 0.000000
vn 0.000000 -1.000000 0.000000
vn 0.000000 1.000000 0.000000
vn 0.000000 0.000000 -1.000000
vn 0.000000 0.000000 1.000000
usemtl M_Plaster
f 1//1 2//1 3//1
f 1//1 3//1 4//1
f 5//1 6//1 7//1
f 5//1 7//1 8//1
f 9//1 10//1 11//1
f 9//1 11//1 6//1
f 7//1 12//1 13//1
f 7//1 13//1 14//1
f 23//1 15//1 16//1
f 23//1 16//1 17//1
f 23//1 17//1 18//1
f 23//1 18//1 19//1
f 23//1 19//1 20//1
f 23//1 20//1 21//1
f 23//1 21//1 22//1
f 23//1 22//1 15//1
f 32//1 24//1 25//1
f 32//1 25//1 26//1
f 32//1 26//1 27//1
f 32//1 27//1 28//1
f 32//1 28//1 29//1
f 32//1 29//1 30//1
f 32//1 30//1 31//1
f 32//1 31//1 24//1
f 21//1 20//1 26//1
f 21//1 26//1 25//1
f 33//2 34//2 35//2
f 33//2 35//2 36//2
f 37//1 38//1 39//1
f 37//1 39//1 40//1
f 53//2 41//2 42//2
f 53//2 42//2 43//2
f 53//2 43//2 44//2
f 53//2 44//2 45//2
f 53//2 45//2 46//2
f 53//2 46//2 47//2
f 53//2 47//2 48//2
f 53//2 48//2 49//2
f 53//2 49//2 50//2
f 53//2 50//2 51//2
f 53//2 51//2 52//2
f 53//2 52//2 41//2
f 48//2 54//2 55//2
f 48//2 55//2 49//2
f 46//2 56//2 57//2
f 46//2 57//2 47//2
f 21//3 25//3 3//3
f 21//3 3//3 2//3
f 5//4 8//4 26//4
f 5//4 26//4 20//4
f 9//4 6//4 19//4
f 9//4 19//4 18//4
f 48//4 47//4 33//4
f 48//4 33//4 36//4
f 37//4 40//4 7//4
f 37//4 7//4 6//4
f 7//4 14//4 28//4
f 7//4 28//4 27//4
f 63//3 58//3 59//3
f 63//3 59//3 60//3
f 63//3 60//3 15//3
f 63//3 15//3 22//3
f 63//3 22//3 1//3
f 63//3 1//3 61//3
f 63//3 61//3 62//3
f 63//3 62//3 41//3
f 63//3 41//3 52//3
f 63//3 52//3 58//3
f 67//3 62//3 61//3
f 67//3 61//3 1//3
f 67//3 1//3 4//3
f 67//3 4//3 64//3
f 67//3 64//3 65//3
f 67//3 65//3 66//3
f 67//3 66//3 43//3
f 67//3 43//3 42//3
f 67//3 42//3 41//3
f 67//3 41//3 62//3
f 24//3 31//3 64//3
f 24//3 64//3 4//3
f 70//4 55//4 54//4
f 70//4 54//4 35//4
f 70//4 35//4 38//4
f 70//4 38//4 11//4
f 70//4 11//4 10//4
f 70//4 10//4 68//4
f 70//4 68//4 69//4
f 70//4 69//4 55//4
f 73//4 35//4 34//4
f 73//4 34//4 71//4
f 73//4 71//4 72//4
f 73//4 72//4 39//4
f 73//4 39//4 38//4
f 73//4 38//4 35//4
f 57//4 56//4 71//4
f 57//4 71//4 34//4
f 39//4 72//4 13//4
f 39//4 13//4 12//4
f 76//5 51//5 50//5
f 76//5 50//5 49//5
f 76//5 49//5 55//5
f 76//5 55//5 69//5
f 76//5 69//5 68//5
f 76//5 68//5 10//5
f 76//5 10//5 9//5
f 76//5 9//5 74//5
f 76//5 74//5 75//5
f 76//5 75//5 60//5
f 76//5 60//5 59//5
f 76//5 59//5 58//5
f 76//5 58//5 52//5
f 76//5 52//5 51//5
f 77//5 75//5 74//5
f 77//5 74//5 9//5
f 77//5 9//5 18//5
f 77//5 18//5 17//5
f 77//5 17//5 16//5
f 77//5 16//5 15//5
f 77//5 15//5 60//5
f 77//5 60//5 75//5
f 80//6 43//6 66//6
f 80//6 66//6 65//6
f 80//6 65//6 64//6
f 80//6 64//6 78//6
f 80//6 78//6 79//6
f 80//6 79//6 14//6
f 80//6 14//6 13//6
f 80//6 13//6 72//6
f 80//6 72//6 71//6
f 80//6 71//6 56//6
f 80//6 56//6 46//6
f 80//6 46//6 45//6
f 80//6 45//6 44//6
f 80//6 44//6 43//6
f 81//6 64//6 31//6
f 81//6 31//6 30//6
f 81//6 30//6 29//6
f 81//6 29//6 28//6
f 81//6 28//6 14//6
f 81//6 14//6 79//6
f 81//6 79//6 78//6
f 81//6 78//6 64//6
f 48//6 36//6 35//6
f 48//6 35//6 54//6
f 37//6 6//6 11//6
f 37//6 11//6 38//6
f 1//6 22//6 21//6
f 1//6 21//6 2//6
f 5//6 20//6 19//6
f 5//6 19//6 6//6
f 57//5 34//5 33//5
f 57//5 33//5 47//5
f 39//5 12//5 7//5
f 39//5 7//5 40//5
f 3//5 25//5 24//5
f 3//5 24//5 4//5
f 7//5 27//5 26//5
f 7//5 26//5 8//5
