# Tessera wall.window.4m
mtllib wall.window.4m.mtl
o wall.window.4m
v 0.000000 -0.030000 0.180000
v 0.000000 0.000000 0.180000
v 0.000000 0.040000 0.180000
v 0.000000 0.160000 0.180000
v 0.000000 0.200000 0.180000
v 0.000000 0.230000 0.180000
v 0.000000 0.230000 0.000000
v 0.000000 0.200000 0.000000
v 0.000000 0.160000 0.000000
v 0.000000 0.040000 0.000000
v 0.000000 0.000000 0.000000
v 0.000000 -0.030000 0.000000
v 0.000000 0.100000 0.090000
v 0.000000 0.000000 0.300000
v 0.000000 0.000000 1.000000
v 0.000000 0.000000 2.200000
v 0.000000 0.000000 2.750000
v 0.000000 0.000000 3.000000
v 0.000000 0.040000 3.000000
v 0.000000 0.160000 3.000000
v 0.000000 0.200000 3.000000
v 0.000000 0.200000 2.750000
v 0.000000 0.200000 2.200000
v 0.000000 0.200000 1.000000
v 0.000000 0.200000 0.300000
v 0.000000 0.100000 1.576250
v 0.250000 0.000000 0.300000
v 0.250000 0.040000 0.300000
v 0.250000 0.040000 1.000000
v 0.250000 0.040000 2.200000
v 0.250000 0.040000 2.750000
v 0.250000 0.000000 2.750000
v 0.250000 0.000000 2.200000
v 0.250000 0.000000 1.000000
v 0.250000 0.020000 1.562500
v 0.250000 0.160000 0.300000
v 0.250000 0.200000 0.300000
v 0.250000 0.200000 1.000000
v 0.250000 0.200000 2.200000
v 0.250000 0.200000 2.750000
v 0.250000 0.160000 2.750000
v 0.250000 0.160000 2.200000
v 0.250000 0.160000 1.000000
v 0.250000 0.180000 1.562500
v 0.980000 0.000000 1.000000
v 0.980000 0.000000 2.200000
v 0.980000 0.000000 2.750000
v 0.980000 0.040000 2.750000
v 0.980000 0.040000 2.200000
v 0.980000 0.040000 1.000000
v 0.980000 0.040000 0.300000
v 0.980000 0.000000 0.300000
v 0.980000 0.020000 1.562500
v 0.980000 0.160000 1.000000
v 0.980000 0.160000 2.200000
v 0.980000 0.160000 2.750000
v 0.980000 0.200000 2.750000
v 0.980000 0.200000 2.200000
v 0.980000 0.200000 1.000000
v 0.980000 0.200000 0.300000
v 0.980000 0.160000 0.300000
v 0.980000 0.180000 1.562500
v 1.100000 0.000000 1.000000
v 1.100000 0.040000 1.000000
v 1.100000 0.160000 1.000000
v 1.100000 0.200000 1.000000
v 1.100000 0.200000 2.200000
v 1.100000 0.160000 2.200000
v 1.100000 0.040000 2.200000
v 1.100000 0.000000 2.200000
v 1.100000 0.100000 1.600000
v 2.900000 0.000000 2.200000
v 2.900000 0.040000 2.200000
v 2.900000 0.160000 2.200000
v 2.900000 0.200000 2.200000
v 2.900000 0.200000 1.000000
v 2.900000 0.160000 1.000000
v 2.900000 0.040000 1.000000
v 2.900000 0.000000 1.000000
v 2.900000 0.100000 1.600000
v 3.020000 0.000000 0.300000
v 3.020000 0.040000 0.300000
v 3.020000 0.040000 1.000000
v 3.020000 0.040000 2.200000
v 3.020000 0.040000 2.750000
v 3.020000 0.000000 2.750000
v 3.020000 0.000000 2.200000
v 3.020000 0.000000 1.000000
v 3.020000 0.020000 1.562500
v 3.020000 0.160000 0.300000
v 3.020000 0.200000 0.300000
v 3.020000 0.200000 1.000000
v 3.020000 0.200000 2.200000
v 3.020000 0.200000 2.750000
v 3.020000 0.160000 2.750000
v 3.020000 0.160000 2.200000
v 3.020000 0.160000 1.000000
v 3.020000 0.180000 1.562500
v 3.750000 0.000000 1.000000
v 3.750000 0.000000 2.200000
v 3.750000 0.000000 2.750000
v 3.750000 0.040000 2.750000
v 3.750000 0.040000 2.200000
v 3.750000 0.040000 1.000000
v 3.750000 0.040000 0.300000
v 3.750000 0.000000 0.300000
v 3.750000 0.020000 1.562500
v 3.750000 0.160000 1.000000
v 3.750000 0.160000 2.200000
v 3.750000 0.160000 2.750000
v 3.750000 0.200000 2.750000
v 3.750000 0.200000 2.200000
v 3.750000 0.200000 1.000000
v 3.750000 0.200000 0.300000
v 3.750000 0.160000 0.300000
v 3.750000 0.180000 1.562500
v 4.000000 -0.030000 0.000000
v 4.000000 0.000000 0.000000
v 4.000000 0.040000 0.000000
v 4.000000 0.160000 0.000000
v 4.000000 0.200000 0.000000
v 4.000000 0.230000 0.000000
v 4.000000 0.230000 0.180000
v 4.000000 0.200000 0.180000
v 4.000000 0.160000 0.180000
v 4.000000 0.040000 0.180000
v 4.000000 0.000000 0.180000
v 4.000000 -0.030000 0.180000
v 4.000000 0.100000 0.090000
v 4.000000 0.200000 0.300000
v 4.000000 0.200000 1.000000
v 4.000000 0.200000 2.200000
v 4.000000 0.200000 2.750000
v 4.000000 0.200000 3.000000
v 4.000000 0.160000 3.000000
v 4.000000 0.040000 3.000000
v 4.000000 0.000000 3.000000
v 4.000000 0.000000 2.750000
v 4.000000 0.000000 2.200000
v 4.000000 0.000000 1.000000
v 4.000000 0.000000 0.300000
v 4.000000 0.100000 1.576250
v 0.250000 0.000000 0.180000
v 0.980000 0.000000 0.180000
v 1.100000 0.000000 0.180000
v 2.900000 0.000000 0.180000
v 3.020000 0.000000 0.180000
v 3.750000 0.000000 0.180000
v 2.900000 0.000000 0.300000
v 1.100000 0.000000 0.300000
v 2.000000 0.000000 0.240000
v 0.250000 0.000000 3.000000
v 0.125000 0.000000 1.850000
v 2.000000 0.000000 0.650000
v 3.750000 0.000000 3.000000
v 3.875000 0.000000 1.850000
v 1.100000 0.000000 2.750000
v 1.100000 0.000000 3.000000
v 0.980000 0.000000 3.000000
v 1.040000 0.000000 2.237500
v 3.020000 0.000000 3.000000
v 2.900000 0.000000 3.000000
v 2.900000 0.000000 2.750000
v 2.960000 0.000000 2.237500
v 2.000000 0.000000 2.650000
v 1.100000 0.200000 0.300000
v 2.900000 0.200000 0.300000
v 3.750000 0.200000 0.180000
v 3.020000 0.200000 0.180000
v 2.900000 0.200000 0.180000
v 1.100000 0.200000 0.180000
v 0.980000 0.200000 0.180000
v 0.250000 0.200000 0.180000
v 2.000000 0.200000 0.240000
v 0.250000 0.200000 3.000000
v 0.125000 0.200000 1.850000
v 2.000000 0.200000 0.650000
v 3.750000 0.200000 3.000000
v 3.875000 0.200000 1.850000
v 0.980000 0.200000 3.000000
v 1.100000 0.200000 3.000000
v 1.100000 0.200000 2.750000
v 1.040000 0.200000 2.237500
v 2.900000 0.200000 2.750000
v 2.900000 0.200000 3.000000
v 3.020000 0.200000 3.000000
v 2.960000 0.200000 2.237500
v 2.000000 0.200000 2.650000
v 0.615000 0.040000 1.562500
v 3.385000 0.040000 1.562500
v 0.615000 0.160000 1.562500
v 3.385000 0.160000 1.562500
v 0.250000 -0.030000 0.000000
v 0.980000 -0.030000 0.000000
v 1.100000 -0.030000 0.000000
v 2.900000 -0.030000 0.000000
v 3.020000 -0.030000 0.000000
v 3.750000 -0.030000 0.000000
v 3.750000 -0.030000 0.180000
v 3.020000 -0.030000 0.180000
v 2.900000 -0.030000 0.180000
v 1.100000 -0.030000 0.180000
v 0.980000 -0.030000 0.180000
v 0.250000 -0.030000 0.180000
v 2.000000 -0.030000 0.090000
v 0.250000 0.230000 0.180000
v 0.980000 0.230000 0.180000
v 1.100000 0.230000 0.180000
v 2.900000 0.230000 0.180000
v 3.020000 0.230000 0.180000
v 3.750000 0.230000 0.180000
v 3.750000 0.230000 0.000000
v 3.020000 0.230000 0.000000
v 2.900000 0.230000 0.000000
v 1.100000 0.230000 0.000000
v 0.980000 0.230000 0.000000
v 0.250000 0.230000 0.000000
v 2.000000 0.230000 0.090000
v 2.000000 -0.015000 0.180000
v 2.000000 0.215000 0.180000
v 2.000000 0.100000 3.000000
v 2.000000 0.100000 1.000000
v 2.000000 0.100000 2.200000
v 2.000000 0.100000 0.000000
vn -1.000000 0.000000 0.000000
vn 1.000000 0.000000 0.000000
vn 0.000000 -1.000000 0.000000
vn 0.000000 1.000000 0.000000
vn 0.000000 0.000000 1.000000
vn 0.000000 0.000000 -1.000000
usemtl M_Concrete
f 13//1 1//1 2//1
f 13//1 2//1 3//1
f 13//1 3//1 4//1
f 13//1 4//1 5//1
f 13//1 5//1 6//1
f 13//1 6//1 7//1
f 13//1 7//1 8//1
f 13//1 8//1 9//1
f 13//1 9//1 10//1
f 13//1 10//1 11//1
f 13//1 11//1 12//1
f 13//1 12//1 1//1
f 26//1 14//1 15//1
f 26//1 15//1 16//1
f 26//1 16//1 17//1
f 26//1 17//1 18//1
f 26//1 18//1 19//1
f 26//1 19//1 20//1
f 26//1 20//1 21//1
f 26//1 21//1 22//1
f 26//1 22//1 23//1
f 26//1 23//1 24//1
f 26//1 24//1 25//1
f 26//1 25//1 5//1
f 26//1 5//1 4//1
f 26//1 4//1 3//1
f 26//1 3//1 2//1
f 26//1 2//1 14//1
f 35//2 27//2 28//2
f 35//2 28//2 29//2
f 35//2 29//2 30//2
f 35//2 30//2 31//2
f 35//2 31//2 32//2
f 35//2 32//2 33//2
f 35//2 33//2 34//2
f 35//2 34//2 27//2
f 44//2 36//2 37//2
f 44//2 37//2 38//2
f 44//2 38//2 39//2
f 44//2 39//2 40//2
f 44//2 40//2 41//2
f 44//2 41//2 42//2
f 44//2 42//2 43//2
f 44//2 43//2 36//2
f 53//1 45//1 46//1
f 53//1 46//1 47//1
f 53//1 47//1 48//1
f 53//1 48//1 49//1
f 53//1 49//1 50//1
f 53//1 50//1 51//1
f 53//1 51//1 52//1
f 53//1 52//1 45//1
f 62//1 54//1 55//1
f 62//1 55//1 56//1
f 62//1 56//1 57//1
f 62//1 57//1 58//1
f 62//1 58//1 59//1
f 62//1 59//1 60//1
f 62//1 60//1 61//1
f 62//1 61//1 54//1
f 71//2 63//2 64//2
f 71//2 64//2 65//2
f 71//2 65//2 66//2
f 71//2 66//2 67//2
f 71//2 67//2 68//2
f 71//2 68//2 69//2
f 71//2 69//2 70//2
f 71//2 70//2 63//2
f 80//1 72//1 73//1
f 80//1 73//1 74//1
f 80//1 74//1 75//1
f 80//1 75//1 76//1
f 80//1 76//1 77//1
f 80//1 77//1 78//1
f 80//1 78//1 79//1
f 80//1 79//1 72//1
f 89//2 81//2 82//2
f 89//2 82//2 83//2
f 89//2 83//2 84//2
f 89//2 84//2 85//2
f 89//2 85//2 86//2
f 89//2 86//2 87//2
f 89//2 87//2 88//2
f 89//2 88//2 81//2
f 98//2 90//2 91//2
f 98//2 91//2 92//2
f 98//2 92//2 93//2
f 98//2 93//2 94//2
f 98//2 94//2 95//2
f 98//2 95//2 96//2
f 98//2 96//2 97//2
f 98//2 97//2 90//2
f 107//1 99//1 100//1
f 107//1 100//1 101//1
f 107//1 101//1 102//1
f 107//1 102//1 103//1
f 107//1 103//1 104//1
f 107//1 104//1 105//1
f 107//1 105//1 106//1
f 107//1 106//1 99//1
f 116//1 108//1 109//1
f 116//1 109//1 110//1
f 116//1 110//1 111//1
f 116//1 111//1 112//1
f 116//1 112//1 113//1
f 116//1 113//1 114//1
f 116//1 114//1 115//1
f 116//1 115//1 108//1
f 129//2 117//2 118//2
f 129//2 118//2 119//2
f 129//2 119//2 120//2
f 129//2 120//2 121//2
f 129//2 121//2 122//2
f 129//2 122//2 123//2
f 129//2 123//2 124//2
f 129//2 124//2 125//2
f 129//2 125//2 126//2
f 129//2 126//2 127//2
f 129//2 127//2 128//2
f 129//2 128//2 117//2
f 142//2 127//2 126//2
f 142//2 126//2 125//2
f 142//2 125//2 124//2
f 142//2 124//2 130//2
f 142//2 130//2 131//2
f 142//2 131//2 132//2
f 142//2 132//2 133//2
f 142//2 133//2 134//2
f 142//2 134//2 135//2
f 142//2 135//2 136//2
f 142//2 136//2 137//2
f 142//2 137//2 138//2
f 142//2 138//2 139//2
f 142//2 139//2 140//2
f 142//2 140//2 141//2
f 142//2 141//2 127//2
f 151//3 143//3 144//3
f 151//3 144//3 145//3
f 151//3 145//3 146//3
f 151//3 146//3 147//3
f 151//3 147//3 148//3
f 151//3 148//3 127//3
f 151//3 127//3 141//3
f 151//3 141//3 106//3
f 151//3 106//3 81//3
f 151//3 81//3 149//3
f 151//3 149//3 150//3
f 151//3 150//3 52//3
f 151//3 52//3 27//3
f 151//3 27//3 14//3
f 151//3 14//3 2//3
f 151//3 2//3 143//3
f 153//3 27//3 34//3
f 153//3 34//3 33//3
f 153//3 33//3 32//3
f 153//3 32//3 152//3
f 153//3 152//3 18//3
f 153//3 18//3 17//3
f 153//3 17//3 16//3
f 153//3 16//3 15//3
f 153//3 15//3 14//3
f 153//3 14//3 27//3
f 154//3 150//3 149//3
f 154//3 149//3 81//3
f 154//3 81//3 88//3
f 154//3 88//3 79//3
f 154//3 79//3 63//3
f 154//3 63//3 45//3
f 154//3 45//3 52//3
f 154//3 52//3 150//3
f 156//3 141//3 140//3
f 156//3 140//3 139//3
f 156//3 139//3 138//3
f 156//3 138//3 137//3
f 156//3 137//3 155//3
f 156//3 155//3 101//3
f 156//3 101//3 100//3
f 156//3 100//3 99//3
f 156//3 99//3 106//3
f 156//3 106//3 141//3
f 160//3 63//3 70//3
f 160//3 70//3 157//3
f 160//3 157//3 158//3
f 160//3 158//3 159//3
f 160//3 159//3 47//3
f 160//3 47//3 46//3
f 160//3 46//3 45//3
f 160//3 45//3 63//3
f 164//3 88//3 87//3
f 164//3 87//3 86//3
f 164//3 86//3 161//3
f 164//3 161//3 162//3
f 164//3 162//3 163//3
f 164//3 163//3 72//3
f 164//3 72//3 79//3
f 164//3 79//3 88//3
f 165//3 72//3 163//3
f 165//3 163//3 162//3
f 165//3 162//3 158//3
f 165//3 158//3 157//3
f 165//3 157//3 70//3
f 165//3 70//3 72//3
f 47//3 159//3 152//3
f 47//3 152//3 32//3
f 101//3 155//3 161//3
f 101//3 161//3 86//3
f 174//4 5//4 25//4
f 174//4 25//4 37//4
f 174//4 37//4 60//4
f 174//4 60//4 166//4
f 174//4 166//4 167//4
f 174//4 167//4 91//4
f 174//4 91//4 114//4
f 174//4 114//4 130//4
f 174//4 130//4 124//4
f 174//4 124//4 168//4
f 174//4 168//4 169//4
f 174//4 169//4 170//4
f 174//4 170//4 171//4
f 174//4 171//4 172//4
f 174//4 172//4 173//4
f 174//4 173//4 5//4
f 176//4 25//4 24//4
f 176//4 24//4 23//4
f 176//4 23//4 22//4
f 176//4 22//4 21//4
f 176//4 21//4 175//4
f 176//4 175//4 40//4
f 176//4 40//4 39//4
f 176//4 39//4 38//4
f 176//4 38//4 37//4
f 176//4 37//4 25//4
f 177//4 60//4 59//4
f 177//4 59//4 66//4
f 177//4 66//4 76//4
f 177//4 76//4 92//4
f 177//4 92//4 91//4
f 177//4 91//4 167//4
f 177//4 167//4 166//4
f 177//4 166//4 60//4
f 179//4 114//4 113//4
f 179//4 113//4 112//4
f 179//4 112//4 111//4
f 179//4 111//4 178//4
f 179//4 178//4 134//4
f 179//4 134//4 133//4
f 179//4 133//4 132//4
f 179//4 132//4 131//4
f 179//4 131//4 130//4
f 179//4 130//4 114//4
f 183//4 59//4 58//4
f 183//4 58//4 57//4
f 183//4 57//4 180//4
f 183//4 180//4 181//4
f 183//4 181//4 182//4
f 183//4 182//4 67//4
f 183//4 67//4 66//4
f 183//4 66//4 59//4
f 187//4 76//4 75//4
f 187//4 75//4 184//4
f 187//4 184//4 185//4
f 187//4 185//4 186//4
f 187//4 186//4 94//4
f 187//4 94//4 93//4
f 187//4 93//4 92//4
f 187//4 92//4 76//4
f 188//4 67//4 182//4
f 188//4 182//4 181//4
f 188//4 181//4 185//4
f 188//4 185//4 184//4
f 188//4 184//4 75//4
f 188//4 75//4 67//4
f 40//4 175//4 180//4
f 40//4 180//4 57//4
f 94//4 186//4 178//4
f 94//4 178//4 111//4
f 189//3 51//3 50//3
f 189//3 50//3 49//3
f 189//3 49//3 48//3
f 189//3 48//3 31//3
f 189//3 31//3 30//3
f 189//3 30//3 29//3
f 189//3 29//3 28//3
f 189//3 28//3 51//3
f 190//3 105//3 104//3
f 190//3 104//3 103//3
f 190//3 103//3 102//3
f 190//3 102//3 85//3
f 190//3 85//3 84//3
f 190//3 84//3 83//3
f 190//3 83//3 82//3
f 190//3 82//3 105//3
f 191//4 36//4 43//4
f 191//4 43//4 42//4
f 191//4 42//4 41//4
f 191//4 41//4 56//4
f 191//4 56//4 55//4
f 191//4 55//4 54//4
f 191//4 54//4 61//4
f 191//4 61//4 36//4
f 192//4 90//4 97//4
f 192//4 97//4 96//4
f 192//4 96//4 95//4
f 192//4 95//4 110//4
f 192//4 110//4 109//4
f 192//4 109//4 108//4
f 192//4 108//4 115//4
f 192//4 115//4 90//4
f 205//3 193//3 194//3
f 205//3 194//3 195//3
f 205//3 195//3 196//3
f 205//3 196//3 197//3
f 205//3 197//3 198//3
f 205//3 198//3 117//3
f 205//3 117//3 128//3
f 205//3 128//3 199//3
f 205//3 199//3 200//3
f 205//3 200//3 201//3
f 205//3 201//3 202//3
f 205//3 202//3 203//3
f 205//3 203//3 204//3
f 205//3 204//3 1//3
f 205//3 1//3 12//3
f 205//3 12//3 193//3
f 218//4 7//4 6//4
f 218//4 6//4 206//4
f 218//4 206//4 207//4
f 218//4 207//4 208//4
f 218//4 208//4 209//4
f 218//4 209//4 210//4
f 218//4 210//4 211//4
f 218//4 211//4 123//4
f 218//4 123//4 122//4
f 218//4 122//4 212//4
f 218//4 212//4 213//4
f 218//4 213//4 214//4
f 218//4 214//4 215//4
f 218//4 215//4 216//4
f 218//4 216//4 217//4
f 218//4 217//4 7//4
f 219//5 1//5 204//5
f 219//5 204//5 203//5
f 219//5 203//5 202//5
f 219//5 202//5 201//5
f 219//5 201//5 200//5
f 219//5 200//5 199//5
f 219//5 199//5 128//5
f 219//5 128//5 127//5
f 219//5 127//5 148//5
f 219//5 148//5 147//5
f 219//5 147//5 146//5
f 219//5 146//5 145//5
f 219//5 145//5 144//5
f 219//5 144//5 143//5
f 219//5 143//5 2//5
f 219//5 2//5 1//5
f 220//5 5//5 173//5
f 220//5 173//5 172//5
f 220//5 172//5 171//5
f 220//5 171//5 170//5
f 220//5 170//5 169//5
f 220//5 169//5 168//5
f 220//5 168//5 124//5
f 220//5 124//5 123//5
f 220//5 123//5 211//5
f 220//5 211//5 210//5
f 220//5 210//5 209//5
f 220//5 209//5 208//5
f 220//5 208//5 207//5
f 220//5 207//5 206//5
f 220//5 206//5 6//5
f 220//5 6//5 5//5
f 221//5 18//5 152//5
f 221//5 152//5 159//5
f 221//5 159//5 158//5
f 221//5 158//5 162//5
f 221//5 162//5 161//5
f 221//5 161//5 155//5
f 221//5 155//5 137//5
f 221//5 137//5 136//5
f 221//5 136//5 135//5
f 221//5 135//5 134//5
f 221//5 134//5 178//5
f 221//5 178//5 186//5
f 221//5 186//5 185//5
f 221//5 185//5 181//5
f 221//5 181//5 180//5
f 221//5 180//5 175//5
f 221//5 175//5 21//5
f 221//5 21//5 20//5
f 221//5 20//5 19//5
f 221//5 19//5 18//5
f 222//5 63//5 79//5
f 222//5 79//5 78//5
f 222//5 78//5 77//5
f 222//5 77//5 76//5
f 222//5 76//5 66//5
f 222//5 66//5 65//5
f 222//5 65//5 64//5
f 222//5 64//5 63//5
f 223//6 69//6 68//6
f 223//6 68//6 67//6
f 223//6 67//6 75//6
f 223//6 75//6 74//6
f 223//6 74//6 73//6
f 223//6 73//6 72//6
f 223//6 72//6 70//6
f 223//6 70//6 69//6
f 27//5 52//5 51//5
f 27//5 51//5 28//5
f 36//5 61//5 60//5
f 36//5 60//5 37//5
f 81//5 106//5 105//5
f 81//5 105//5 82//5
f 90//5 115//5 114//5
f 90//5 114//5 91//5
f 31//6 48//6 47//6
f 31//6 47//6 32//6
f 40//6 57//6 56//6
f 40//6 56//6 41//6
f 85//6 102//6 101//6
f 85//6 101//6 86//6
f 94//6 111//6 110//6
f 94//6 110//6 95//6
f 224//6 11//6 10//6
f 224//6 10//6 9//6
f 224//6 9//6 8//6
f 224//6 8//6 7//6
f 224//6 7//6 217//6
f 224//6 217//6 216//6
f 224//6 216//6 215//6
f 224//6 215//6 214//6
f 224//6 214//6 213//6
f 224//6 213//6 212//6
f 224//6 212//6 122//6
f 224//6 122//6 121//6
f 224//6 121//6 120//6
f 224//6 120//6 119//6
f 224//6 119//6 118//6
f 224//6 118//6 117//6
f 224//6 117//6 198//6
f 224//6 198//6 197//6
f 224//6 197//6 196//6
f 224//6 196//6 195//6
f 224//6 195//6 194//6
f 224//6 194//6 193//6
f 224//6 193//6 12//6
f 224//6 12//6 11//6
