# Tessera wall.interior.doorway.4m
mtllib wall.interior.doorway.4m.mtl
o wall.interior.doorway.4m
v 1.400000 0.000000 0.000000
v 1.400000 0.020000 0.000000
v 1.400000 0.180000 0.000000
v 1.400000 0.200000 0.000000
v 1.400000 0.200000 0.100000
v 1.400000 0.180000 0.100000
v 1.400000 0.020000 0.100000
v 1.400000 0.000000 0.100000
v 1.400000 0.100000 0.050000
v 1.400000 0.000000 0.120000
v 1.400000 0.020000 0.120000
v 1.400000 0.180000 0.120000
v 1.400000 0.200000 0.120000
v 1.400000 0.200000 2.200000
v 1.400000 0.180000 2.200000
v 1.400000 0.020000 2.200000
v 1.400000 0.000000 2.200000
v 1.400000 0.100000 1.160000
v 2.600000 0.000000 0.100000
v 2.600000 0.020000 0.100000
v 2.600000 0.180000 0.100000
v 2.600000 0.200000 0.100000
v 2.600000 0.200000 0.000000
v 2.600000 0.180000 0.000000
v 2.600000 0.020000 0.000000
v 2.600000 0.000000 0.000000
v 2.600000 0.100000 0.050000
v 2.600000 0.000000 2.200000
v 2.600000 0.020000 2.200000
v 2.600000 0.180000 2.200000
v 2.600000 0.200000 2.200000
v 2.600000 0.200000 0.120000
v 2.600000 0.180000 0.120000
v 2.600000 0.020000 0.120000
v 2.600000 0.000000 0.120000
v 2.600000 0.100000 1.160000
v 4.000000 0.000000 0.000000
v 4.000000 0.020000 0.000000
v 4.000000 0.180000 0.000000
v 4.000000 0.200000 0.000000
v 4.000000 0.200000 0.100000
v 4.000000 0.180000 0.100000
v 4.000000 0.020000 0.100000
v 4.000000 0.000000 0.100000
v 4.000000 0.100000 0.050000
v 4.000000 0.000000 0.120000
v 4.000000 0.020000 0.120000
v 4.000000 0.180000 0.120000
v 4.000000 0.200000 0.120000
v 4.000000 0.200000 2.200000
v 4.000000 0.200000 3.000000
v 4.000000 0.180000 3.000000
v 4.000000 0.020000 3.000000
v 4.000000 0.000000 3.000000
v 4.000000 0.000000 2.200000
v 4.000000 0.100000 1.688000
v 0.000000 0.000000 0.100000
v 0.000000 0.020000 0.100000
v 0.000000 0.180000 0.100000
v 0.000000 0.200000 0.100000
v 0.000000 0.200000 0.000000
v 0.000000 0.180000 0.000000
v 0.000000 0.020000 0.000000
v 0.000000 0.000000 0.000000
v 0.000000 0.100000 0.050000
v 0.000000 0.000000 2.200000
v 0.000000 0.000000 3.000000
v 0.000000 0.020000 3.000000
v 0.000000 0.180000 3.000000
v 0.000000 0.200000 3.000000
v 0.000000 0.200000 2.200000
v 0.000000 0.200000 0.120000
v 0.000000 0.180000 0.120000
v 0.000000 0.020000 0.120000
v 0.000000 0.000000 0.120000
v 0.000000 0.100000 1.688000
v 1.400000 0.000000 3.000000
v 0.700000 0.000000 1.773333
v 2.600000 0.000000 3.000000
v 3.300000 0.000000 1.773333
v 1.400000 0.200000 3.000000
v 0.700000 0.200000 1.773333
v 2.600000 0.200000 3.000000
v 3.300000 0.200000 1.773333
v 2.000000 0.100000 2.200000
v 2.000000 0.100000 3.000000
v 0.700000 0.100000 0.000000
v 3.300000 0.100000 0.000000
vn 1.000000 0.000000 0.000000
vn -1.000000 0.000000 0.000000
vn 0.000000 -1.000000 0.000000
vn 0.000000 1.000000 0.000000
vn 0.000000 0.000000 -1.000000
vn 0.000000 0.000000 1.000000
usemtl M_Plaster
f 9//1 1//1 2//1
f 9//1 2//1 3//1
f 9//1 3//1 4//1
f 9//1 4//1 5//1
f 9//1 5//1 6//1
f 9//1 6//1 7//1
f 9//1 7//1 8//1
f 9//1 8//1 1//1
f 18//1 10//1 11//1
f 18//1 11//1 12//1
f 18//1 12//1 13//1
f 18//1 13//1 14//1
f 18//1 14//1 15//1
f 18//1 15//1 16//1
f 18//1 16//1 17//1
f 18//1 17//1 10//1
f 7//1 6//1 12//1
f 7//1 12//1 11//1
f 27//2 19//2 20//2
f 27//2 20//2 21//2
f 27//2 21//2 22//2
f 27//2 22//2 23//2
f 27//2 23//2 24//2
f 27//2 24//2 25//2
f 27//2 25//2 26//2
f 27//2 26//2 19//2
f 36//2 28//2 29//2
f 36//2 29//2 30//2
f 36//2 30//2 31//2
f 36//2 31//2 32//2
f 36//2 32//2 33//2
f 36//2 33//2 34//2
f 36//2 34//2 35//2
f 36//2 35//2 28//2
f 34//2 33//2 21//2
f 34//2 21//2 20//2
f 45//1 37//1 38//1
f 45//1 38//1 39//1
f 45//1 39//1 40//1
f 45//1 40//1 41//1
f 45//1 41//1 42//1
f 45//1 42//1 43//1
f 45//1 43//1 44//1
f 45//1 44//1 37//1
f 56//1 46//1 47//1
f 56//1 47//1 48//1
f 56//1 48//1 49//1
f 56//1 49//1 50//1
f 56//1 50//1 51//1
f 56//1 51//1 52//1
f 56//1 52//1 53//1
f 56//1 53//1 54//1
f 56//1 54//1 55//1
f 56//1 55//1 46//1
f 43//1 42//1 48//1
f 43//1 48//1 47//1
f 65//2 57//2 58//2
f 65//2 58//2 59//2
f 65//2 59//2 60//2
f 65//2 60//2 61//2
f 65//2 61//2 62//2
f 65//2 62//2 63//2
f 65//2 63//2 64//2
f 65//2 64//2 57//2
f 76//2 66//2 67//2
f 76//2 67//2 68//2
f 76//2 68//2 69//2
f 76//2 69//2 70//2
f 76//2 70//2 71//2
f 76//2 71//2 72//2
f 76//2 72//2 73//2
f 76//2 73//2 74//2
f 76//2 74//2 75//2
f 76//2 75//2 66//2
f 74//2 73//2 59//2
f 74//2 59//2 58//2
f 1//3 8//3 57//3
f 1//3 57//3 64//3
f 37//3 44//3 19//3
f 37//3 19//3 26//3
f 78//3 10//3 17//3
f 78//3 17//3 77//3
f 78//3 77//3 67//3
f 78//3 67//3 66//3
f 78//3 66//3 75//3
f 78//3 75//3 10//3
f 80//3 46//3 55//3
f 80//3 55//3 54//3
f 80//3 54//3 79//3
f 80//3 79//3 28//3
f 80//3 28//3 35//3
f 80//3 35//3 46//3
f 28//3 79//3 77//3
f 28//3 77//3 17//3
f 61//4 60//4 5//4
f 61//4 5//4 4//4
f 23//4 22//4 41//4
f 23//4 41//4 40//4
f 82//4 72//4 71//4
f 82//4 71//4 70//4
f 82//4 70//4 81//4
f 82//4 81//4 14//4
f 82//4 14//4 13//4
f 82//4 13//4 72//4
f 84//4 32//4 31//4
f 84//4 31//4 83//4
f 84//4 83//4 51//4
f 84//4 51//4 50//4
f 84//4 50//4 49//4
f 84//4 49//4 32//4
f 14//4 81//4 83//4
f 14//4 83//4 31//4
f 7//3 11//3 74//3
f 7//3 74//3 58//3
f 43//3 47//3 34//3
f 43//3 34//3 20//3
f 59//4 73//4 12//4
f 59//4 12//4 6//4
f 21//4 33//4 48//4
f 21//4 48//4 42//4
f 85//5 16//5 15//5
f 85//5 15//5 14//5
f 85//5 14//5 31//5
f 85//5 31//5 30//5
f 85//5 30//5 29//5
f 85//5 29//5 28//5
f 85//5 28//5 17//5
f 85//5 17//5 16//5
f 86//6 67//6 77//6
f 86//6 77//6 79//6
f 86//6 79//6 54//6
f 86//6 54//6 53//6
f 86//6 53//6 52//6
f 86//6 52//6 51//6
f 86//6 51//6 83//6
f 86//6 83//6 81//6
f 86//6 81//6 70//6
f 86//6 70//6 69//6
f 86//6 69//6 68//6
f 86//6 68//6 67//6
f 87//5 63//5 62//5
f 87//5 62//5 61//5
f 87//5 61//5 4//5
f 87//5 4//5 3//5
f 87//5 3//5 2//5
f 87//5 2//5 1//5
f 87//5 1//5 64//5
f 87//5 64//5 63//5
f 88//5 25//5 24//5
f 88//5 24//5 23//5
f 88//5 23//5 40//5
f 88//5 40//5 39//5
f 88//5 39//5 38//5
f 88//5 38//5 37//5
f 88//5 37//5 26//5
f 88//5 26//5 25//5
f 57//6 8//6 7//6
f 57//6 7//6 58//6
f 59//6 6//6 5//6
f 59//6 5//6 60//6
f 19//6 44//6 43//6
f 19//6 43//6 20//6
f 21//6 42//6 41//6
f 21//6 41//6 22//6
f 74//5 11//5 10//5
f 74//5 10//5 75//5
f 72//5 13//5 12//5
f 72//5 12//5 73//5
f 34//5 47//5 46//5
f 34//5 46//5 35//5
f 32//5 49//5 48//5
f 32//5 48//5 33//5
