# Tessera window.leaf.1m8
mtllib window.leaf.1m8.mtl
o window.leaf.1m8
v 0.000000 0.000000 0.070000
v 0.000000 0.000000 1.090000
v 0.000000 0.000000 1.160000
v 0.000000 0.015000 1.160000
v 0.000000 0.045000 1.160000
v 0.000000 0.060000 1.160000
v 0.000000 0.060000 1.090000
v 0.000000 0.060000 0.070000
v 0.000000 0.060000 0.000000
v 0.000000 0.045000 0.000000
v 0.000000 0.015000 0.000000
v 0.000000 0.000000 0.000000
v 0.000000 0.030000 0.580000
v 0.070000 0.000000 0.070000
v 0.070000 0.015000 0.070000
v 0.070000 0.045000 0.070000
v 0.070000 0.060000 0.070000
v 0.070000 0.060000 1.090000
v 0.070000 0.045000 1.090000
v 0.070000 0.015000 1.090000
v 0.070000 0.000000 1.090000
v 0.070000 0.030000 0.580000
v 1.690000 0.000000 1.090000
v 1.690000 0.015000 1.090000
v 1.690000 0.045000 1.090000
v 1.690000 0.060000 1.090000
v 1.690000 0.060000 0.070000
v 1.690000 0.045000 0.070000
v 1.690000 0.015000 0.070000
v 1.690000 0.000000 0.070000
v 1.690000 0.030000 0.580000
v 1.760000 0.000000 0.000000
v 1.760000 0.015000 0.000000
v 1.760000 0.045000 0.000000
v 1.760000 0.060000 0.000000
v 1.760000 0.060000 0.070000
v 1.760000 0.060000 1.090000
v 1.760000 0.060000 1.160000
v 1.760000 0.045000 1.160000
v 1.760000 0.015000 1.160000
v 1.760000 0.000000 1.160000
v 1.760000 0.000000 1.090000
v 1.760000 0.000000 0.070000
v 1.760000 0.030000 0.580000
v 0.855000 0.015000 1.090000
v 0.855000 0.045000 1.090000
v 0.855000 0.045000 0.070000
v 0.855000 0.015000 0.070000
v 0.905000 0.015000 0.070000
v 0.905000 0.045000 0.070000
v 0.905000 0.045000 1.090000
v 0.905000 0.015000 1.090000
v 0.070000 0.000000 0.000000
v 0.855000 0.000000 0.000000
v 0.905000 0.000000 0.000000
v 1.690000 0.000000 0.000000
v 0.905000 0.000000 0.070000
v 0.855000 0.000000 0.070000
v 0.880000 0.000000 0.035000
v 0.070000 0.000000 1.160000
v 0.035000 0.000000 0.773333
v 1.690000 0.000000 1.160000
v 1.725000 0.000000 0.773333
v 0.855000 0.000000 1.090000
v 0.905000 0.000000 1.090000
v 0.905000 0.000000 1.160000
v 0.855000 0.000000 1.160000
v 0.880000 0.000000 1.125000
v 0.855000 0.060000 0.070000
v 0.905000 0.060000 0.070000
v 1.690000 0.060000 0.000000
v 0.905000 0.060000 0.000000
v 0.855000 0.060000 0.000000
v 0.070000 0.060000 0.000000
v 0.880000 0.060000 0.035000
v 0.070000 0.060000 1.160000
v 0.035000 0.060000 0.773333
v 1.690000 0.060000 1.160000
v 1.725000 0.060000 0.773333
v 0.855000 0.060000 1.160000
v 0.905000 0.060000 1.160000
v 0.905000 0.060000 1.090000
v 0.855000 0.060000 1.090000
v 0.880000 0.060000 1.125000
v 0.880000 0.030000 0.000000
v 0.880000 0.030000 1.160000
v 0.462500 0.030000 0.070000
v 1.150000 0.007500 0.070000
v 1.150000 0.052500 0.070000
v 0.462500 0.030000 1.090000
v 1.150000 0.007500 1.090000
v 1.150000 0.052500 1.090000
v 0.060000 0.024000 1.100000
v 0.060000 0.036000 1.100000
v 0.060000 0.036000 0.060000
v 0.060000 0.024000 0.060000
v 1.700000 0.024000 0.060000
v 1.700000 0.036000 0.060000
v 1.700000 0.036000 1.100000
v 1.700000 0.024000 1.100000
vn -1.000000 0.000000 0.000000
vn 1.000000 0.000000 0.000000
vn 0.000000 -1.000000 0.000000
vn 0.000000 1.000000 0.000000
vn 0.000000 0.000000 -1.000000
vn 0.000000 0.000000 1.000000
usemtl M_Glass
f 93//1 94//1 95//1
f 93//1 95//1 96//1
f 97//2 98//2 99//2
f 97//2 99//2 100//2
f 97//3 100//3 93//3
f 97//3 93//3 96//3
f 95//4 94//4 99//4
f 95//4 99//4 98//4
f 95//5 98//5 97//5
f 95//5 97//5 96//5
f 93//6 100//6 99//6
f 93//6 99//6 94//6
usemtl M_PaintedMetal
f 13//1 1//1 2//1
f 13//1 2//1 3//1
f 13//1 3//1 4//1
f 13//1 4//1 5//1
f 13//1 5//1 6//1
f 13//1 6//1 7//1
f 13//1 7//1 8//1
f 13//1 8//1 9//1
f 13//1 9//1 10//1
f 13//1 10//1 11//1
f 13//1 11//1 12//1
f 13//1 12//1 1//1
f 22//2 14//2 15//2
f 22//2 15//2 16//2
f 22//2 16//2 17//2
f 22//2 17//2 18//2
f 22//2 18//2 19//2
f 22//2 19//2 20//2
f 22//2 20//2 21//2
f 22//2 21//2 14//2
f 31//1 23//1 24//1
f 31//1 24//1 25//1
f 31//1 25//1 26//1
f 31//1 26//1 27//1
f 31//1 27//1 28//1
f 31//1 28//1 29//1
f 31//1 29//1 30//1
f 31//1 30//1 23//1
f 44//2 32//2 33//2
f 44//2 33//2 34//2
f 44//2 34//2 35//2
f 44//2 35//2 36//2
f 44//2 36//2 37//2
f 44//2 37//2 38//2
f 44//2 38//2 39//2
f 44//2 39//2 40//2
f 44//2 40//2 41//2
f 44//2 41//2 42//2
f 44//2 42//2 43//2
f 44//2 43//2 32//2
f 45//1 46//1 47//1
f 45//1 47//1 48//1
f 49//2 50//2 51//2
f 49//2 51//2 52//2
f 59//3 53//3 54//3
f 59//3 54//3 55//3
f 59//3 55//3 56//3
f 59//3 56//3 32//3
f 59//3 32//3 43//3
f 59//3 43//3 30//3
f 59//3 30//3 57//3
f 59//3 57//3 58//3
f 59//3 58//3 14//3
f 59//3 14//3 1//3
f 59//3 1//3 12//3
f 59//3 12//3 53//3
f 61//3 14//3 21//3
f 61//3 21//3 60//3
f 61//3 60//3 3//3
f 61//3 3//3 2//3
f 61//3 2//3 1//3
f 61//3 1//3 14//3
f 63//3 43//3 42//3
f 63//3 42//3 41//3
f 63//3 41//3 62//3
f 63//3 62//3 23//3
f 63//3 23//3 30//3
f 63//3 30//3 43//3
f 68//3 64//3 65//3
f 68//3 65//3 23//3
f 68//3 23//3 62//3
f 68//3 62//3 66//3
f 68//3 66//3 67//3
f 68//3 67//3 60//3
f 68//3 60//3 21//3
f 68//3 21//3 64//3
f 75//4 9//4 8//4
f 75//4 8//4 17//4
f 75//4 17//4 69//4
f 75//4 69//4 70//4
f 75//4 70//4 27//4
f 75//4 27//4 36//4
f 75//4 36//4 35//4
f 75//4 35//4 71//4
f 75//4 71//4 72//4
f 75//4 72//4 73//4
f 75//4 73//4 74//4
f 75//4 74//4 9//4
f 77//4 8//4 7//4
f 77//4 7//4 6//4
f 77//4 6//4 76//4
f 77//4 76//4 18//4
f 77//4 18//4 17//4
f 77//4 17//4 8//4
f 79//4 27//4 26//4
f 79//4 26//4 78//4
f 79//4 78//4 38//4
f 79//4 38//4 37//4
f 79//4 37//4 36//4
f 79//4 36//4 27//4
f 84//4 18//4 76//4
f 84//4 76//4 80//4
f 84//4 80//4 81//4
f 84//4 81//4 78//4
f 84//4 78//4 26//4
f 84//4 26//4 82//4
f 84//4 82//4 83//4
f 84//4 83//4 18//4
f 49//3 52//3 45//3
f 49//3 45//3 48//3
f 47//4 46//4 51//4
f 47//4 51//4 50//4
f 85//5 11//5 10//5
f 85//5 10//5 9//5
f 85//5 9//5 74//5
f 85//5 74//5 73//5
f 85//5 73//5 72//5
f 85//5 72//5 71//5
f 85//5 71//5 35//5
f 85//5 35//5 34//5
f 85//5 34//5 33//5
f 85//5 33//5 32//5
f 85//5 32//5 56//5
f 85//5 56//5 55//5
f 85//5 55//5 54//5
f 85//5 54//5 53//5
f 85//5 53//5 12//5
f 85//5 12//5 11//5
f 86//6 3//6 60//6
f 86//6 60//6 67//6
f 86//6 67//6 66//6
f 86//6 66//6 62//6
f 86//6 62//6 41//6
f 86//6 41//6 40//6
f 86//6 40//6 39//6
f 86//6 39//6 38//6
f 86//6 38//6 78//6
f 86//6 78//6 81//6
f 86//6 81//6 80//6
f 86//6 80//6 76//6
f 86//6 76//6 6//6
f 86//6 6//6 5//6
f 86//6 5//6 4//6
f 86//6 4//6 3//6
f 87//6 14//6 58//6
f 87//6 58//6 48//6
f 87//6 48//6 47//6
f 87//6 47//6 69//6
f 87//6 69//6 17//6
f 87//6 17//6 16//6
f 87//6 16//6 15//6
f 87//6 15//6 14//6
f 88//6 58//6 57//6
f 88//6 57//6 30//6
f 88//6 30//6 29//6
f 88//6 29//6 49//6
f 88//6 49//6 48//6
f 88//6 48//6 58//6
f 89//6 47//6 50//6
f 89//6 50//6 28//6
f 89//6 28//6 27//6
f 89//6 27//6 70//6
f 89//6 70//6 69//6
f 89//6 69//6 47//6
f 49//6 29//6 28//6
f 49//6 28//6 50//6
f 90//5 20//5 19//5
f 90//5 19//5 18//5
f 90//5 18//5 83//5
f 90//5 83//5 46//5
f 90//5 46//5 45//5
f 90//5 45//5 64//5
f 90//5 64//5 21//5
f 90//5 21//5 20//5
f 91//5 45//5 52//5
f 91//5 52//5 24//5
f 91//5 24//5 23//5
f 91//5 23//5 65//5
f 91//5 65//5 64//5
f 91//5 64//5 45//5
f 92//5 83//5 82//5
f 92//5 82//5 26//5
f 92//5 26//5 25//5
f 92//5 25//5 51//5
f 92//5 51//5 46//5
f 92//5 46//5 83//5
f 51//5 25//5 24//5
f 51//5 24//5 52//5
